G04 EAGLE Gerber RS-274X export*
G75*
%MOMM*%
%FSLAX34Y34*%
%LPD*%
%INBottom Copper*%
%IPPOS*%
%AMOC8*
5,1,8,0,0,1.08239X$1,22.5*%
G01*
%ADD10C,1.000000*%
%ADD11R,1.100000X1.000000*%
%ADD12R,0.635000X1.016000*%
%ADD13C,1.879600*%
%ADD14C,0.240000*%
%ADD15C,0.363000*%
%ADD16C,0.254000*%
%ADD17C,0.706400*%
%ADD18C,0.152400*%
%ADD19C,0.304800*%
%ADD20C,0.203200*%
%ADD21C,3.302000*%

G36*
X-248355Y-86348D02*
X-248355Y-86348D01*
X-248283Y-86346D01*
X-248234Y-86328D01*
X-248183Y-86320D01*
X-248120Y-86286D01*
X-248052Y-86261D01*
X-248012Y-86229D01*
X-247965Y-86204D01*
X-247916Y-86152D01*
X-247860Y-86108D01*
X-247832Y-86064D01*
X-247796Y-86026D01*
X-247766Y-85961D01*
X-247727Y-85901D01*
X-247714Y-85850D01*
X-247692Y-85803D01*
X-247685Y-85732D01*
X-247667Y-85662D01*
X-247671Y-85610D01*
X-247665Y-85559D01*
X-247681Y-85488D01*
X-247686Y-85417D01*
X-247707Y-85369D01*
X-247718Y-85318D01*
X-247754Y-85257D01*
X-247783Y-85191D01*
X-247827Y-85135D01*
X-247844Y-85107D01*
X-247862Y-85092D01*
X-247887Y-85060D01*
X-250560Y-82387D01*
X-252223Y-78373D01*
X-252223Y-74027D01*
X-250560Y-70013D01*
X-247487Y-66940D01*
X-243473Y-65277D01*
X-239127Y-65277D01*
X-235113Y-66940D01*
X-232040Y-70013D01*
X-230377Y-74027D01*
X-230377Y-78373D01*
X-232040Y-82387D01*
X-234713Y-85060D01*
X-234755Y-85118D01*
X-234804Y-85170D01*
X-234826Y-85217D01*
X-234856Y-85259D01*
X-234877Y-85328D01*
X-234908Y-85393D01*
X-234913Y-85445D01*
X-234929Y-85495D01*
X-234927Y-85566D01*
X-234935Y-85637D01*
X-234924Y-85688D01*
X-234922Y-85740D01*
X-234898Y-85808D01*
X-234882Y-85878D01*
X-234856Y-85923D01*
X-234838Y-85971D01*
X-234793Y-86027D01*
X-234756Y-86089D01*
X-234717Y-86123D01*
X-234684Y-86163D01*
X-234624Y-86202D01*
X-234569Y-86249D01*
X-234521Y-86268D01*
X-234477Y-86296D01*
X-234408Y-86314D01*
X-234341Y-86341D01*
X-234270Y-86349D01*
X-234239Y-86357D01*
X-234215Y-86355D01*
X-234174Y-86359D01*
X-223026Y-86359D01*
X-222955Y-86348D01*
X-222883Y-86346D01*
X-222834Y-86328D01*
X-222783Y-86320D01*
X-222720Y-86286D01*
X-222652Y-86261D01*
X-222612Y-86229D01*
X-222565Y-86204D01*
X-222516Y-86152D01*
X-222460Y-86108D01*
X-222432Y-86064D01*
X-222396Y-86026D01*
X-222366Y-85961D01*
X-222327Y-85901D01*
X-222314Y-85850D01*
X-222292Y-85803D01*
X-222285Y-85732D01*
X-222267Y-85662D01*
X-222271Y-85610D01*
X-222265Y-85559D01*
X-222281Y-85488D01*
X-222286Y-85417D01*
X-222307Y-85369D01*
X-222318Y-85318D01*
X-222354Y-85257D01*
X-222383Y-85191D01*
X-222427Y-85135D01*
X-222444Y-85107D01*
X-222462Y-85092D01*
X-222487Y-85060D01*
X-225160Y-82387D01*
X-226823Y-78373D01*
X-226823Y-74027D01*
X-225160Y-70013D01*
X-222087Y-66940D01*
X-218073Y-65277D01*
X-213727Y-65277D01*
X-209713Y-66940D01*
X-206640Y-70013D01*
X-204977Y-74027D01*
X-204977Y-78373D01*
X-206640Y-82387D01*
X-209313Y-85060D01*
X-209355Y-85118D01*
X-209404Y-85170D01*
X-209426Y-85217D01*
X-209456Y-85259D01*
X-209477Y-85328D01*
X-209508Y-85393D01*
X-209513Y-85445D01*
X-209529Y-85495D01*
X-209527Y-85566D01*
X-209535Y-85637D01*
X-209524Y-85688D01*
X-209522Y-85740D01*
X-209498Y-85808D01*
X-209482Y-85878D01*
X-209456Y-85923D01*
X-209438Y-85971D01*
X-209393Y-86027D01*
X-209356Y-86089D01*
X-209317Y-86123D01*
X-209284Y-86163D01*
X-209224Y-86202D01*
X-209169Y-86249D01*
X-209121Y-86268D01*
X-209077Y-86296D01*
X-209008Y-86314D01*
X-208941Y-86341D01*
X-208870Y-86349D01*
X-208839Y-86357D01*
X-208815Y-86355D01*
X-208774Y-86359D01*
X-197626Y-86359D01*
X-197555Y-86348D01*
X-197483Y-86346D01*
X-197434Y-86328D01*
X-197383Y-86320D01*
X-197320Y-86286D01*
X-197252Y-86261D01*
X-197212Y-86229D01*
X-197165Y-86204D01*
X-197116Y-86152D01*
X-197060Y-86108D01*
X-197032Y-86064D01*
X-196996Y-86026D01*
X-196966Y-85961D01*
X-196927Y-85901D01*
X-196914Y-85850D01*
X-196892Y-85803D01*
X-196885Y-85732D01*
X-196867Y-85662D01*
X-196871Y-85610D01*
X-196865Y-85559D01*
X-196881Y-85488D01*
X-196886Y-85417D01*
X-196907Y-85369D01*
X-196918Y-85318D01*
X-196954Y-85257D01*
X-196983Y-85191D01*
X-197027Y-85135D01*
X-197044Y-85107D01*
X-197062Y-85092D01*
X-197087Y-85060D01*
X-199760Y-82387D01*
X-201423Y-78373D01*
X-201423Y-74027D01*
X-199760Y-70013D01*
X-196687Y-66940D01*
X-192673Y-65277D01*
X-188327Y-65277D01*
X-184313Y-66940D01*
X-181240Y-70013D01*
X-179577Y-74027D01*
X-179577Y-78373D01*
X-181240Y-82387D01*
X-183913Y-85060D01*
X-183955Y-85118D01*
X-184004Y-85170D01*
X-184026Y-85217D01*
X-184056Y-85259D01*
X-184077Y-85328D01*
X-184108Y-85393D01*
X-184113Y-85445D01*
X-184129Y-85495D01*
X-184127Y-85566D01*
X-184135Y-85637D01*
X-184124Y-85688D01*
X-184122Y-85740D01*
X-184098Y-85808D01*
X-184082Y-85878D01*
X-184056Y-85923D01*
X-184038Y-85971D01*
X-183993Y-86027D01*
X-183956Y-86089D01*
X-183917Y-86123D01*
X-183884Y-86163D01*
X-183824Y-86202D01*
X-183769Y-86249D01*
X-183721Y-86268D01*
X-183677Y-86296D01*
X-183608Y-86314D01*
X-183541Y-86341D01*
X-183470Y-86349D01*
X-183439Y-86357D01*
X-183415Y-86355D01*
X-183374Y-86359D01*
X-172226Y-86359D01*
X-172155Y-86348D01*
X-172083Y-86346D01*
X-172034Y-86328D01*
X-171983Y-86320D01*
X-171920Y-86286D01*
X-171852Y-86261D01*
X-171812Y-86229D01*
X-171765Y-86204D01*
X-171716Y-86152D01*
X-171660Y-86108D01*
X-171632Y-86064D01*
X-171596Y-86026D01*
X-171566Y-85961D01*
X-171527Y-85901D01*
X-171514Y-85850D01*
X-171492Y-85803D01*
X-171485Y-85732D01*
X-171467Y-85662D01*
X-171471Y-85610D01*
X-171465Y-85559D01*
X-171481Y-85488D01*
X-171486Y-85417D01*
X-171507Y-85369D01*
X-171518Y-85318D01*
X-171554Y-85257D01*
X-171583Y-85191D01*
X-171627Y-85135D01*
X-171644Y-85107D01*
X-171662Y-85092D01*
X-171687Y-85060D01*
X-174360Y-82387D01*
X-176023Y-78373D01*
X-176023Y-74027D01*
X-174360Y-70013D01*
X-171287Y-66940D01*
X-167273Y-65277D01*
X-162927Y-65277D01*
X-158913Y-66940D01*
X-155840Y-70013D01*
X-154177Y-74027D01*
X-154177Y-78373D01*
X-155840Y-82387D01*
X-158513Y-85060D01*
X-158555Y-85118D01*
X-158604Y-85170D01*
X-158626Y-85217D01*
X-158656Y-85259D01*
X-158677Y-85328D01*
X-158708Y-85393D01*
X-158713Y-85445D01*
X-158729Y-85495D01*
X-158727Y-85566D01*
X-158735Y-85637D01*
X-158724Y-85688D01*
X-158722Y-85740D01*
X-158698Y-85808D01*
X-158682Y-85878D01*
X-158656Y-85923D01*
X-158638Y-85971D01*
X-158593Y-86027D01*
X-158556Y-86089D01*
X-158517Y-86123D01*
X-158484Y-86163D01*
X-158424Y-86202D01*
X-158369Y-86249D01*
X-158321Y-86268D01*
X-158277Y-86296D01*
X-158208Y-86314D01*
X-158141Y-86341D01*
X-158070Y-86349D01*
X-158039Y-86357D01*
X-158015Y-86355D01*
X-157974Y-86359D01*
X-146826Y-86359D01*
X-146755Y-86348D01*
X-146683Y-86346D01*
X-146634Y-86328D01*
X-146583Y-86320D01*
X-146520Y-86286D01*
X-146452Y-86261D01*
X-146412Y-86229D01*
X-146365Y-86204D01*
X-146316Y-86152D01*
X-146260Y-86108D01*
X-146232Y-86064D01*
X-146196Y-86026D01*
X-146166Y-85961D01*
X-146127Y-85901D01*
X-146114Y-85850D01*
X-146092Y-85803D01*
X-146085Y-85732D01*
X-146067Y-85662D01*
X-146071Y-85610D01*
X-146065Y-85559D01*
X-146081Y-85488D01*
X-146086Y-85417D01*
X-146107Y-85369D01*
X-146118Y-85318D01*
X-146154Y-85257D01*
X-146183Y-85191D01*
X-146227Y-85135D01*
X-146244Y-85107D01*
X-146262Y-85092D01*
X-146287Y-85060D01*
X-148960Y-82387D01*
X-150623Y-78373D01*
X-150623Y-74027D01*
X-148960Y-70013D01*
X-145887Y-66940D01*
X-141873Y-65277D01*
X-137527Y-65277D01*
X-133513Y-66940D01*
X-130440Y-70013D01*
X-128777Y-74027D01*
X-128777Y-78373D01*
X-130440Y-82387D01*
X-133113Y-85060D01*
X-133155Y-85118D01*
X-133204Y-85170D01*
X-133226Y-85217D01*
X-133256Y-85259D01*
X-133277Y-85328D01*
X-133308Y-85393D01*
X-133313Y-85445D01*
X-133329Y-85495D01*
X-133327Y-85566D01*
X-133335Y-85637D01*
X-133324Y-85688D01*
X-133322Y-85740D01*
X-133298Y-85808D01*
X-133282Y-85878D01*
X-133256Y-85923D01*
X-133238Y-85971D01*
X-133193Y-86027D01*
X-133156Y-86089D01*
X-133117Y-86123D01*
X-133084Y-86163D01*
X-133024Y-86202D01*
X-132969Y-86249D01*
X-132921Y-86268D01*
X-132877Y-86296D01*
X-132808Y-86314D01*
X-132741Y-86341D01*
X-132670Y-86349D01*
X-132639Y-86357D01*
X-132615Y-86355D01*
X-132574Y-86359D01*
X-121426Y-86359D01*
X-121355Y-86348D01*
X-121283Y-86346D01*
X-121234Y-86328D01*
X-121183Y-86320D01*
X-121120Y-86286D01*
X-121052Y-86261D01*
X-121012Y-86229D01*
X-120965Y-86204D01*
X-120916Y-86152D01*
X-120860Y-86108D01*
X-120832Y-86064D01*
X-120796Y-86026D01*
X-120766Y-85961D01*
X-120727Y-85901D01*
X-120714Y-85850D01*
X-120692Y-85803D01*
X-120685Y-85732D01*
X-120667Y-85662D01*
X-120671Y-85610D01*
X-120665Y-85559D01*
X-120681Y-85488D01*
X-120686Y-85417D01*
X-120707Y-85369D01*
X-120718Y-85318D01*
X-120754Y-85257D01*
X-120783Y-85191D01*
X-120827Y-85135D01*
X-120844Y-85107D01*
X-120862Y-85092D01*
X-120887Y-85060D01*
X-123560Y-82387D01*
X-125223Y-78373D01*
X-125223Y-74027D01*
X-123560Y-70013D01*
X-120487Y-66940D01*
X-116473Y-65277D01*
X-112127Y-65277D01*
X-108113Y-66940D01*
X-105040Y-70013D01*
X-103377Y-74027D01*
X-103377Y-78373D01*
X-105040Y-82387D01*
X-107713Y-85060D01*
X-107755Y-85118D01*
X-107804Y-85170D01*
X-107826Y-85217D01*
X-107856Y-85259D01*
X-107877Y-85328D01*
X-107908Y-85393D01*
X-107913Y-85445D01*
X-107929Y-85495D01*
X-107927Y-85566D01*
X-107935Y-85637D01*
X-107924Y-85688D01*
X-107922Y-85740D01*
X-107898Y-85808D01*
X-107882Y-85878D01*
X-107856Y-85923D01*
X-107838Y-85971D01*
X-107793Y-86027D01*
X-107756Y-86089D01*
X-107717Y-86123D01*
X-107684Y-86163D01*
X-107624Y-86202D01*
X-107569Y-86249D01*
X-107521Y-86268D01*
X-107477Y-86296D01*
X-107408Y-86314D01*
X-107341Y-86341D01*
X-107270Y-86349D01*
X-107239Y-86357D01*
X-107215Y-86355D01*
X-107174Y-86359D01*
X-96026Y-86359D01*
X-95955Y-86348D01*
X-95883Y-86346D01*
X-95834Y-86328D01*
X-95783Y-86320D01*
X-95720Y-86286D01*
X-95652Y-86261D01*
X-95612Y-86229D01*
X-95565Y-86204D01*
X-95516Y-86152D01*
X-95460Y-86108D01*
X-95432Y-86064D01*
X-95396Y-86026D01*
X-95366Y-85961D01*
X-95327Y-85901D01*
X-95314Y-85850D01*
X-95292Y-85803D01*
X-95285Y-85732D01*
X-95267Y-85662D01*
X-95271Y-85610D01*
X-95265Y-85559D01*
X-95281Y-85488D01*
X-95286Y-85417D01*
X-95307Y-85369D01*
X-95318Y-85318D01*
X-95354Y-85257D01*
X-95383Y-85191D01*
X-95427Y-85135D01*
X-95444Y-85107D01*
X-95462Y-85092D01*
X-95487Y-85060D01*
X-98160Y-82387D01*
X-99823Y-78373D01*
X-99823Y-74027D01*
X-98160Y-70013D01*
X-95087Y-66940D01*
X-91073Y-65277D01*
X-86727Y-65277D01*
X-82713Y-66940D01*
X-79640Y-70013D01*
X-77977Y-74027D01*
X-77977Y-78373D01*
X-79640Y-82387D01*
X-82313Y-85060D01*
X-82355Y-85118D01*
X-82404Y-85170D01*
X-82426Y-85217D01*
X-82456Y-85259D01*
X-82477Y-85328D01*
X-82508Y-85393D01*
X-82513Y-85445D01*
X-82529Y-85495D01*
X-82527Y-85566D01*
X-82535Y-85637D01*
X-82524Y-85688D01*
X-82522Y-85740D01*
X-82498Y-85808D01*
X-82482Y-85878D01*
X-82456Y-85923D01*
X-82438Y-85971D01*
X-82393Y-86027D01*
X-82356Y-86089D01*
X-82317Y-86123D01*
X-82284Y-86163D01*
X-82224Y-86202D01*
X-82169Y-86249D01*
X-82121Y-86268D01*
X-82077Y-86296D01*
X-82008Y-86314D01*
X-81941Y-86341D01*
X-81870Y-86349D01*
X-81839Y-86357D01*
X-81815Y-86355D01*
X-81774Y-86359D01*
X-70626Y-86359D01*
X-70555Y-86348D01*
X-70483Y-86346D01*
X-70434Y-86328D01*
X-70383Y-86320D01*
X-70320Y-86286D01*
X-70252Y-86261D01*
X-70212Y-86229D01*
X-70165Y-86204D01*
X-70116Y-86152D01*
X-70060Y-86108D01*
X-70032Y-86064D01*
X-69996Y-86026D01*
X-69966Y-85961D01*
X-69927Y-85901D01*
X-69914Y-85850D01*
X-69892Y-85803D01*
X-69885Y-85732D01*
X-69867Y-85662D01*
X-69871Y-85610D01*
X-69865Y-85559D01*
X-69881Y-85488D01*
X-69886Y-85417D01*
X-69907Y-85369D01*
X-69918Y-85318D01*
X-69954Y-85257D01*
X-69983Y-85191D01*
X-70027Y-85135D01*
X-70044Y-85107D01*
X-70062Y-85092D01*
X-70087Y-85060D01*
X-72760Y-82387D01*
X-74423Y-78373D01*
X-74423Y-74027D01*
X-72760Y-70013D01*
X-69687Y-66940D01*
X-65673Y-65277D01*
X-61327Y-65277D01*
X-57313Y-66940D01*
X-54240Y-70013D01*
X-52577Y-74027D01*
X-52577Y-78373D01*
X-54240Y-82387D01*
X-56913Y-85060D01*
X-56955Y-85118D01*
X-57004Y-85170D01*
X-57026Y-85217D01*
X-57056Y-85259D01*
X-57077Y-85328D01*
X-57108Y-85393D01*
X-57113Y-85445D01*
X-57129Y-85495D01*
X-57127Y-85566D01*
X-57135Y-85637D01*
X-57124Y-85688D01*
X-57122Y-85740D01*
X-57098Y-85808D01*
X-57082Y-85878D01*
X-57056Y-85923D01*
X-57038Y-85971D01*
X-56993Y-86027D01*
X-56956Y-86089D01*
X-56917Y-86123D01*
X-56884Y-86163D01*
X-56824Y-86202D01*
X-56769Y-86249D01*
X-56721Y-86268D01*
X-56677Y-86296D01*
X-56608Y-86314D01*
X-56541Y-86341D01*
X-56470Y-86349D01*
X-56439Y-86357D01*
X-56415Y-86355D01*
X-56374Y-86359D01*
X-45226Y-86359D01*
X-45155Y-86348D01*
X-45083Y-86346D01*
X-45034Y-86328D01*
X-44983Y-86320D01*
X-44920Y-86286D01*
X-44852Y-86261D01*
X-44812Y-86229D01*
X-44765Y-86204D01*
X-44716Y-86152D01*
X-44660Y-86108D01*
X-44632Y-86064D01*
X-44596Y-86026D01*
X-44566Y-85961D01*
X-44527Y-85901D01*
X-44514Y-85850D01*
X-44492Y-85803D01*
X-44485Y-85732D01*
X-44467Y-85662D01*
X-44471Y-85610D01*
X-44465Y-85559D01*
X-44481Y-85488D01*
X-44486Y-85417D01*
X-44507Y-85369D01*
X-44518Y-85318D01*
X-44554Y-85257D01*
X-44583Y-85191D01*
X-44627Y-85135D01*
X-44644Y-85107D01*
X-44662Y-85092D01*
X-44687Y-85060D01*
X-47360Y-82387D01*
X-49023Y-78373D01*
X-49023Y-74027D01*
X-47360Y-70013D01*
X-44287Y-66940D01*
X-40273Y-65277D01*
X-35927Y-65277D01*
X-31913Y-66940D01*
X-28840Y-70013D01*
X-27177Y-74027D01*
X-27177Y-78373D01*
X-28840Y-82387D01*
X-31513Y-85060D01*
X-31555Y-85118D01*
X-31604Y-85170D01*
X-31626Y-85217D01*
X-31656Y-85259D01*
X-31677Y-85328D01*
X-31708Y-85393D01*
X-31713Y-85445D01*
X-31729Y-85495D01*
X-31727Y-85566D01*
X-31735Y-85637D01*
X-31724Y-85688D01*
X-31722Y-85740D01*
X-31698Y-85808D01*
X-31682Y-85878D01*
X-31656Y-85923D01*
X-31638Y-85971D01*
X-31593Y-86027D01*
X-31556Y-86089D01*
X-31517Y-86123D01*
X-31484Y-86163D01*
X-31424Y-86202D01*
X-31369Y-86249D01*
X-31321Y-86268D01*
X-31277Y-86296D01*
X-31208Y-86314D01*
X-31141Y-86341D01*
X-31070Y-86349D01*
X-31039Y-86357D01*
X-31015Y-86355D01*
X-30974Y-86359D01*
X-19826Y-86359D01*
X-19755Y-86348D01*
X-19683Y-86346D01*
X-19634Y-86328D01*
X-19583Y-86320D01*
X-19520Y-86286D01*
X-19452Y-86261D01*
X-19412Y-86229D01*
X-19365Y-86204D01*
X-19316Y-86152D01*
X-19260Y-86108D01*
X-19232Y-86064D01*
X-19196Y-86026D01*
X-19166Y-85961D01*
X-19127Y-85901D01*
X-19114Y-85850D01*
X-19092Y-85803D01*
X-19085Y-85732D01*
X-19067Y-85662D01*
X-19071Y-85610D01*
X-19065Y-85559D01*
X-19081Y-85488D01*
X-19086Y-85417D01*
X-19107Y-85369D01*
X-19118Y-85318D01*
X-19154Y-85257D01*
X-19183Y-85191D01*
X-19227Y-85135D01*
X-19244Y-85107D01*
X-19262Y-85092D01*
X-19287Y-85060D01*
X-21960Y-82387D01*
X-23623Y-78373D01*
X-23623Y-74027D01*
X-21960Y-70013D01*
X-18887Y-66940D01*
X-14873Y-65277D01*
X-10527Y-65277D01*
X-6513Y-66940D01*
X-3440Y-70013D01*
X-1777Y-74027D01*
X-1777Y-78373D01*
X-3440Y-82387D01*
X-6113Y-85060D01*
X-6155Y-85118D01*
X-6204Y-85170D01*
X-6226Y-85217D01*
X-6256Y-85259D01*
X-6277Y-85328D01*
X-6308Y-85393D01*
X-6313Y-85445D01*
X-6329Y-85495D01*
X-6327Y-85566D01*
X-6335Y-85637D01*
X-6324Y-85688D01*
X-6322Y-85740D01*
X-6298Y-85808D01*
X-6282Y-85878D01*
X-6256Y-85923D01*
X-6238Y-85971D01*
X-6193Y-86027D01*
X-6156Y-86089D01*
X-6117Y-86123D01*
X-6084Y-86163D01*
X-6024Y-86202D01*
X-5969Y-86249D01*
X-5921Y-86268D01*
X-5877Y-86296D01*
X-5808Y-86314D01*
X-5741Y-86341D01*
X-5670Y-86349D01*
X-5639Y-86357D01*
X-5615Y-86355D01*
X-5574Y-86359D01*
X5574Y-86359D01*
X5645Y-86348D01*
X5717Y-86346D01*
X5766Y-86328D01*
X5817Y-86320D01*
X5880Y-86286D01*
X5948Y-86261D01*
X5988Y-86229D01*
X6035Y-86204D01*
X6084Y-86152D01*
X6140Y-86108D01*
X6168Y-86064D01*
X6204Y-86026D01*
X6234Y-85961D01*
X6273Y-85901D01*
X6286Y-85850D01*
X6308Y-85803D01*
X6315Y-85732D01*
X6333Y-85662D01*
X6329Y-85610D01*
X6335Y-85559D01*
X6319Y-85488D01*
X6314Y-85417D01*
X6293Y-85369D01*
X6282Y-85318D01*
X6246Y-85257D01*
X6217Y-85191D01*
X6173Y-85135D01*
X6156Y-85107D01*
X6138Y-85092D01*
X6113Y-85060D01*
X3440Y-82387D01*
X1777Y-78373D01*
X1777Y-74027D01*
X3440Y-70013D01*
X6513Y-66940D01*
X10527Y-65277D01*
X14873Y-65277D01*
X18887Y-66940D01*
X21960Y-70013D01*
X23623Y-74027D01*
X23623Y-78373D01*
X21960Y-82387D01*
X19287Y-85060D01*
X19245Y-85118D01*
X19196Y-85170D01*
X19174Y-85217D01*
X19144Y-85259D01*
X19123Y-85328D01*
X19092Y-85393D01*
X19087Y-85445D01*
X19071Y-85495D01*
X19073Y-85566D01*
X19065Y-85637D01*
X19076Y-85688D01*
X19078Y-85740D01*
X19102Y-85808D01*
X19118Y-85878D01*
X19144Y-85923D01*
X19162Y-85971D01*
X19207Y-86027D01*
X19244Y-86089D01*
X19283Y-86123D01*
X19316Y-86163D01*
X19376Y-86202D01*
X19431Y-86249D01*
X19479Y-86268D01*
X19523Y-86296D01*
X19592Y-86314D01*
X19659Y-86341D01*
X19730Y-86349D01*
X19761Y-86357D01*
X19785Y-86355D01*
X19826Y-86359D01*
X30974Y-86359D01*
X31045Y-86348D01*
X31117Y-86346D01*
X31166Y-86328D01*
X31217Y-86320D01*
X31280Y-86286D01*
X31348Y-86261D01*
X31388Y-86229D01*
X31435Y-86204D01*
X31484Y-86152D01*
X31540Y-86108D01*
X31568Y-86064D01*
X31604Y-86026D01*
X31634Y-85961D01*
X31673Y-85901D01*
X31686Y-85850D01*
X31708Y-85803D01*
X31715Y-85732D01*
X31733Y-85662D01*
X31729Y-85610D01*
X31735Y-85559D01*
X31719Y-85488D01*
X31714Y-85417D01*
X31693Y-85369D01*
X31682Y-85318D01*
X31646Y-85257D01*
X31617Y-85191D01*
X31573Y-85135D01*
X31556Y-85107D01*
X31538Y-85092D01*
X31513Y-85060D01*
X28840Y-82387D01*
X27177Y-78373D01*
X27177Y-74027D01*
X28840Y-70013D01*
X31913Y-66940D01*
X35927Y-65277D01*
X40273Y-65277D01*
X44287Y-66940D01*
X47360Y-70013D01*
X49023Y-74027D01*
X49023Y-78373D01*
X47360Y-82387D01*
X44687Y-85060D01*
X44645Y-85118D01*
X44596Y-85170D01*
X44574Y-85217D01*
X44544Y-85259D01*
X44523Y-85328D01*
X44492Y-85393D01*
X44487Y-85445D01*
X44471Y-85495D01*
X44473Y-85566D01*
X44465Y-85637D01*
X44476Y-85688D01*
X44478Y-85740D01*
X44502Y-85808D01*
X44518Y-85878D01*
X44544Y-85923D01*
X44562Y-85971D01*
X44607Y-86027D01*
X44644Y-86089D01*
X44683Y-86123D01*
X44716Y-86163D01*
X44776Y-86202D01*
X44831Y-86249D01*
X44879Y-86268D01*
X44923Y-86296D01*
X44992Y-86314D01*
X45059Y-86341D01*
X45130Y-86349D01*
X45161Y-86357D01*
X45185Y-86355D01*
X45226Y-86359D01*
X56374Y-86359D01*
X56445Y-86348D01*
X56517Y-86346D01*
X56566Y-86328D01*
X56617Y-86320D01*
X56680Y-86286D01*
X56748Y-86261D01*
X56788Y-86229D01*
X56835Y-86204D01*
X56884Y-86152D01*
X56940Y-86108D01*
X56968Y-86064D01*
X57004Y-86026D01*
X57034Y-85961D01*
X57073Y-85901D01*
X57086Y-85850D01*
X57108Y-85803D01*
X57115Y-85732D01*
X57133Y-85662D01*
X57129Y-85610D01*
X57135Y-85559D01*
X57119Y-85488D01*
X57114Y-85417D01*
X57093Y-85369D01*
X57082Y-85318D01*
X57046Y-85257D01*
X57017Y-85191D01*
X56973Y-85135D01*
X56956Y-85107D01*
X56938Y-85092D01*
X56913Y-85060D01*
X54240Y-82387D01*
X52577Y-78373D01*
X52577Y-74027D01*
X54240Y-70013D01*
X57313Y-66940D01*
X61327Y-65277D01*
X65673Y-65277D01*
X69687Y-66940D01*
X72760Y-70013D01*
X74423Y-74027D01*
X74423Y-78373D01*
X72760Y-82387D01*
X70087Y-85060D01*
X70045Y-85118D01*
X69996Y-85170D01*
X69974Y-85217D01*
X69944Y-85259D01*
X69923Y-85328D01*
X69892Y-85393D01*
X69887Y-85445D01*
X69871Y-85495D01*
X69873Y-85566D01*
X69865Y-85637D01*
X69876Y-85688D01*
X69878Y-85740D01*
X69902Y-85808D01*
X69918Y-85878D01*
X69944Y-85923D01*
X69962Y-85971D01*
X70007Y-86027D01*
X70044Y-86089D01*
X70083Y-86123D01*
X70116Y-86163D01*
X70176Y-86202D01*
X70231Y-86249D01*
X70279Y-86268D01*
X70323Y-86296D01*
X70392Y-86314D01*
X70459Y-86341D01*
X70530Y-86349D01*
X70561Y-86357D01*
X70585Y-86355D01*
X70626Y-86359D01*
X81774Y-86359D01*
X81845Y-86348D01*
X81917Y-86346D01*
X81966Y-86328D01*
X82017Y-86320D01*
X82080Y-86286D01*
X82148Y-86261D01*
X82188Y-86229D01*
X82235Y-86204D01*
X82284Y-86152D01*
X82340Y-86108D01*
X82368Y-86064D01*
X82404Y-86026D01*
X82434Y-85961D01*
X82473Y-85901D01*
X82486Y-85850D01*
X82508Y-85803D01*
X82515Y-85732D01*
X82533Y-85662D01*
X82529Y-85610D01*
X82535Y-85559D01*
X82519Y-85488D01*
X82514Y-85417D01*
X82493Y-85369D01*
X82482Y-85318D01*
X82446Y-85257D01*
X82417Y-85191D01*
X82373Y-85135D01*
X82356Y-85107D01*
X82338Y-85092D01*
X82313Y-85060D01*
X79640Y-82387D01*
X77977Y-78373D01*
X77977Y-74027D01*
X79640Y-70013D01*
X82713Y-66940D01*
X86727Y-65277D01*
X91073Y-65277D01*
X95087Y-66940D01*
X98160Y-70013D01*
X99823Y-74027D01*
X99823Y-78373D01*
X98160Y-82387D01*
X95487Y-85060D01*
X95445Y-85118D01*
X95396Y-85170D01*
X95374Y-85217D01*
X95344Y-85259D01*
X95323Y-85328D01*
X95292Y-85393D01*
X95287Y-85445D01*
X95271Y-85495D01*
X95273Y-85566D01*
X95265Y-85637D01*
X95276Y-85688D01*
X95278Y-85740D01*
X95302Y-85808D01*
X95318Y-85878D01*
X95344Y-85923D01*
X95362Y-85971D01*
X95407Y-86027D01*
X95444Y-86089D01*
X95483Y-86123D01*
X95516Y-86163D01*
X95576Y-86202D01*
X95631Y-86249D01*
X95679Y-86268D01*
X95723Y-86296D01*
X95792Y-86314D01*
X95859Y-86341D01*
X95930Y-86349D01*
X95961Y-86357D01*
X95985Y-86355D01*
X96026Y-86359D01*
X107174Y-86359D01*
X107245Y-86348D01*
X107317Y-86346D01*
X107366Y-86328D01*
X107417Y-86320D01*
X107480Y-86286D01*
X107548Y-86261D01*
X107588Y-86229D01*
X107635Y-86204D01*
X107684Y-86152D01*
X107740Y-86108D01*
X107768Y-86064D01*
X107804Y-86026D01*
X107834Y-85961D01*
X107873Y-85901D01*
X107886Y-85850D01*
X107908Y-85803D01*
X107915Y-85732D01*
X107933Y-85662D01*
X107929Y-85610D01*
X107935Y-85559D01*
X107919Y-85488D01*
X107914Y-85417D01*
X107893Y-85369D01*
X107882Y-85318D01*
X107846Y-85257D01*
X107817Y-85191D01*
X107773Y-85135D01*
X107756Y-85107D01*
X107738Y-85092D01*
X107713Y-85060D01*
X105040Y-82387D01*
X103377Y-78373D01*
X103377Y-74027D01*
X105040Y-70013D01*
X108113Y-66940D01*
X112127Y-65277D01*
X116473Y-65277D01*
X120487Y-66940D01*
X123560Y-70013D01*
X125223Y-74027D01*
X125223Y-78373D01*
X123560Y-82387D01*
X120887Y-85060D01*
X120845Y-85118D01*
X120796Y-85170D01*
X120774Y-85217D01*
X120744Y-85259D01*
X120723Y-85328D01*
X120692Y-85393D01*
X120687Y-85445D01*
X120671Y-85495D01*
X120673Y-85566D01*
X120665Y-85637D01*
X120676Y-85688D01*
X120678Y-85740D01*
X120702Y-85808D01*
X120718Y-85878D01*
X120744Y-85923D01*
X120762Y-85971D01*
X120807Y-86027D01*
X120844Y-86089D01*
X120883Y-86123D01*
X120916Y-86163D01*
X120976Y-86202D01*
X121031Y-86249D01*
X121079Y-86268D01*
X121123Y-86296D01*
X121192Y-86314D01*
X121259Y-86341D01*
X121330Y-86349D01*
X121361Y-86357D01*
X121385Y-86355D01*
X121426Y-86359D01*
X132574Y-86359D01*
X132645Y-86348D01*
X132717Y-86346D01*
X132766Y-86328D01*
X132817Y-86320D01*
X132880Y-86286D01*
X132948Y-86261D01*
X132988Y-86229D01*
X133035Y-86204D01*
X133084Y-86152D01*
X133140Y-86108D01*
X133168Y-86064D01*
X133204Y-86026D01*
X133234Y-85961D01*
X133273Y-85901D01*
X133286Y-85850D01*
X133308Y-85803D01*
X133315Y-85732D01*
X133333Y-85662D01*
X133329Y-85610D01*
X133335Y-85559D01*
X133319Y-85488D01*
X133314Y-85417D01*
X133293Y-85369D01*
X133282Y-85318D01*
X133246Y-85257D01*
X133217Y-85191D01*
X133173Y-85135D01*
X133156Y-85107D01*
X133138Y-85092D01*
X133113Y-85060D01*
X130440Y-82387D01*
X128777Y-78373D01*
X128777Y-74027D01*
X130440Y-70013D01*
X133513Y-66940D01*
X137527Y-65277D01*
X141873Y-65277D01*
X145887Y-66940D01*
X148960Y-70013D01*
X150623Y-74027D01*
X150623Y-78373D01*
X148960Y-82387D01*
X146287Y-85060D01*
X146245Y-85118D01*
X146196Y-85170D01*
X146174Y-85217D01*
X146144Y-85259D01*
X146123Y-85328D01*
X146092Y-85393D01*
X146087Y-85445D01*
X146071Y-85495D01*
X146073Y-85566D01*
X146065Y-85637D01*
X146076Y-85688D01*
X146078Y-85740D01*
X146102Y-85808D01*
X146118Y-85878D01*
X146144Y-85923D01*
X146162Y-85971D01*
X146207Y-86027D01*
X146244Y-86089D01*
X146283Y-86123D01*
X146316Y-86163D01*
X146376Y-86202D01*
X146431Y-86249D01*
X146479Y-86268D01*
X146523Y-86296D01*
X146592Y-86314D01*
X146659Y-86341D01*
X146730Y-86349D01*
X146761Y-86357D01*
X146785Y-86355D01*
X146826Y-86359D01*
X157974Y-86359D01*
X158045Y-86348D01*
X158117Y-86346D01*
X158166Y-86328D01*
X158217Y-86320D01*
X158280Y-86286D01*
X158348Y-86261D01*
X158388Y-86229D01*
X158435Y-86204D01*
X158484Y-86152D01*
X158540Y-86108D01*
X158568Y-86064D01*
X158604Y-86026D01*
X158634Y-85961D01*
X158673Y-85901D01*
X158686Y-85850D01*
X158708Y-85803D01*
X158715Y-85732D01*
X158733Y-85662D01*
X158729Y-85610D01*
X158735Y-85559D01*
X158719Y-85488D01*
X158714Y-85417D01*
X158693Y-85369D01*
X158682Y-85318D01*
X158646Y-85257D01*
X158617Y-85191D01*
X158573Y-85135D01*
X158556Y-85107D01*
X158538Y-85092D01*
X158513Y-85060D01*
X155840Y-82387D01*
X154177Y-78373D01*
X154177Y-74027D01*
X155840Y-70013D01*
X158913Y-66940D01*
X162927Y-65277D01*
X167273Y-65277D01*
X171287Y-66940D01*
X174360Y-70013D01*
X176023Y-74027D01*
X176023Y-78373D01*
X174360Y-82387D01*
X171687Y-85060D01*
X171645Y-85118D01*
X171596Y-85170D01*
X171574Y-85217D01*
X171544Y-85259D01*
X171523Y-85328D01*
X171492Y-85393D01*
X171487Y-85445D01*
X171471Y-85495D01*
X171473Y-85566D01*
X171465Y-85637D01*
X171476Y-85688D01*
X171478Y-85740D01*
X171502Y-85808D01*
X171518Y-85878D01*
X171544Y-85923D01*
X171562Y-85971D01*
X171607Y-86027D01*
X171644Y-86089D01*
X171683Y-86123D01*
X171716Y-86163D01*
X171776Y-86202D01*
X171831Y-86249D01*
X171879Y-86268D01*
X171923Y-86296D01*
X171992Y-86314D01*
X172059Y-86341D01*
X172130Y-86349D01*
X172161Y-86357D01*
X172185Y-86355D01*
X172226Y-86359D01*
X183374Y-86359D01*
X183445Y-86348D01*
X183517Y-86346D01*
X183566Y-86328D01*
X183617Y-86320D01*
X183680Y-86286D01*
X183748Y-86261D01*
X183788Y-86229D01*
X183835Y-86204D01*
X183884Y-86152D01*
X183940Y-86108D01*
X183968Y-86064D01*
X184004Y-86026D01*
X184034Y-85961D01*
X184073Y-85901D01*
X184086Y-85850D01*
X184108Y-85803D01*
X184115Y-85732D01*
X184133Y-85662D01*
X184129Y-85610D01*
X184135Y-85559D01*
X184119Y-85488D01*
X184114Y-85417D01*
X184093Y-85369D01*
X184082Y-85318D01*
X184046Y-85257D01*
X184017Y-85191D01*
X183973Y-85135D01*
X183956Y-85107D01*
X183938Y-85092D01*
X183913Y-85060D01*
X181240Y-82387D01*
X179577Y-78373D01*
X179577Y-74027D01*
X181240Y-70013D01*
X184313Y-66940D01*
X188327Y-65277D01*
X192673Y-65277D01*
X196687Y-66940D01*
X199760Y-70013D01*
X201423Y-74027D01*
X201423Y-78373D01*
X199760Y-82387D01*
X197087Y-85060D01*
X197045Y-85118D01*
X196996Y-85170D01*
X196974Y-85217D01*
X196944Y-85259D01*
X196923Y-85328D01*
X196892Y-85393D01*
X196887Y-85445D01*
X196871Y-85495D01*
X196873Y-85566D01*
X196865Y-85637D01*
X196876Y-85688D01*
X196878Y-85740D01*
X196902Y-85808D01*
X196918Y-85878D01*
X196944Y-85923D01*
X196962Y-85971D01*
X197007Y-86027D01*
X197044Y-86089D01*
X197083Y-86123D01*
X197116Y-86163D01*
X197176Y-86202D01*
X197231Y-86249D01*
X197279Y-86268D01*
X197323Y-86296D01*
X197392Y-86314D01*
X197459Y-86341D01*
X197530Y-86349D01*
X197561Y-86357D01*
X197585Y-86355D01*
X197626Y-86359D01*
X208093Y-86359D01*
X208101Y-86358D01*
X208109Y-86359D01*
X208223Y-86338D01*
X208336Y-86320D01*
X208343Y-86316D01*
X208351Y-86314D01*
X208452Y-86258D01*
X208553Y-86204D01*
X208559Y-86199D01*
X208566Y-86195D01*
X208644Y-86109D01*
X208723Y-86026D01*
X208726Y-86019D01*
X208731Y-86013D01*
X208778Y-85907D01*
X208826Y-85803D01*
X208827Y-85795D01*
X208830Y-85788D01*
X208841Y-85673D01*
X208853Y-85559D01*
X208852Y-85551D01*
X208852Y-85543D01*
X208826Y-85431D01*
X208801Y-85318D01*
X208797Y-85311D01*
X208795Y-85303D01*
X208734Y-85206D01*
X208675Y-85107D01*
X208669Y-85102D01*
X208664Y-85095D01*
X208540Y-84982D01*
X208453Y-84919D01*
X207181Y-83647D01*
X206124Y-82191D01*
X205307Y-80588D01*
X204751Y-78877D01*
X204568Y-77723D01*
X215138Y-77723D01*
X215158Y-77720D01*
X215177Y-77722D01*
X215279Y-77700D01*
X215381Y-77683D01*
X215398Y-77674D01*
X215418Y-77670D01*
X215507Y-77617D01*
X215598Y-77568D01*
X215612Y-77554D01*
X215629Y-77544D01*
X215696Y-77465D01*
X215767Y-77390D01*
X215776Y-77372D01*
X215789Y-77357D01*
X215827Y-77261D01*
X215871Y-77167D01*
X215873Y-77147D01*
X215881Y-77129D01*
X215899Y-76962D01*
X215899Y-76199D01*
X215901Y-76199D01*
X215901Y-76962D01*
X215904Y-76982D01*
X215902Y-77001D01*
X215924Y-77103D01*
X215941Y-77205D01*
X215950Y-77222D01*
X215954Y-77242D01*
X216007Y-77331D01*
X216056Y-77422D01*
X216070Y-77436D01*
X216080Y-77453D01*
X216159Y-77520D01*
X216234Y-77591D01*
X216252Y-77600D01*
X216267Y-77613D01*
X216363Y-77652D01*
X216457Y-77695D01*
X216477Y-77697D01*
X216495Y-77705D01*
X216662Y-77723D01*
X227232Y-77723D01*
X227049Y-78877D01*
X226493Y-80588D01*
X225676Y-82191D01*
X224619Y-83647D01*
X223347Y-84919D01*
X223260Y-84982D01*
X223254Y-84988D01*
X223247Y-84992D01*
X223168Y-85075D01*
X223087Y-85157D01*
X223083Y-85164D01*
X223077Y-85170D01*
X223029Y-85274D01*
X222978Y-85378D01*
X222977Y-85386D01*
X222974Y-85393D01*
X222961Y-85507D01*
X222946Y-85622D01*
X222948Y-85629D01*
X222947Y-85637D01*
X222971Y-85750D01*
X222993Y-85863D01*
X222997Y-85870D01*
X222999Y-85878D01*
X223058Y-85977D01*
X223115Y-86077D01*
X223121Y-86082D01*
X223125Y-86089D01*
X223212Y-86164D01*
X223299Y-86240D01*
X223306Y-86244D01*
X223312Y-86249D01*
X223419Y-86292D01*
X223525Y-86337D01*
X223533Y-86338D01*
X223540Y-86341D01*
X223707Y-86359D01*
X234174Y-86359D01*
X234245Y-86348D01*
X234317Y-86346D01*
X234366Y-86328D01*
X234417Y-86320D01*
X234480Y-86286D01*
X234548Y-86261D01*
X234588Y-86229D01*
X234635Y-86204D01*
X234684Y-86152D01*
X234740Y-86108D01*
X234768Y-86064D01*
X234804Y-86026D01*
X234834Y-85961D01*
X234873Y-85901D01*
X234886Y-85850D01*
X234908Y-85803D01*
X234915Y-85732D01*
X234933Y-85662D01*
X234929Y-85610D01*
X234935Y-85559D01*
X234919Y-85488D01*
X234914Y-85417D01*
X234893Y-85369D01*
X234882Y-85318D01*
X234846Y-85257D01*
X234817Y-85191D01*
X234773Y-85135D01*
X234756Y-85107D01*
X234738Y-85092D01*
X234713Y-85060D01*
X232040Y-82387D01*
X230377Y-78373D01*
X230377Y-74027D01*
X232040Y-70013D01*
X235113Y-66940D01*
X239127Y-65277D01*
X243473Y-65277D01*
X247487Y-66940D01*
X250560Y-70013D01*
X252223Y-74027D01*
X252223Y-78373D01*
X250560Y-82387D01*
X247887Y-85060D01*
X247845Y-85118D01*
X247796Y-85170D01*
X247774Y-85217D01*
X247744Y-85259D01*
X247723Y-85328D01*
X247692Y-85393D01*
X247687Y-85445D01*
X247671Y-85495D01*
X247673Y-85566D01*
X247665Y-85637D01*
X247676Y-85688D01*
X247678Y-85740D01*
X247702Y-85808D01*
X247718Y-85878D01*
X247744Y-85923D01*
X247762Y-85971D01*
X247807Y-86027D01*
X247844Y-86089D01*
X247883Y-86123D01*
X247916Y-86163D01*
X247976Y-86202D01*
X248031Y-86249D01*
X248079Y-86268D01*
X248123Y-86296D01*
X248192Y-86314D01*
X248259Y-86341D01*
X248330Y-86349D01*
X248361Y-86357D01*
X248385Y-86355D01*
X248426Y-86359D01*
X268567Y-86359D01*
X268637Y-86348D01*
X268709Y-86346D01*
X268758Y-86328D01*
X268809Y-86320D01*
X268873Y-86286D01*
X268940Y-86261D01*
X268981Y-86229D01*
X269027Y-86204D01*
X269076Y-86152D01*
X269132Y-86108D01*
X269160Y-86064D01*
X269196Y-86026D01*
X269226Y-85961D01*
X269265Y-85901D01*
X269278Y-85850D01*
X269300Y-85803D01*
X269308Y-85732D01*
X269325Y-85662D01*
X269321Y-85610D01*
X269327Y-85559D01*
X269311Y-85488D01*
X269306Y-85417D01*
X269286Y-85369D01*
X269274Y-85318D01*
X269238Y-85257D01*
X269210Y-85191D01*
X269165Y-85135D01*
X269148Y-85107D01*
X269131Y-85092D01*
X269105Y-85060D01*
X264111Y-80066D01*
X261365Y-73437D01*
X261365Y-66263D01*
X264111Y-59634D01*
X269184Y-54561D01*
X275813Y-51815D01*
X282987Y-51815D01*
X289616Y-54561D01*
X294610Y-59555D01*
X294668Y-59597D01*
X294720Y-59646D01*
X294767Y-59668D01*
X294809Y-59698D01*
X294878Y-59719D01*
X294943Y-59750D01*
X294995Y-59755D01*
X295045Y-59771D01*
X295116Y-59769D01*
X295187Y-59777D01*
X295238Y-59766D01*
X295290Y-59764D01*
X295358Y-59740D01*
X295428Y-59724D01*
X295473Y-59698D01*
X295521Y-59680D01*
X295577Y-59635D01*
X295639Y-59598D01*
X295673Y-59559D01*
X295713Y-59526D01*
X295752Y-59466D01*
X295799Y-59411D01*
X295818Y-59363D01*
X295846Y-59319D01*
X295864Y-59250D01*
X295891Y-59183D01*
X295899Y-59112D01*
X295907Y-59081D01*
X295905Y-59057D01*
X295909Y-59017D01*
X295909Y59017D01*
X295898Y59087D01*
X295896Y59159D01*
X295878Y59208D01*
X295870Y59259D01*
X295836Y59323D01*
X295811Y59390D01*
X295779Y59431D01*
X295754Y59477D01*
X295702Y59526D01*
X295658Y59582D01*
X295614Y59610D01*
X295576Y59646D01*
X295511Y59676D01*
X295451Y59715D01*
X295400Y59728D01*
X295353Y59750D01*
X295282Y59758D01*
X295212Y59775D01*
X295160Y59771D01*
X295109Y59777D01*
X295038Y59761D01*
X294967Y59756D01*
X294919Y59736D01*
X294868Y59724D01*
X294807Y59688D01*
X294741Y59660D01*
X294685Y59615D01*
X294657Y59598D01*
X294642Y59581D01*
X294610Y59555D01*
X289616Y54561D01*
X282987Y51815D01*
X275813Y51815D01*
X269184Y54561D01*
X264111Y59634D01*
X261365Y66263D01*
X261365Y73437D01*
X264111Y80066D01*
X269105Y85060D01*
X269147Y85118D01*
X269196Y85170D01*
X269218Y85217D01*
X269248Y85259D01*
X269269Y85328D01*
X269300Y85393D01*
X269305Y85445D01*
X269321Y85495D01*
X269319Y85566D01*
X269327Y85637D01*
X269316Y85688D01*
X269314Y85740D01*
X269290Y85808D01*
X269274Y85878D01*
X269248Y85923D01*
X269230Y85971D01*
X269185Y86027D01*
X269148Y86089D01*
X269109Y86123D01*
X269076Y86163D01*
X269016Y86202D01*
X268961Y86249D01*
X268913Y86268D01*
X268869Y86296D01*
X268800Y86314D01*
X268733Y86341D01*
X268662Y86349D01*
X268631Y86357D01*
X268607Y86355D01*
X268567Y86359D01*
X248426Y86359D01*
X248355Y86348D01*
X248283Y86346D01*
X248234Y86328D01*
X248183Y86320D01*
X248120Y86286D01*
X248052Y86261D01*
X248012Y86229D01*
X247965Y86204D01*
X247916Y86152D01*
X247860Y86108D01*
X247832Y86064D01*
X247796Y86026D01*
X247766Y85961D01*
X247727Y85901D01*
X247714Y85850D01*
X247692Y85803D01*
X247685Y85732D01*
X247667Y85662D01*
X247671Y85610D01*
X247665Y85559D01*
X247681Y85488D01*
X247686Y85417D01*
X247707Y85369D01*
X247718Y85318D01*
X247754Y85257D01*
X247783Y85191D01*
X247827Y85135D01*
X247844Y85107D01*
X247862Y85092D01*
X247887Y85060D01*
X250560Y82387D01*
X252223Y78373D01*
X252223Y74027D01*
X250560Y70013D01*
X247487Y66940D01*
X243473Y65277D01*
X239127Y65277D01*
X235113Y66940D01*
X232040Y70013D01*
X230377Y74027D01*
X230377Y78373D01*
X232040Y82387D01*
X234713Y85060D01*
X234755Y85118D01*
X234804Y85170D01*
X234826Y85217D01*
X234856Y85259D01*
X234877Y85328D01*
X234908Y85393D01*
X234913Y85445D01*
X234929Y85495D01*
X234927Y85566D01*
X234935Y85637D01*
X234924Y85688D01*
X234922Y85740D01*
X234898Y85808D01*
X234882Y85878D01*
X234856Y85923D01*
X234838Y85971D01*
X234793Y86027D01*
X234756Y86089D01*
X234717Y86123D01*
X234684Y86163D01*
X234624Y86202D01*
X234569Y86249D01*
X234521Y86268D01*
X234477Y86296D01*
X234408Y86314D01*
X234341Y86341D01*
X234270Y86349D01*
X234239Y86357D01*
X234215Y86355D01*
X234174Y86359D01*
X223026Y86359D01*
X222955Y86348D01*
X222883Y86346D01*
X222834Y86328D01*
X222783Y86320D01*
X222720Y86286D01*
X222652Y86261D01*
X222612Y86229D01*
X222565Y86204D01*
X222516Y86152D01*
X222460Y86108D01*
X222432Y86064D01*
X222396Y86026D01*
X222366Y85961D01*
X222327Y85901D01*
X222314Y85850D01*
X222292Y85803D01*
X222285Y85732D01*
X222267Y85662D01*
X222271Y85610D01*
X222265Y85559D01*
X222281Y85488D01*
X222286Y85417D01*
X222307Y85369D01*
X222318Y85318D01*
X222354Y85257D01*
X222383Y85191D01*
X222427Y85135D01*
X222444Y85107D01*
X222462Y85092D01*
X222487Y85060D01*
X225160Y82387D01*
X226823Y78373D01*
X226823Y74027D01*
X225160Y70013D01*
X222087Y66940D01*
X218073Y65277D01*
X213727Y65277D01*
X209713Y66940D01*
X206640Y70013D01*
X204977Y74027D01*
X204977Y78373D01*
X206640Y82387D01*
X209313Y85060D01*
X209355Y85118D01*
X209404Y85170D01*
X209426Y85217D01*
X209456Y85259D01*
X209477Y85328D01*
X209508Y85393D01*
X209513Y85445D01*
X209529Y85495D01*
X209527Y85566D01*
X209535Y85637D01*
X209524Y85688D01*
X209522Y85740D01*
X209498Y85808D01*
X209482Y85878D01*
X209456Y85923D01*
X209438Y85971D01*
X209393Y86027D01*
X209356Y86089D01*
X209317Y86123D01*
X209284Y86163D01*
X209224Y86202D01*
X209169Y86249D01*
X209121Y86268D01*
X209077Y86296D01*
X209008Y86314D01*
X208941Y86341D01*
X208870Y86349D01*
X208839Y86357D01*
X208815Y86355D01*
X208774Y86359D01*
X197626Y86359D01*
X197555Y86348D01*
X197483Y86346D01*
X197434Y86328D01*
X197383Y86320D01*
X197320Y86286D01*
X197252Y86261D01*
X197212Y86229D01*
X197165Y86204D01*
X197116Y86152D01*
X197060Y86108D01*
X197032Y86064D01*
X196996Y86026D01*
X196966Y85961D01*
X196927Y85901D01*
X196914Y85850D01*
X196892Y85803D01*
X196885Y85732D01*
X196867Y85662D01*
X196871Y85610D01*
X196865Y85559D01*
X196881Y85488D01*
X196886Y85417D01*
X196907Y85369D01*
X196918Y85318D01*
X196954Y85257D01*
X196983Y85191D01*
X197027Y85135D01*
X197044Y85107D01*
X197062Y85092D01*
X197087Y85060D01*
X199760Y82387D01*
X201423Y78373D01*
X201423Y74027D01*
X199760Y70013D01*
X196687Y66940D01*
X192673Y65277D01*
X188327Y65277D01*
X184313Y66940D01*
X181240Y70013D01*
X179577Y74027D01*
X179577Y78373D01*
X181240Y82387D01*
X183913Y85060D01*
X183955Y85118D01*
X184004Y85170D01*
X184026Y85217D01*
X184056Y85259D01*
X184077Y85328D01*
X184108Y85393D01*
X184113Y85445D01*
X184129Y85495D01*
X184127Y85566D01*
X184135Y85637D01*
X184124Y85688D01*
X184122Y85740D01*
X184098Y85808D01*
X184082Y85878D01*
X184056Y85923D01*
X184038Y85971D01*
X183993Y86027D01*
X183956Y86089D01*
X183917Y86123D01*
X183884Y86163D01*
X183824Y86202D01*
X183769Y86249D01*
X183721Y86268D01*
X183677Y86296D01*
X183608Y86314D01*
X183541Y86341D01*
X183470Y86349D01*
X183439Y86357D01*
X183415Y86355D01*
X183374Y86359D01*
X172226Y86359D01*
X172155Y86348D01*
X172083Y86346D01*
X172034Y86328D01*
X171983Y86320D01*
X171920Y86286D01*
X171852Y86261D01*
X171812Y86229D01*
X171765Y86204D01*
X171716Y86152D01*
X171660Y86108D01*
X171632Y86064D01*
X171596Y86026D01*
X171566Y85961D01*
X171527Y85901D01*
X171514Y85850D01*
X171492Y85803D01*
X171485Y85732D01*
X171467Y85662D01*
X171471Y85610D01*
X171465Y85559D01*
X171481Y85488D01*
X171486Y85417D01*
X171507Y85369D01*
X171518Y85318D01*
X171554Y85257D01*
X171583Y85191D01*
X171627Y85135D01*
X171644Y85107D01*
X171662Y85092D01*
X171687Y85060D01*
X174360Y82387D01*
X176023Y78373D01*
X176023Y74027D01*
X174360Y70013D01*
X171287Y66940D01*
X167273Y65277D01*
X162927Y65277D01*
X158913Y66940D01*
X155840Y70013D01*
X154177Y74027D01*
X154177Y78373D01*
X155840Y82387D01*
X158513Y85060D01*
X158555Y85118D01*
X158604Y85170D01*
X158626Y85217D01*
X158656Y85259D01*
X158677Y85328D01*
X158708Y85393D01*
X158713Y85445D01*
X158729Y85495D01*
X158727Y85566D01*
X158735Y85637D01*
X158724Y85688D01*
X158722Y85740D01*
X158698Y85808D01*
X158682Y85878D01*
X158656Y85923D01*
X158638Y85971D01*
X158593Y86027D01*
X158556Y86089D01*
X158517Y86123D01*
X158484Y86163D01*
X158424Y86202D01*
X158369Y86249D01*
X158321Y86268D01*
X158277Y86296D01*
X158208Y86314D01*
X158141Y86341D01*
X158070Y86349D01*
X158039Y86357D01*
X158015Y86355D01*
X157974Y86359D01*
X146826Y86359D01*
X146755Y86348D01*
X146683Y86346D01*
X146634Y86328D01*
X146583Y86320D01*
X146520Y86286D01*
X146452Y86261D01*
X146412Y86229D01*
X146365Y86204D01*
X146316Y86152D01*
X146260Y86108D01*
X146232Y86064D01*
X146196Y86026D01*
X146166Y85961D01*
X146127Y85901D01*
X146114Y85850D01*
X146092Y85803D01*
X146085Y85732D01*
X146067Y85662D01*
X146071Y85610D01*
X146065Y85559D01*
X146081Y85488D01*
X146086Y85417D01*
X146107Y85369D01*
X146118Y85318D01*
X146154Y85257D01*
X146183Y85191D01*
X146227Y85135D01*
X146244Y85107D01*
X146262Y85092D01*
X146287Y85060D01*
X148960Y82387D01*
X150623Y78373D01*
X150623Y74027D01*
X148960Y70013D01*
X145887Y66940D01*
X141873Y65277D01*
X137527Y65277D01*
X133513Y66940D01*
X130440Y70013D01*
X128777Y74027D01*
X128777Y78373D01*
X130440Y82387D01*
X133113Y85060D01*
X133155Y85118D01*
X133204Y85170D01*
X133226Y85217D01*
X133256Y85259D01*
X133277Y85328D01*
X133308Y85393D01*
X133313Y85445D01*
X133329Y85495D01*
X133327Y85566D01*
X133335Y85637D01*
X133324Y85688D01*
X133322Y85740D01*
X133298Y85808D01*
X133282Y85878D01*
X133256Y85923D01*
X133238Y85971D01*
X133193Y86027D01*
X133156Y86089D01*
X133117Y86123D01*
X133084Y86163D01*
X133024Y86202D01*
X132969Y86249D01*
X132921Y86268D01*
X132877Y86296D01*
X132808Y86314D01*
X132741Y86341D01*
X132670Y86349D01*
X132639Y86357D01*
X132615Y86355D01*
X132574Y86359D01*
X121426Y86359D01*
X121355Y86348D01*
X121283Y86346D01*
X121234Y86328D01*
X121183Y86320D01*
X121120Y86286D01*
X121052Y86261D01*
X121012Y86229D01*
X120965Y86204D01*
X120916Y86152D01*
X120860Y86108D01*
X120832Y86064D01*
X120796Y86026D01*
X120766Y85961D01*
X120727Y85901D01*
X120714Y85850D01*
X120692Y85803D01*
X120685Y85732D01*
X120667Y85662D01*
X120671Y85610D01*
X120665Y85559D01*
X120681Y85488D01*
X120686Y85417D01*
X120707Y85369D01*
X120718Y85318D01*
X120754Y85257D01*
X120783Y85191D01*
X120827Y85135D01*
X120844Y85107D01*
X120862Y85092D01*
X120887Y85060D01*
X123560Y82387D01*
X125223Y78373D01*
X125223Y74027D01*
X123560Y70013D01*
X120487Y66940D01*
X116473Y65277D01*
X112127Y65277D01*
X108113Y66940D01*
X105040Y70013D01*
X103377Y74027D01*
X103377Y78373D01*
X105040Y82387D01*
X107713Y85060D01*
X107755Y85118D01*
X107804Y85170D01*
X107826Y85217D01*
X107856Y85259D01*
X107877Y85328D01*
X107908Y85393D01*
X107913Y85445D01*
X107929Y85495D01*
X107927Y85566D01*
X107935Y85637D01*
X107924Y85688D01*
X107922Y85740D01*
X107898Y85808D01*
X107882Y85878D01*
X107856Y85923D01*
X107838Y85971D01*
X107793Y86027D01*
X107756Y86089D01*
X107717Y86123D01*
X107684Y86163D01*
X107624Y86202D01*
X107569Y86249D01*
X107521Y86268D01*
X107477Y86296D01*
X107408Y86314D01*
X107341Y86341D01*
X107270Y86349D01*
X107239Y86357D01*
X107215Y86355D01*
X107174Y86359D01*
X96026Y86359D01*
X95955Y86348D01*
X95883Y86346D01*
X95834Y86328D01*
X95783Y86320D01*
X95720Y86286D01*
X95652Y86261D01*
X95612Y86229D01*
X95565Y86204D01*
X95516Y86152D01*
X95460Y86108D01*
X95432Y86064D01*
X95396Y86026D01*
X95366Y85961D01*
X95327Y85901D01*
X95314Y85850D01*
X95292Y85803D01*
X95285Y85732D01*
X95267Y85662D01*
X95271Y85610D01*
X95265Y85559D01*
X95281Y85488D01*
X95286Y85417D01*
X95307Y85369D01*
X95318Y85318D01*
X95354Y85257D01*
X95383Y85191D01*
X95427Y85135D01*
X95444Y85107D01*
X95462Y85092D01*
X95487Y85060D01*
X98160Y82387D01*
X99823Y78373D01*
X99823Y74027D01*
X98160Y70013D01*
X95087Y66940D01*
X91073Y65277D01*
X86727Y65277D01*
X82713Y66940D01*
X79640Y70013D01*
X77977Y74027D01*
X77977Y78373D01*
X79640Y82387D01*
X82313Y85060D01*
X82355Y85118D01*
X82404Y85170D01*
X82426Y85217D01*
X82456Y85259D01*
X82477Y85328D01*
X82508Y85393D01*
X82513Y85445D01*
X82529Y85495D01*
X82527Y85566D01*
X82535Y85637D01*
X82524Y85688D01*
X82522Y85740D01*
X82498Y85808D01*
X82482Y85878D01*
X82456Y85923D01*
X82438Y85971D01*
X82393Y86027D01*
X82356Y86089D01*
X82317Y86123D01*
X82284Y86163D01*
X82224Y86202D01*
X82169Y86249D01*
X82121Y86268D01*
X82077Y86296D01*
X82008Y86314D01*
X81941Y86341D01*
X81870Y86349D01*
X81839Y86357D01*
X81815Y86355D01*
X81774Y86359D01*
X70626Y86359D01*
X70555Y86348D01*
X70483Y86346D01*
X70434Y86328D01*
X70383Y86320D01*
X70320Y86286D01*
X70252Y86261D01*
X70212Y86229D01*
X70165Y86204D01*
X70116Y86152D01*
X70060Y86108D01*
X70032Y86064D01*
X69996Y86026D01*
X69966Y85961D01*
X69927Y85901D01*
X69914Y85850D01*
X69892Y85803D01*
X69885Y85732D01*
X69867Y85662D01*
X69871Y85610D01*
X69865Y85559D01*
X69881Y85488D01*
X69886Y85417D01*
X69907Y85369D01*
X69918Y85318D01*
X69954Y85257D01*
X69983Y85191D01*
X70027Y85135D01*
X70044Y85107D01*
X70062Y85092D01*
X70087Y85060D01*
X72760Y82387D01*
X74423Y78373D01*
X74423Y74027D01*
X72760Y70013D01*
X69687Y66940D01*
X66673Y65692D01*
X66591Y65641D01*
X66505Y65595D01*
X66481Y65572D01*
X66464Y65562D01*
X66443Y65536D01*
X66383Y65480D01*
X65919Y64931D01*
X65568Y64902D01*
X56550Y64149D01*
X56523Y64143D01*
X56495Y64143D01*
X56404Y64113D01*
X56312Y64090D01*
X56288Y64074D01*
X56261Y64066D01*
X56122Y63972D01*
X56051Y63912D01*
X55585Y63951D01*
X55443Y63940D01*
X55340Y63932D01*
X55339Y63932D01*
X55218Y63880D01*
X55114Y63835D01*
X55113Y63835D01*
X55112Y63834D01*
X54983Y63731D01*
X51735Y60482D01*
X51693Y60424D01*
X51643Y60372D01*
X51621Y60325D01*
X51591Y60283D01*
X51570Y60214D01*
X51540Y60149D01*
X51534Y60097D01*
X51519Y60047D01*
X51521Y59976D01*
X51513Y59905D01*
X51524Y59854D01*
X51525Y59802D01*
X51550Y59734D01*
X51565Y59664D01*
X51592Y59619D01*
X51610Y59571D01*
X51654Y59515D01*
X51691Y59453D01*
X51731Y59419D01*
X51763Y59379D01*
X51824Y59340D01*
X51878Y59293D01*
X51926Y59274D01*
X51970Y59246D01*
X52040Y59228D01*
X52106Y59201D01*
X52178Y59193D01*
X52209Y59185D01*
X52232Y59187D01*
X52273Y59183D01*
X151165Y59183D01*
X163340Y47008D01*
X163356Y46996D01*
X163369Y46981D01*
X163456Y46924D01*
X163540Y46864D01*
X163559Y46858D01*
X163575Y46848D01*
X163676Y46822D01*
X163775Y46792D01*
X163795Y46792D01*
X163814Y46788D01*
X163917Y46796D01*
X164021Y46798D01*
X164039Y46805D01*
X164059Y46807D01*
X164154Y46847D01*
X164252Y46883D01*
X164267Y46895D01*
X164286Y46903D01*
X164417Y47008D01*
X164493Y47085D01*
X165463Y47085D01*
X165511Y47093D01*
X165560Y47091D01*
X165632Y47112D01*
X165706Y47124D01*
X165749Y47147D01*
X165796Y47161D01*
X165857Y47205D01*
X165923Y47240D01*
X165957Y47275D01*
X165997Y47303D01*
X166041Y47364D01*
X166093Y47418D01*
X166113Y47462D01*
X166142Y47502D01*
X166186Y47620D01*
X166196Y47641D01*
X166197Y47648D01*
X166201Y47659D01*
X166393Y48416D01*
X167277Y48941D01*
X167796Y49250D01*
X167804Y49257D01*
X167814Y49261D01*
X167846Y49287D01*
X167867Y49298D01*
X167889Y49321D01*
X167945Y49366D01*
X169355Y50777D01*
X173545Y50777D01*
X176507Y47815D01*
X176507Y43625D01*
X175170Y42289D01*
X175159Y42274D01*
X175145Y42263D01*
X175047Y42127D01*
X174987Y42022D01*
X174987Y42021D01*
X174246Y40718D01*
X173626Y40547D01*
X173559Y40529D01*
X173521Y40512D01*
X173481Y40503D01*
X173410Y40460D01*
X173335Y40426D01*
X173305Y40398D01*
X173270Y40377D01*
X173216Y40314D01*
X173156Y40257D01*
X173137Y40221D01*
X173110Y40190D01*
X173079Y40113D01*
X173040Y40040D01*
X173034Y40000D01*
X173018Y39962D01*
X173001Y39803D01*
X173000Y39798D01*
X173000Y39797D01*
X173000Y39795D01*
X173000Y38676D01*
X173014Y38586D01*
X173022Y38495D01*
X173034Y38466D01*
X173039Y38434D01*
X173082Y38353D01*
X173118Y38269D01*
X173144Y38237D01*
X173155Y38216D01*
X173178Y38194D01*
X173223Y38138D01*
X177355Y34006D01*
X177429Y33953D01*
X177498Y33893D01*
X177529Y33881D01*
X177555Y33862D01*
X177642Y33835D01*
X177727Y33801D01*
X177768Y33797D01*
X177790Y33790D01*
X177822Y33791D01*
X177893Y33783D01*
X181839Y33783D01*
X181859Y33786D01*
X181878Y33784D01*
X181980Y33806D01*
X182082Y33822D01*
X182099Y33832D01*
X182119Y33836D01*
X182208Y33889D01*
X182299Y33938D01*
X182313Y33952D01*
X182330Y33962D01*
X182397Y34041D01*
X182469Y34116D01*
X182477Y34134D01*
X182490Y34149D01*
X182529Y34245D01*
X182572Y34339D01*
X182574Y34359D01*
X182582Y34377D01*
X182600Y34544D01*
X182600Y46192D01*
X183493Y47085D01*
X188025Y47085D01*
X188060Y47090D01*
X188094Y47088D01*
X188259Y47121D01*
X188528Y47208D01*
X188614Y47252D01*
X188702Y47290D01*
X188729Y47311D01*
X188747Y47320D01*
X188770Y47344D01*
X188833Y47394D01*
X189675Y48237D01*
X193865Y48237D01*
X196827Y45275D01*
X196827Y41085D01*
X193865Y38123D01*
X193522Y38123D01*
X193465Y38114D01*
X193408Y38115D01*
X193345Y38094D01*
X193279Y38084D01*
X193229Y38057D01*
X193174Y38039D01*
X193090Y37983D01*
X193062Y37968D01*
X193053Y37959D01*
X193034Y37946D01*
X192366Y37388D01*
X192358Y37385D01*
X192317Y37349D01*
X192270Y37321D01*
X192225Y37268D01*
X192173Y37223D01*
X192146Y37176D01*
X192110Y37134D01*
X192084Y37070D01*
X192050Y37010D01*
X192039Y36957D01*
X192018Y36906D01*
X192006Y36798D01*
X192000Y36769D01*
X192002Y36758D01*
X192000Y36739D01*
X192000Y34768D01*
X191107Y33875D01*
X185993Y33875D01*
X185923Y33864D01*
X185851Y33862D01*
X185802Y33844D01*
X185751Y33836D01*
X185687Y33802D01*
X185620Y33777D01*
X185579Y33745D01*
X185533Y33720D01*
X185484Y33668D01*
X185428Y33624D01*
X185400Y33580D01*
X185364Y33542D01*
X185334Y33477D01*
X185295Y33417D01*
X185282Y33366D01*
X185260Y33319D01*
X185252Y33248D01*
X185235Y33178D01*
X185239Y33126D01*
X185233Y33075D01*
X185248Y33004D01*
X185254Y32933D01*
X185274Y32885D01*
X185285Y32834D01*
X185322Y32773D01*
X185350Y32707D01*
X185395Y32651D01*
X185412Y32623D01*
X185429Y32608D01*
X185455Y32576D01*
X186406Y31625D01*
X188723Y29308D01*
X188723Y11332D01*
X185000Y7609D01*
X184947Y7535D01*
X184887Y7466D01*
X184875Y7435D01*
X184856Y7409D01*
X184829Y7322D01*
X184795Y7237D01*
X184791Y7196D01*
X184784Y7174D01*
X184785Y7142D01*
X184777Y7071D01*
X184777Y1523D01*
X178767Y1523D01*
X178767Y2959D01*
X178756Y3029D01*
X178754Y3101D01*
X178736Y3150D01*
X178728Y3201D01*
X178694Y3265D01*
X178669Y3332D01*
X178637Y3373D01*
X178612Y3419D01*
X178561Y3468D01*
X178516Y3524D01*
X178472Y3552D01*
X178434Y3588D01*
X178369Y3618D01*
X178309Y3657D01*
X178258Y3670D01*
X178211Y3692D01*
X178140Y3700D01*
X178070Y3717D01*
X178018Y3713D01*
X177967Y3719D01*
X177896Y3704D01*
X177825Y3698D01*
X177777Y3678D01*
X177726Y3667D01*
X177665Y3630D01*
X177599Y3602D01*
X177543Y3557D01*
X177515Y3540D01*
X177500Y3523D01*
X177468Y3497D01*
X176548Y2577D01*
X176495Y2503D01*
X176435Y2434D01*
X176423Y2403D01*
X176404Y2377D01*
X176377Y2290D01*
X176343Y2205D01*
X176339Y2164D01*
X176332Y2142D01*
X176333Y2110D01*
X176325Y2039D01*
X176325Y-4699D01*
X176328Y-4719D01*
X176326Y-4738D01*
X176348Y-4840D01*
X176364Y-4942D01*
X176374Y-4959D01*
X176378Y-4979D01*
X176431Y-5068D01*
X176480Y-5159D01*
X176494Y-5173D01*
X176504Y-5190D01*
X176583Y-5257D01*
X176658Y-5329D01*
X176676Y-5337D01*
X176691Y-5350D01*
X176787Y-5389D01*
X176881Y-5432D01*
X176901Y-5434D01*
X176919Y-5442D01*
X177086Y-5460D01*
X178006Y-5460D01*
X178026Y-5457D01*
X178045Y-5459D01*
X178147Y-5437D01*
X178249Y-5421D01*
X178266Y-5411D01*
X178286Y-5407D01*
X178375Y-5354D01*
X178466Y-5305D01*
X178480Y-5291D01*
X178497Y-5281D01*
X178564Y-5202D01*
X178636Y-5127D01*
X178644Y-5109D01*
X178657Y-5094D01*
X178696Y-4998D01*
X178739Y-4904D01*
X178741Y-4884D01*
X178749Y-4866D01*
X178767Y-4699D01*
X178767Y-1523D01*
X185538Y-1523D01*
X185558Y-1520D01*
X185577Y-1522D01*
X185679Y-1500D01*
X185781Y-1483D01*
X185798Y-1474D01*
X185818Y-1470D01*
X185907Y-1417D01*
X185998Y-1368D01*
X186012Y-1354D01*
X186029Y-1344D01*
X186096Y-1265D01*
X186167Y-1190D01*
X186176Y-1172D01*
X186189Y-1157D01*
X186228Y-1061D01*
X186271Y-967D01*
X186273Y-947D01*
X186281Y-929D01*
X186299Y-762D01*
X186299Y1D01*
X186301Y1D01*
X186301Y-762D01*
X186304Y-782D01*
X186302Y-801D01*
X186324Y-903D01*
X186341Y-1005D01*
X186350Y-1022D01*
X186354Y-1042D01*
X186407Y-1131D01*
X186456Y-1222D01*
X186470Y-1236D01*
X186480Y-1253D01*
X186559Y-1320D01*
X186634Y-1391D01*
X186652Y-1400D01*
X186667Y-1413D01*
X186763Y-1452D01*
X186857Y-1495D01*
X186877Y-1497D01*
X186895Y-1505D01*
X187062Y-1523D01*
X193833Y-1523D01*
X193833Y-3577D01*
X193844Y-3648D01*
X193846Y-3720D01*
X193864Y-3768D01*
X193872Y-3820D01*
X193906Y-3883D01*
X193931Y-3951D01*
X193963Y-3991D01*
X193988Y-4037D01*
X194039Y-4087D01*
X194084Y-4143D01*
X194128Y-4171D01*
X194166Y-4207D01*
X194231Y-4237D01*
X194291Y-4276D01*
X194342Y-4288D01*
X194389Y-4310D01*
X194460Y-4318D01*
X194530Y-4336D01*
X194582Y-4332D01*
X194633Y-4337D01*
X194704Y-4322D01*
X194775Y-4317D01*
X194823Y-4296D01*
X194874Y-4285D01*
X194935Y-4248D01*
X195001Y-4220D01*
X195057Y-4175D01*
X195085Y-4159D01*
X195100Y-4141D01*
X195132Y-4115D01*
X203430Y4182D01*
X203431Y4183D01*
X203492Y4269D01*
X203574Y4382D01*
X203574Y4383D01*
X203609Y4495D01*
X203646Y4617D01*
X203647Y4618D01*
X203646Y4620D01*
X203651Y4785D01*
X203612Y5251D01*
X203672Y5322D01*
X203686Y5346D01*
X203706Y5366D01*
X203749Y5451D01*
X203798Y5533D01*
X203804Y5561D01*
X203817Y5586D01*
X203849Y5750D01*
X204602Y14768D01*
X204631Y15119D01*
X205180Y15583D01*
X205243Y15657D01*
X205311Y15726D01*
X205327Y15755D01*
X205340Y15770D01*
X205352Y15801D01*
X205392Y15873D01*
X206640Y18887D01*
X209713Y21960D01*
X213727Y23623D01*
X218073Y23623D01*
X222087Y21960D01*
X225160Y18887D01*
X226823Y14873D01*
X226823Y10527D01*
X225160Y6513D01*
X222087Y3440D01*
X219073Y2192D01*
X218991Y2141D01*
X218905Y2095D01*
X218881Y2072D01*
X218864Y2062D01*
X218843Y2036D01*
X218783Y1980D01*
X218319Y1431D01*
X217968Y1402D01*
X208950Y649D01*
X208923Y643D01*
X208895Y643D01*
X208804Y613D01*
X208712Y590D01*
X208688Y574D01*
X208661Y566D01*
X208522Y472D01*
X208451Y412D01*
X207985Y451D01*
X207843Y440D01*
X207740Y432D01*
X207739Y432D01*
X207603Y373D01*
X207514Y335D01*
X207513Y335D01*
X207511Y333D01*
X207383Y231D01*
X198547Y-8606D01*
X198505Y-8664D01*
X198455Y-8716D01*
X198433Y-8763D01*
X198403Y-8805D01*
X198382Y-8874D01*
X198352Y-8939D01*
X198346Y-8991D01*
X198331Y-9041D01*
X198333Y-9112D01*
X198325Y-9183D01*
X198336Y-9234D01*
X198337Y-9286D01*
X198362Y-9354D01*
X198377Y-9424D01*
X198404Y-9469D01*
X198422Y-9517D01*
X198466Y-9573D01*
X198503Y-9635D01*
X198543Y-9669D01*
X198575Y-9709D01*
X198636Y-9748D01*
X198690Y-9795D01*
X198738Y-9814D01*
X198782Y-9842D01*
X198852Y-9860D01*
X198918Y-9887D01*
X198990Y-9895D01*
X199021Y-9903D01*
X199044Y-9901D01*
X199085Y-9905D01*
X204726Y-9905D01*
X204841Y-9886D01*
X204957Y-9869D01*
X204963Y-9867D01*
X204969Y-9866D01*
X205072Y-9811D01*
X205176Y-9758D01*
X205181Y-9753D01*
X205186Y-9750D01*
X205266Y-9666D01*
X205349Y-9582D01*
X205352Y-9576D01*
X205356Y-9572D01*
X205364Y-9555D01*
X205430Y-9435D01*
X206640Y-6513D01*
X209713Y-3440D01*
X213727Y-1777D01*
X218073Y-1777D01*
X222087Y-3440D01*
X225160Y-6513D01*
X226823Y-10527D01*
X226823Y-14873D01*
X225160Y-18887D01*
X222087Y-21960D01*
X218073Y-23623D01*
X213727Y-23623D01*
X209713Y-21960D01*
X206640Y-18887D01*
X205430Y-15965D01*
X205368Y-15865D01*
X205308Y-15765D01*
X205303Y-15761D01*
X205300Y-15756D01*
X205210Y-15681D01*
X205121Y-15605D01*
X205115Y-15603D01*
X205111Y-15599D01*
X205002Y-15557D01*
X204893Y-15513D01*
X204885Y-15512D01*
X204881Y-15511D01*
X204863Y-15510D01*
X204726Y-15495D01*
X201172Y-15495D01*
X201082Y-15509D01*
X200991Y-15517D01*
X200961Y-15529D01*
X200929Y-15534D01*
X200849Y-15577D01*
X200765Y-15613D01*
X200733Y-15639D01*
X200712Y-15650D01*
X200690Y-15673D01*
X200634Y-15718D01*
X196078Y-20274D01*
X192336Y-20274D01*
X192316Y-20277D01*
X192297Y-20275D01*
X192195Y-20297D01*
X192093Y-20313D01*
X192076Y-20323D01*
X192056Y-20327D01*
X191967Y-20380D01*
X191876Y-20429D01*
X191862Y-20443D01*
X191845Y-20453D01*
X191778Y-20532D01*
X191706Y-20607D01*
X191698Y-20625D01*
X191685Y-20640D01*
X191646Y-20736D01*
X191603Y-20830D01*
X191601Y-20850D01*
X191593Y-20868D01*
X191575Y-21035D01*
X191575Y-23047D01*
X190318Y-24304D01*
X190265Y-24378D01*
X190205Y-24448D01*
X190193Y-24478D01*
X190174Y-24504D01*
X190147Y-24591D01*
X190113Y-24676D01*
X190109Y-24717D01*
X190102Y-24739D01*
X190103Y-24771D01*
X190095Y-24843D01*
X190095Y-36117D01*
X190098Y-36137D01*
X190096Y-36156D01*
X190111Y-36226D01*
X190117Y-36298D01*
X190129Y-36328D01*
X190134Y-36360D01*
X190144Y-36378D01*
X190148Y-36397D01*
X190184Y-36457D01*
X190213Y-36525D01*
X190239Y-36557D01*
X190250Y-36577D01*
X190265Y-36592D01*
X190274Y-36608D01*
X190291Y-36622D01*
X190318Y-36656D01*
X191575Y-37913D01*
X191575Y-49049D01*
X189618Y-51006D01*
X187853Y-51006D01*
X187763Y-51020D01*
X187672Y-51028D01*
X187642Y-51040D01*
X187610Y-51045D01*
X187530Y-51088D01*
X187446Y-51124D01*
X187413Y-51150D01*
X187393Y-51161D01*
X187371Y-51184D01*
X187315Y-51229D01*
X183968Y-54576D01*
X182108Y-56436D01*
X163072Y-56436D01*
X162982Y-56450D01*
X162891Y-56458D01*
X162861Y-56470D01*
X162829Y-56475D01*
X162749Y-56518D01*
X162665Y-56554D01*
X162633Y-56580D01*
X162612Y-56591D01*
X162590Y-56614D01*
X162534Y-56659D01*
X159248Y-59945D01*
X7732Y-59945D01*
X7151Y-59364D01*
X7115Y-59338D01*
X7084Y-59304D01*
X7016Y-59266D01*
X6952Y-59220D01*
X6909Y-59207D01*
X6869Y-59185D01*
X6733Y-59153D01*
X6717Y-59148D01*
X6712Y-59148D01*
X6706Y-59146D01*
X4617Y-58890D01*
X4587Y-58891D01*
X4524Y-58884D01*
X3576Y-58884D01*
X3565Y-58872D01*
X3496Y-58833D01*
X3432Y-58788D01*
X3389Y-58774D01*
X3349Y-58752D01*
X3259Y-58731D01*
X3072Y-58491D01*
X3056Y-58477D01*
X3048Y-58463D01*
X3034Y-58451D01*
X3010Y-58422D01*
X538Y-55950D01*
X522Y-55938D01*
X510Y-55922D01*
X422Y-55866D01*
X339Y-55806D01*
X320Y-55800D01*
X303Y-55789D01*
X202Y-55764D01*
X103Y-55734D01*
X84Y-55734D01*
X64Y-55729D01*
X-39Y-55737D01*
X-142Y-55740D01*
X-161Y-55747D01*
X-181Y-55748D01*
X-276Y-55789D01*
X-373Y-55824D01*
X-389Y-55837D01*
X-407Y-55845D01*
X-538Y-55950D01*
X-2985Y-58397D01*
X-4927Y-58397D01*
X-4942Y-58399D01*
X-4956Y-58397D01*
X-5122Y-58422D01*
X-6695Y-58838D01*
X-7501Y-58369D01*
X-7502Y-58369D01*
X-10293Y-56746D01*
X-10401Y-56705D01*
X-10509Y-56661D01*
X-10518Y-56660D01*
X-10523Y-56658D01*
X-10543Y-56657D01*
X-10676Y-56643D01*
X-19148Y-56643D01*
X-27626Y-48165D01*
X-27684Y-48123D01*
X-27736Y-48074D01*
X-27783Y-48052D01*
X-27825Y-48021D01*
X-27894Y-48000D01*
X-27959Y-47970D01*
X-28011Y-47964D01*
X-28061Y-47949D01*
X-28132Y-47951D01*
X-28203Y-47943D01*
X-28254Y-47954D01*
X-28306Y-47955D01*
X-28374Y-47980D01*
X-28444Y-47995D01*
X-28489Y-48022D01*
X-28537Y-48040D01*
X-28593Y-48085D01*
X-28655Y-48122D01*
X-28689Y-48161D01*
X-28729Y-48194D01*
X-28768Y-48254D01*
X-28815Y-48308D01*
X-28834Y-48357D01*
X-28862Y-48401D01*
X-28880Y-48470D01*
X-28907Y-48537D01*
X-28915Y-48608D01*
X-28923Y-48639D01*
X-28921Y-48662D01*
X-28925Y-48703D01*
X-28925Y-48812D01*
X-29818Y-49705D01*
X-42082Y-49705D01*
X-42975Y-48812D01*
X-42975Y-38354D01*
X-42978Y-38334D01*
X-42976Y-38315D01*
X-42998Y-38214D01*
X-43014Y-38111D01*
X-43024Y-38094D01*
X-43028Y-38074D01*
X-43081Y-37985D01*
X-43130Y-37894D01*
X-43144Y-37880D01*
X-43154Y-37863D01*
X-43233Y-37796D01*
X-43308Y-37724D01*
X-43326Y-37716D01*
X-43341Y-37703D01*
X-43437Y-37664D01*
X-43531Y-37621D01*
X-43551Y-37619D01*
X-43569Y-37611D01*
X-43736Y-37593D01*
X-44656Y-37593D01*
X-44676Y-37596D01*
X-44695Y-37594D01*
X-44797Y-37616D01*
X-44899Y-37632D01*
X-44916Y-37642D01*
X-44936Y-37646D01*
X-45025Y-37699D01*
X-45116Y-37748D01*
X-45130Y-37762D01*
X-45147Y-37772D01*
X-45214Y-37851D01*
X-45286Y-37926D01*
X-45294Y-37944D01*
X-45307Y-37959D01*
X-45346Y-38055D01*
X-45389Y-38149D01*
X-45391Y-38169D01*
X-45399Y-38187D01*
X-45417Y-38354D01*
X-45417Y-41657D01*
X-52188Y-41657D01*
X-52208Y-41660D01*
X-52227Y-41658D01*
X-52329Y-41680D01*
X-52431Y-41697D01*
X-52448Y-41706D01*
X-52468Y-41710D01*
X-52557Y-41763D01*
X-52648Y-41812D01*
X-52662Y-41826D01*
X-52679Y-41836D01*
X-52746Y-41915D01*
X-52817Y-41990D01*
X-52826Y-42008D01*
X-52839Y-42023D01*
X-52878Y-42119D01*
X-52921Y-42213D01*
X-52923Y-42233D01*
X-52931Y-42251D01*
X-52949Y-42418D01*
X-52949Y-43181D01*
X-52951Y-43181D01*
X-52951Y-42418D01*
X-52954Y-42398D01*
X-52952Y-42379D01*
X-52974Y-42277D01*
X-52991Y-42175D01*
X-53000Y-42158D01*
X-53004Y-42138D01*
X-53057Y-42049D01*
X-53106Y-41958D01*
X-53120Y-41944D01*
X-53130Y-41927D01*
X-53209Y-41860D01*
X-53284Y-41789D01*
X-53302Y-41780D01*
X-53317Y-41767D01*
X-53413Y-41728D01*
X-53507Y-41685D01*
X-53527Y-41683D01*
X-53545Y-41675D01*
X-53712Y-41657D01*
X-60483Y-41657D01*
X-60483Y-40321D01*
X-60494Y-40251D01*
X-60496Y-40179D01*
X-60514Y-40130D01*
X-60522Y-40079D01*
X-60556Y-40015D01*
X-60581Y-39948D01*
X-60613Y-39907D01*
X-60638Y-39861D01*
X-60689Y-39812D01*
X-60734Y-39756D01*
X-60778Y-39728D01*
X-60816Y-39692D01*
X-60881Y-39662D01*
X-60941Y-39623D01*
X-60992Y-39610D01*
X-61039Y-39588D01*
X-61110Y-39580D01*
X-61180Y-39563D01*
X-61232Y-39567D01*
X-61283Y-39561D01*
X-61354Y-39576D01*
X-61425Y-39582D01*
X-61473Y-39602D01*
X-61524Y-39613D01*
X-61585Y-39650D01*
X-61651Y-39678D01*
X-61707Y-39723D01*
X-61735Y-39739D01*
X-61750Y-39757D01*
X-61782Y-39783D01*
X-73562Y-51563D01*
X-152108Y-51563D01*
X-154266Y-49405D01*
X-158823Y-44848D01*
X-158897Y-44795D01*
X-158966Y-44735D01*
X-158997Y-44723D01*
X-159023Y-44704D01*
X-159110Y-44677D01*
X-159195Y-44643D01*
X-159236Y-44639D01*
X-159258Y-44632D01*
X-159290Y-44633D01*
X-159361Y-44625D01*
X-167032Y-44625D01*
X-167925Y-43732D01*
X-167925Y-42164D01*
X-167928Y-42144D01*
X-167926Y-42125D01*
X-167948Y-42023D01*
X-167964Y-41921D01*
X-167974Y-41904D01*
X-167978Y-41884D01*
X-168031Y-41795D01*
X-168080Y-41704D01*
X-168094Y-41690D01*
X-168104Y-41673D01*
X-168183Y-41606D01*
X-168258Y-41534D01*
X-168276Y-41526D01*
X-168291Y-41513D01*
X-168387Y-41474D01*
X-168481Y-41431D01*
X-168501Y-41429D01*
X-168519Y-41421D01*
X-168686Y-41403D01*
X-173054Y-41403D01*
X-173074Y-41406D01*
X-173093Y-41404D01*
X-173195Y-41426D01*
X-173297Y-41442D01*
X-173314Y-41452D01*
X-173334Y-41456D01*
X-173423Y-41509D01*
X-173514Y-41558D01*
X-173528Y-41572D01*
X-173545Y-41582D01*
X-173612Y-41661D01*
X-173684Y-41736D01*
X-173692Y-41754D01*
X-173705Y-41769D01*
X-173744Y-41865D01*
X-173787Y-41959D01*
X-173789Y-41979D01*
X-173797Y-41997D01*
X-173798Y-42012D01*
X-175411Y-43625D01*
X-185269Y-43625D01*
X-186865Y-42029D01*
X-186865Y-34171D01*
X-185269Y-32575D01*
X-178344Y-32575D01*
X-178273Y-32564D01*
X-178201Y-32562D01*
X-178152Y-32544D01*
X-178101Y-32536D01*
X-178038Y-32502D01*
X-177970Y-32477D01*
X-177930Y-32445D01*
X-177884Y-32420D01*
X-177834Y-32369D01*
X-177778Y-32324D01*
X-177750Y-32280D01*
X-177714Y-32242D01*
X-177684Y-32177D01*
X-177645Y-32117D01*
X-177633Y-32066D01*
X-177611Y-32019D01*
X-177603Y-31948D01*
X-177585Y-31878D01*
X-177589Y-31826D01*
X-177584Y-31775D01*
X-177599Y-31704D01*
X-177604Y-31633D01*
X-177625Y-31585D01*
X-177636Y-31534D01*
X-177673Y-31473D01*
X-177701Y-31407D01*
X-177746Y-31351D01*
X-177762Y-31323D01*
X-177777Y-31311D01*
X-177777Y-29363D01*
X-177779Y-29349D01*
X-177777Y-29334D01*
X-177802Y-29168D01*
X-177880Y-28875D01*
X-178080Y-28117D01*
X-178218Y-27595D01*
X-177258Y-25944D01*
X-176981Y-25467D01*
X-176126Y-23997D01*
X-176085Y-23889D01*
X-176041Y-23781D01*
X-176040Y-23772D01*
X-176038Y-23767D01*
X-176037Y-23747D01*
X-176023Y-23614D01*
X-176023Y4826D01*
X-176026Y4846D01*
X-176024Y4865D01*
X-176046Y4967D01*
X-176062Y5069D01*
X-176072Y5086D01*
X-176076Y5106D01*
X-176129Y5195D01*
X-176178Y5286D01*
X-176192Y5300D01*
X-176202Y5317D01*
X-176281Y5384D01*
X-176356Y5456D01*
X-176374Y5464D01*
X-176389Y5477D01*
X-176485Y5516D01*
X-176579Y5559D01*
X-176599Y5561D01*
X-176617Y5569D01*
X-176784Y5587D01*
X-176997Y5587D01*
X-177087Y5573D01*
X-177178Y5565D01*
X-177207Y5553D01*
X-177239Y5548D01*
X-177320Y5505D01*
X-177404Y5469D01*
X-177436Y5443D01*
X-177457Y5432D01*
X-177479Y5409D01*
X-177535Y5364D01*
X-181122Y1777D01*
X-186857Y1777D01*
X-187444Y1777D01*
X-187559Y1758D01*
X-187674Y1742D01*
X-187681Y1738D01*
X-187687Y1737D01*
X-187705Y1728D01*
X-187827Y1674D01*
X-189016Y983D01*
X-189634Y623D01*
X-191425Y-418D01*
X-192998Y-2D01*
X-193013Y-1D01*
X-193026Y5D01*
X-193193Y23D01*
X-195135Y23D01*
X-198097Y2985D01*
X-198097Y7175D01*
X-195135Y10137D01*
X-193193Y10137D01*
X-193178Y10139D01*
X-193164Y10137D01*
X-192998Y10162D01*
X-192625Y10261D01*
X-192123Y10394D01*
X-191425Y10578D01*
X-189774Y9618D01*
X-189297Y9341D01*
X-187827Y8486D01*
X-187719Y8445D01*
X-187611Y8401D01*
X-187602Y8400D01*
X-187597Y8398D01*
X-187577Y8397D01*
X-187444Y8383D01*
X-184173Y8383D01*
X-184083Y8397D01*
X-183992Y8405D01*
X-183963Y8417D01*
X-183931Y8422D01*
X-183850Y8465D01*
X-183766Y8501D01*
X-183734Y8527D01*
X-183713Y8538D01*
X-183691Y8561D01*
X-183635Y8606D01*
X-180048Y12193D01*
X-176784Y12193D01*
X-176764Y12196D01*
X-176745Y12194D01*
X-176643Y12216D01*
X-176541Y12232D01*
X-176524Y12242D01*
X-176504Y12246D01*
X-176415Y12299D01*
X-176324Y12348D01*
X-176310Y12362D01*
X-176293Y12372D01*
X-176226Y12451D01*
X-176154Y12526D01*
X-176146Y12544D01*
X-176133Y12559D01*
X-176094Y12655D01*
X-176051Y12749D01*
X-176049Y12769D01*
X-176041Y12787D01*
X-176023Y12954D01*
X-176023Y27648D01*
X-168148Y35523D01*
X-168095Y35597D01*
X-168035Y35666D01*
X-168023Y35697D01*
X-168004Y35723D01*
X-167977Y35810D01*
X-167943Y35895D01*
X-167939Y35936D01*
X-167932Y35958D01*
X-167933Y35990D01*
X-167925Y36061D01*
X-167925Y43732D01*
X-167032Y44625D01*
X-154768Y44625D01*
X-153875Y43732D01*
X-153875Y36061D01*
X-153861Y35971D01*
X-153853Y35880D01*
X-153841Y35850D01*
X-153836Y35819D01*
X-153793Y35738D01*
X-153757Y35654D01*
X-153731Y35622D01*
X-153720Y35601D01*
X-153697Y35579D01*
X-153652Y35523D01*
X-152732Y34603D01*
X-152674Y34561D01*
X-152622Y34512D01*
X-152575Y34490D01*
X-152533Y34459D01*
X-152464Y34438D01*
X-152399Y34408D01*
X-152347Y34402D01*
X-152297Y34387D01*
X-152226Y34389D01*
X-152155Y34381D01*
X-152104Y34392D01*
X-152052Y34393D01*
X-151984Y34418D01*
X-151914Y34433D01*
X-151869Y34460D01*
X-151821Y34478D01*
X-151765Y34523D01*
X-151703Y34560D01*
X-151669Y34599D01*
X-151629Y34632D01*
X-151590Y34692D01*
X-151543Y34746D01*
X-151524Y34795D01*
X-151496Y34839D01*
X-151478Y34908D01*
X-151451Y34975D01*
X-151443Y35046D01*
X-151435Y35077D01*
X-151437Y35100D01*
X-151433Y35141D01*
X-151433Y36577D01*
X-145423Y36577D01*
X-145423Y31067D01*
X-148336Y31067D01*
X-148356Y31064D01*
X-148375Y31066D01*
X-148477Y31044D01*
X-148579Y31028D01*
X-148596Y31018D01*
X-148616Y31014D01*
X-148705Y30961D01*
X-148796Y30912D01*
X-148810Y30898D01*
X-148827Y30888D01*
X-148894Y30809D01*
X-148966Y30734D01*
X-148974Y30716D01*
X-148987Y30701D01*
X-149026Y30605D01*
X-149069Y30511D01*
X-149071Y30491D01*
X-149079Y30473D01*
X-149097Y30306D01*
X-149097Y24685D01*
X-149094Y24665D01*
X-149096Y24646D01*
X-149074Y24544D01*
X-149058Y24442D01*
X-149048Y24425D01*
X-149044Y24405D01*
X-148991Y24316D01*
X-148942Y24225D01*
X-148928Y24211D01*
X-148918Y24194D01*
X-148839Y24127D01*
X-148764Y24055D01*
X-148746Y24047D01*
X-148731Y24034D01*
X-148635Y23995D01*
X-148541Y23952D01*
X-148521Y23950D01*
X-148503Y23942D01*
X-148336Y23924D01*
X-147936Y23924D01*
X-147916Y23927D01*
X-147897Y23925D01*
X-147795Y23947D01*
X-147693Y23963D01*
X-147676Y23973D01*
X-147656Y23977D01*
X-147567Y24030D01*
X-147476Y24079D01*
X-147462Y24093D01*
X-147445Y24103D01*
X-147378Y24182D01*
X-147306Y24257D01*
X-147298Y24275D01*
X-147285Y24290D01*
X-147246Y24386D01*
X-147203Y24480D01*
X-147201Y24500D01*
X-147193Y24518D01*
X-147175Y24685D01*
X-147175Y26189D01*
X-145218Y28146D01*
X-140582Y28146D01*
X-138625Y26189D01*
X-138625Y24685D01*
X-138622Y24665D01*
X-138624Y24646D01*
X-138602Y24544D01*
X-138586Y24442D01*
X-138576Y24425D01*
X-138572Y24405D01*
X-138519Y24316D01*
X-138470Y24225D01*
X-138456Y24211D01*
X-138446Y24194D01*
X-138367Y24127D01*
X-138292Y24055D01*
X-138274Y24047D01*
X-138259Y24034D01*
X-138163Y23995D01*
X-138069Y23952D01*
X-138049Y23950D01*
X-138031Y23942D01*
X-137864Y23924D01*
X-136963Y23924D01*
X-136873Y23938D01*
X-136782Y23946D01*
X-136753Y23958D01*
X-136721Y23963D01*
X-136640Y24006D01*
X-136556Y24042D01*
X-136524Y24068D01*
X-136503Y24079D01*
X-136481Y24102D01*
X-136425Y24147D01*
X-119169Y41403D01*
X-84336Y41403D01*
X-84221Y41421D01*
X-84106Y41438D01*
X-84099Y41442D01*
X-84093Y41442D01*
X-84075Y41452D01*
X-83953Y41506D01*
X-83317Y41876D01*
X-81860Y42723D01*
X-80355Y43598D01*
X-78782Y43182D01*
X-78768Y43181D01*
X-78754Y43175D01*
X-78587Y43157D01*
X-76645Y43157D01*
X-73683Y40195D01*
X-73683Y36005D01*
X-76645Y33043D01*
X-78587Y33043D01*
X-78602Y33041D01*
X-78616Y33043D01*
X-78782Y33018D01*
X-80355Y32602D01*
X-81220Y33105D01*
X-83953Y34694D01*
X-84061Y34735D01*
X-84169Y34779D01*
X-84178Y34780D01*
X-84183Y34782D01*
X-84203Y34783D01*
X-84336Y34797D01*
X-84923Y34797D01*
X-116118Y34797D01*
X-116208Y34783D01*
X-116299Y34775D01*
X-116328Y34763D01*
X-116360Y34758D01*
X-116441Y34715D01*
X-116525Y34679D01*
X-116557Y34653D01*
X-116578Y34642D01*
X-116600Y34619D01*
X-116656Y34574D01*
X-131754Y19476D01*
X-133912Y17318D01*
X-137810Y17318D01*
X-137880Y17307D01*
X-137952Y17305D01*
X-138001Y17287D01*
X-138052Y17279D01*
X-138116Y17245D01*
X-138183Y17220D01*
X-138224Y17188D01*
X-138270Y17163D01*
X-138319Y17112D01*
X-138375Y17067D01*
X-138403Y17023D01*
X-138439Y16985D01*
X-138469Y16920D01*
X-138508Y16860D01*
X-138521Y16809D01*
X-138543Y16762D01*
X-138551Y16691D01*
X-138568Y16621D01*
X-138564Y16569D01*
X-138570Y16518D01*
X-138555Y16447D01*
X-138549Y16376D01*
X-138529Y16328D01*
X-138518Y16277D01*
X-138481Y16216D01*
X-138453Y16150D01*
X-138408Y16094D01*
X-138391Y16066D01*
X-138374Y16051D01*
X-138348Y16019D01*
X-129794Y7465D01*
X-129767Y7445D01*
X-129745Y7420D01*
X-129667Y7374D01*
X-129594Y7321D01*
X-129562Y7312D01*
X-129533Y7294D01*
X-129371Y7251D01*
X-129336Y7245D01*
X-128850Y6584D01*
X-128837Y6572D01*
X-128828Y6556D01*
X-128709Y6438D01*
X-127408Y5409D01*
X-126187Y4443D01*
X-125015Y3516D01*
X-124928Y2771D01*
X-124915Y2726D01*
X-124911Y2679D01*
X-124881Y2608D01*
X-124860Y2535D01*
X-124833Y2496D01*
X-124815Y2452D01*
X-124733Y2350D01*
X-124721Y2332D01*
X-124716Y2328D01*
X-124710Y2321D01*
X-124483Y2095D01*
X-124483Y-2095D01*
X-127445Y-5057D01*
X-131635Y-5057D01*
X-134597Y-2095D01*
X-134597Y-1646D01*
X-134602Y-1613D01*
X-134600Y-1579D01*
X-134622Y-1492D01*
X-134636Y-1403D01*
X-134652Y-1374D01*
X-134661Y-1341D01*
X-134744Y-1196D01*
X-135248Y-511D01*
X-134786Y2506D01*
X-134763Y2654D01*
X-134764Y2679D01*
X-134757Y2704D01*
X-134765Y2802D01*
X-134766Y2899D01*
X-134775Y2924D01*
X-134777Y2950D01*
X-134815Y3039D01*
X-134847Y3132D01*
X-134863Y3152D01*
X-134873Y3176D01*
X-134978Y3307D01*
X-144544Y12873D01*
X-144618Y12926D01*
X-144687Y12986D01*
X-144718Y12998D01*
X-144744Y13017D01*
X-144831Y13044D01*
X-144916Y13078D01*
X-144957Y13082D01*
X-144979Y13089D01*
X-145011Y13088D01*
X-145082Y13096D01*
X-145218Y13096D01*
X-147175Y15053D01*
X-147175Y16557D01*
X-147178Y16577D01*
X-147176Y16596D01*
X-147198Y16698D01*
X-147214Y16800D01*
X-147224Y16817D01*
X-147228Y16837D01*
X-147281Y16926D01*
X-147330Y17017D01*
X-147344Y17031D01*
X-147354Y17048D01*
X-147433Y17115D01*
X-147508Y17187D01*
X-147526Y17195D01*
X-147541Y17208D01*
X-147637Y17247D01*
X-147731Y17290D01*
X-147751Y17292D01*
X-147769Y17300D01*
X-147936Y17318D01*
X-151529Y17318D01*
X-155703Y21492D01*
X-155703Y27917D01*
X-155717Y28007D01*
X-155725Y28098D01*
X-155737Y28127D01*
X-155742Y28159D01*
X-155785Y28240D01*
X-155821Y28324D01*
X-155847Y28356D01*
X-155858Y28377D01*
X-155881Y28399D01*
X-155926Y28455D01*
X-158454Y30983D01*
X-158823Y31352D01*
X-158897Y31405D01*
X-158967Y31465D01*
X-158997Y31477D01*
X-159023Y31496D01*
X-159110Y31523D01*
X-159195Y31557D01*
X-159236Y31561D01*
X-159258Y31568D01*
X-159290Y31567D01*
X-159361Y31575D01*
X-162439Y31575D01*
X-162529Y31561D01*
X-162620Y31553D01*
X-162649Y31541D01*
X-162681Y31536D01*
X-162762Y31493D01*
X-162846Y31457D01*
X-162878Y31431D01*
X-162899Y31420D01*
X-162921Y31397D01*
X-162977Y31352D01*
X-164884Y29445D01*
X-164926Y29387D01*
X-164975Y29335D01*
X-164997Y29288D01*
X-165028Y29246D01*
X-165049Y29177D01*
X-165079Y29112D01*
X-165085Y29060D01*
X-165100Y29010D01*
X-165098Y28939D01*
X-165106Y28868D01*
X-165095Y28817D01*
X-165094Y28765D01*
X-165069Y28697D01*
X-165054Y28627D01*
X-165027Y28582D01*
X-165009Y28534D01*
X-164964Y28478D01*
X-164927Y28416D01*
X-164888Y28382D01*
X-164855Y28342D01*
X-164795Y28303D01*
X-164741Y28256D01*
X-164692Y28237D01*
X-164648Y28209D01*
X-164579Y28191D01*
X-164512Y28164D01*
X-164441Y28156D01*
X-164410Y28148D01*
X-164387Y28150D01*
X-164346Y28146D01*
X-159582Y28146D01*
X-157625Y26189D01*
X-157625Y15053D01*
X-158865Y13813D01*
X-158877Y13797D01*
X-158892Y13784D01*
X-158948Y13697D01*
X-159009Y13613D01*
X-159014Y13594D01*
X-159025Y13577D01*
X-159050Y13477D01*
X-159081Y13378D01*
X-159080Y13358D01*
X-159085Y13339D01*
X-159077Y13236D01*
X-159075Y13132D01*
X-159068Y13113D01*
X-159066Y13094D01*
X-159026Y12999D01*
X-158990Y12901D01*
X-158978Y12886D01*
X-158970Y12867D01*
X-158865Y12736D01*
X-157113Y10985D01*
X-157113Y9144D01*
X-157110Y9124D01*
X-157112Y9105D01*
X-157090Y9003D01*
X-157074Y8901D01*
X-157064Y8884D01*
X-157060Y8864D01*
X-157007Y8775D01*
X-156958Y8684D01*
X-156944Y8670D01*
X-156934Y8653D01*
X-156855Y8586D01*
X-156780Y8514D01*
X-156762Y8506D01*
X-156747Y8493D01*
X-156651Y8454D01*
X-156557Y8411D01*
X-156537Y8409D01*
X-156519Y8401D01*
X-156352Y8383D01*
X-148492Y8383D01*
X-142476Y2367D01*
X-142402Y2314D01*
X-142333Y2254D01*
X-142302Y2242D01*
X-142276Y2223D01*
X-142189Y2196D01*
X-142104Y2162D01*
X-142063Y2158D01*
X-142041Y2151D01*
X-142009Y2152D01*
X-141938Y2144D01*
X-140582Y2144D01*
X-138625Y187D01*
X-138625Y-10949D01*
X-140582Y-12906D01*
X-145218Y-12906D01*
X-146883Y-11241D01*
X-146979Y-11172D01*
X-147075Y-11101D01*
X-147079Y-11100D01*
X-147082Y-11098D01*
X-147195Y-11063D01*
X-147309Y-11027D01*
X-147314Y-11027D01*
X-147318Y-11025D01*
X-147436Y-11028D01*
X-147555Y-11030D01*
X-147559Y-11032D01*
X-147563Y-11032D01*
X-147675Y-11073D01*
X-147787Y-11112D01*
X-147791Y-11115D01*
X-147794Y-11116D01*
X-147888Y-11191D01*
X-147981Y-11264D01*
X-147984Y-11268D01*
X-147987Y-11270D01*
X-147994Y-11282D01*
X-148080Y-11399D01*
X-148386Y-11929D01*
X-149102Y-12645D01*
X-149980Y-13152D01*
X-150958Y-13414D01*
X-151026Y-13414D01*
X-151026Y-5994D01*
X-151029Y-5975D01*
X-151027Y-5955D01*
X-151049Y-5853D01*
X-151065Y-5751D01*
X-151075Y-5734D01*
X-151079Y-5714D01*
X-151132Y-5625D01*
X-151181Y-5534D01*
X-151195Y-5520D01*
X-151205Y-5503D01*
X-151284Y-5436D01*
X-151359Y-5365D01*
X-151377Y-5356D01*
X-151392Y-5343D01*
X-151488Y-5305D01*
X-151582Y-5261D01*
X-151602Y-5259D01*
X-151620Y-5251D01*
X-151787Y-5233D01*
X-153013Y-5233D01*
X-153033Y-5236D01*
X-153052Y-5234D01*
X-153154Y-5256D01*
X-153256Y-5273D01*
X-153273Y-5282D01*
X-153293Y-5286D01*
X-153382Y-5339D01*
X-153473Y-5388D01*
X-153487Y-5402D01*
X-153504Y-5412D01*
X-153571Y-5491D01*
X-153643Y-5566D01*
X-153651Y-5584D01*
X-153664Y-5599D01*
X-153703Y-5696D01*
X-153746Y-5789D01*
X-153748Y-5809D01*
X-153756Y-5827D01*
X-153774Y-5994D01*
X-153774Y-13414D01*
X-153842Y-13414D01*
X-154820Y-13152D01*
X-155697Y-12645D01*
X-156298Y-12045D01*
X-156356Y-12003D01*
X-156408Y-11954D01*
X-156455Y-11932D01*
X-156497Y-11901D01*
X-156566Y-11880D01*
X-156631Y-11850D01*
X-156683Y-11844D01*
X-156733Y-11829D01*
X-156804Y-11831D01*
X-156875Y-11823D01*
X-156926Y-11834D01*
X-156978Y-11835D01*
X-157046Y-11860D01*
X-157116Y-11875D01*
X-157161Y-11902D01*
X-157209Y-11920D01*
X-157265Y-11965D01*
X-157327Y-12001D01*
X-157361Y-12041D01*
X-157401Y-12073D01*
X-157440Y-12134D01*
X-157487Y-12188D01*
X-157506Y-12237D01*
X-157534Y-12280D01*
X-157552Y-12350D01*
X-157579Y-12416D01*
X-157587Y-12488D01*
X-157595Y-12519D01*
X-157593Y-12542D01*
X-157597Y-12583D01*
X-157597Y-15574D01*
X-157595Y-15589D01*
X-157596Y-15602D01*
X-157595Y-15606D01*
X-157596Y-15613D01*
X-157574Y-15715D01*
X-157558Y-15817D01*
X-157548Y-15834D01*
X-157544Y-15854D01*
X-157491Y-15943D01*
X-157442Y-16034D01*
X-157428Y-16048D01*
X-157418Y-16065D01*
X-157339Y-16132D01*
X-157264Y-16204D01*
X-157246Y-16212D01*
X-157231Y-16225D01*
X-157135Y-16264D01*
X-157041Y-16307D01*
X-157021Y-16309D01*
X-157003Y-16317D01*
X-156836Y-16335D01*
X-154768Y-16335D01*
X-153875Y-17228D01*
X-153875Y-28492D01*
X-154768Y-29385D01*
X-156836Y-29385D01*
X-156856Y-29388D01*
X-156875Y-29386D01*
X-156977Y-29408D01*
X-157079Y-29424D01*
X-157096Y-29434D01*
X-157116Y-29438D01*
X-157205Y-29491D01*
X-157296Y-29540D01*
X-157310Y-29554D01*
X-157327Y-29564D01*
X-157394Y-29643D01*
X-157466Y-29718D01*
X-157474Y-29736D01*
X-157487Y-29751D01*
X-157526Y-29847D01*
X-157569Y-29941D01*
X-157571Y-29961D01*
X-157579Y-29979D01*
X-157597Y-30146D01*
X-157597Y-30814D01*
X-157596Y-30823D01*
X-157596Y-30827D01*
X-157594Y-30836D01*
X-157596Y-30853D01*
X-157574Y-30955D01*
X-157558Y-31057D01*
X-157548Y-31074D01*
X-157544Y-31094D01*
X-157491Y-31183D01*
X-157442Y-31274D01*
X-157428Y-31288D01*
X-157418Y-31305D01*
X-157339Y-31372D01*
X-157264Y-31444D01*
X-157246Y-31452D01*
X-157231Y-31465D01*
X-157135Y-31504D01*
X-157041Y-31547D01*
X-157021Y-31549D01*
X-157003Y-31557D01*
X-156836Y-31575D01*
X-154768Y-31575D01*
X-153875Y-32468D01*
X-153875Y-40139D01*
X-153861Y-40229D01*
X-153853Y-40320D01*
X-153841Y-40349D01*
X-153836Y-40381D01*
X-153793Y-40462D01*
X-153757Y-40546D01*
X-153731Y-40578D01*
X-153720Y-40599D01*
X-153697Y-40621D01*
X-153652Y-40677D01*
X-152732Y-41597D01*
X-152674Y-41639D01*
X-152622Y-41688D01*
X-152575Y-41710D01*
X-152533Y-41741D01*
X-152464Y-41762D01*
X-152399Y-41792D01*
X-152347Y-41798D01*
X-152297Y-41813D01*
X-152226Y-41811D01*
X-152155Y-41819D01*
X-152104Y-41808D01*
X-152052Y-41807D01*
X-151984Y-41782D01*
X-151914Y-41767D01*
X-151870Y-41740D01*
X-151821Y-41722D01*
X-151765Y-41677D01*
X-151703Y-41640D01*
X-151669Y-41601D01*
X-151629Y-41568D01*
X-151590Y-41508D01*
X-151543Y-41454D01*
X-151524Y-41405D01*
X-151496Y-41361D01*
X-151478Y-41292D01*
X-151451Y-41225D01*
X-151443Y-41154D01*
X-151435Y-41123D01*
X-151437Y-41100D01*
X-151433Y-41059D01*
X-151433Y-39623D01*
X-144662Y-39623D01*
X-144642Y-39620D01*
X-144623Y-39622D01*
X-144521Y-39600D01*
X-144419Y-39583D01*
X-144402Y-39574D01*
X-144382Y-39570D01*
X-144293Y-39517D01*
X-144202Y-39468D01*
X-144188Y-39454D01*
X-144171Y-39444D01*
X-144104Y-39365D01*
X-144033Y-39290D01*
X-144024Y-39272D01*
X-144011Y-39257D01*
X-143972Y-39161D01*
X-143929Y-39067D01*
X-143927Y-39047D01*
X-143919Y-39029D01*
X-143901Y-38862D01*
X-143901Y-38099D01*
X-143899Y-38099D01*
X-143899Y-38862D01*
X-143896Y-38882D01*
X-143898Y-38901D01*
X-143876Y-39003D01*
X-143859Y-39105D01*
X-143850Y-39122D01*
X-143846Y-39142D01*
X-143793Y-39231D01*
X-143744Y-39322D01*
X-143730Y-39336D01*
X-143720Y-39353D01*
X-143641Y-39420D01*
X-143566Y-39491D01*
X-143548Y-39500D01*
X-143533Y-39513D01*
X-143437Y-39552D01*
X-143343Y-39595D01*
X-143323Y-39597D01*
X-143305Y-39605D01*
X-143138Y-39623D01*
X-136367Y-39623D01*
X-136367Y-43368D01*
X-136527Y-43964D01*
X-136540Y-43991D01*
X-136543Y-44019D01*
X-136553Y-44045D01*
X-136556Y-44141D01*
X-136567Y-44235D01*
X-136561Y-44263D01*
X-136562Y-44291D01*
X-136535Y-44382D01*
X-136515Y-44476D01*
X-136500Y-44500D01*
X-136492Y-44527D01*
X-136437Y-44605D01*
X-136388Y-44687D01*
X-136367Y-44705D01*
X-136351Y-44728D01*
X-136274Y-44785D01*
X-136201Y-44847D01*
X-136175Y-44857D01*
X-136153Y-44874D01*
X-136062Y-44903D01*
X-135973Y-44939D01*
X-135938Y-44943D01*
X-135919Y-44949D01*
X-135886Y-44948D01*
X-135807Y-44957D01*
X-76613Y-44957D01*
X-76523Y-44943D01*
X-76432Y-44935D01*
X-76403Y-44923D01*
X-76371Y-44918D01*
X-76290Y-44875D01*
X-76206Y-44839D01*
X-76174Y-44813D01*
X-76153Y-44802D01*
X-76131Y-44779D01*
X-76075Y-44734D01*
X-62328Y-30987D01*
X-26572Y-30987D01*
X-24414Y-33145D01*
X-15365Y-42194D01*
X-15291Y-42247D01*
X-15222Y-42307D01*
X-15191Y-42319D01*
X-15165Y-42338D01*
X-15078Y-42365D01*
X-14993Y-42399D01*
X-14952Y-42403D01*
X-14930Y-42410D01*
X-14898Y-42409D01*
X-14827Y-42417D01*
X-3402Y-42417D01*
X-3331Y-42406D01*
X-3259Y-42404D01*
X-3210Y-42386D01*
X-3159Y-42378D01*
X-3096Y-42344D01*
X-3028Y-42319D01*
X-2988Y-42287D01*
X-2942Y-42262D01*
X-2892Y-42210D01*
X-2836Y-42166D01*
X-2808Y-42122D01*
X-2772Y-42084D01*
X-2742Y-42019D01*
X-2703Y-41959D01*
X-2691Y-41908D01*
X-2669Y-41861D01*
X-2661Y-41790D01*
X-2643Y-41720D01*
X-2647Y-41668D01*
X-2642Y-41617D01*
X-2657Y-41546D01*
X-2662Y-41475D01*
X-2683Y-41427D01*
X-2694Y-41376D01*
X-2731Y-41315D01*
X-2759Y-41249D01*
X-2804Y-41193D01*
X-2820Y-41165D01*
X-2838Y-41150D01*
X-2864Y-41118D01*
X-5057Y-38925D01*
X-5057Y-36983D01*
X-5059Y-36968D01*
X-5057Y-36954D01*
X-5082Y-36788D01*
X-5197Y-36354D01*
X-5286Y-36017D01*
X-5498Y-35215D01*
X-4490Y-33481D01*
X-3406Y-31617D01*
X-3365Y-31509D01*
X-3321Y-31401D01*
X-3320Y-31392D01*
X-3318Y-31387D01*
X-3317Y-31367D01*
X-3303Y-31234D01*
X-3303Y-18193D01*
X-3317Y-18104D01*
X-3325Y-18012D01*
X-3337Y-17983D01*
X-3342Y-17951D01*
X-3385Y-17870D01*
X-3421Y-17786D01*
X-3447Y-17754D01*
X-3458Y-17733D01*
X-3481Y-17711D01*
X-3526Y-17655D01*
X-12575Y-8606D01*
X-12649Y-8553D01*
X-12718Y-8493D01*
X-12749Y-8481D01*
X-12775Y-8462D01*
X-12862Y-8435D01*
X-12947Y-8401D01*
X-12988Y-8397D01*
X-13010Y-8390D01*
X-13042Y-8391D01*
X-13113Y-8383D01*
X-22958Y-8383D01*
X-28246Y-3095D01*
X-28300Y-3056D01*
X-28347Y-3010D01*
X-28399Y-2985D01*
X-28446Y-2951D01*
X-28509Y-2932D01*
X-28569Y-2903D01*
X-28626Y-2896D01*
X-28681Y-2879D01*
X-28747Y-2881D01*
X-28813Y-2872D01*
X-28894Y-2884D01*
X-28927Y-2885D01*
X-28946Y-2892D01*
X-28979Y-2897D01*
X-29046Y-2915D01*
X-29281Y-2778D01*
X-29389Y-2737D01*
X-29497Y-2693D01*
X-29506Y-2692D01*
X-29511Y-2690D01*
X-29531Y-2689D01*
X-29664Y-2675D01*
X-29936Y-2675D01*
X-30129Y-2482D01*
X-30222Y-2415D01*
X-30316Y-2345D01*
X-30324Y-2342D01*
X-30328Y-2339D01*
X-30348Y-2333D01*
X-30472Y-2284D01*
X-31040Y-2134D01*
X-33489Y-1486D01*
X-33550Y-1470D01*
X-33564Y-1469D01*
X-33578Y-1463D01*
X-33744Y-1445D01*
X-37492Y-1445D01*
X-38385Y-552D01*
X-38385Y10712D01*
X-37492Y11605D01*
X-25228Y11605D01*
X-24335Y10712D01*
X-24335Y5397D01*
X-24333Y5386D01*
X-24335Y5374D01*
X-24314Y5265D01*
X-24296Y5154D01*
X-24290Y5144D01*
X-24288Y5133D01*
X-24233Y5035D01*
X-24180Y4937D01*
X-24176Y4932D01*
X-24078Y4085D01*
X-24073Y4067D01*
X-24073Y4049D01*
X-24028Y3888D01*
X-23719Y3119D01*
X-23722Y3109D01*
X-23741Y3069D01*
X-23751Y2990D01*
X-23770Y2913D01*
X-23766Y2869D01*
X-23772Y2825D01*
X-23751Y2684D01*
X-23749Y2668D01*
X-23748Y2665D01*
X-23747Y2659D01*
X-23471Y1618D01*
X-23424Y1512D01*
X-23379Y1405D01*
X-23373Y1399D01*
X-23371Y1394D01*
X-23357Y1378D01*
X-23274Y1274D01*
X-23192Y1193D01*
X-23134Y1151D01*
X-23082Y1102D01*
X-23035Y1080D01*
X-22993Y1049D01*
X-22924Y1028D01*
X-22859Y998D01*
X-22807Y992D01*
X-22757Y977D01*
X-22686Y979D01*
X-22615Y971D01*
X-22564Y982D01*
X-22512Y983D01*
X-22444Y1008D01*
X-22374Y1023D01*
X-22330Y1050D01*
X-22281Y1068D01*
X-22225Y1113D01*
X-22163Y1150D01*
X-22129Y1189D01*
X-22089Y1222D01*
X-22050Y1282D01*
X-22003Y1336D01*
X-21984Y1385D01*
X-21956Y1429D01*
X-21938Y1498D01*
X-21911Y1565D01*
X-21903Y1636D01*
X-21895Y1667D01*
X-21897Y1690D01*
X-21893Y1731D01*
X-21893Y3557D01*
X-15122Y3557D01*
X-15102Y3560D01*
X-15083Y3558D01*
X-14981Y3580D01*
X-14879Y3597D01*
X-14862Y3606D01*
X-14842Y3610D01*
X-14753Y3663D01*
X-14662Y3712D01*
X-14648Y3726D01*
X-14631Y3736D01*
X-14564Y3815D01*
X-14493Y3890D01*
X-14484Y3908D01*
X-14471Y3923D01*
X-14432Y4019D01*
X-14389Y4113D01*
X-14387Y4133D01*
X-14379Y4151D01*
X-14361Y4318D01*
X-14361Y5081D01*
X-14359Y5081D01*
X-14359Y4318D01*
X-14356Y4298D01*
X-14358Y4279D01*
X-14336Y4177D01*
X-14319Y4075D01*
X-14310Y4058D01*
X-14306Y4038D01*
X-14253Y3949D01*
X-14204Y3858D01*
X-14190Y3844D01*
X-14180Y3827D01*
X-14101Y3760D01*
X-14026Y3689D01*
X-14008Y3680D01*
X-13993Y3667D01*
X-13897Y3628D01*
X-13803Y3585D01*
X-13783Y3583D01*
X-13765Y3575D01*
X-13598Y3557D01*
X-6827Y3557D01*
X-6827Y-188D01*
X-6966Y-705D01*
X-7233Y-1168D01*
X-7612Y-1547D01*
X-8075Y-1814D01*
X-8339Y-1885D01*
X-8367Y-1898D01*
X-8384Y-1900D01*
X-8434Y-1927D01*
X-8516Y-1957D01*
X-8538Y-1975D01*
X-8564Y-1986D01*
X-8587Y-2008D01*
X-8601Y-2015D01*
X-8640Y-2056D01*
X-8708Y-2111D01*
X-8723Y-2134D01*
X-8744Y-2154D01*
X-8759Y-2182D01*
X-8770Y-2194D01*
X-8794Y-2245D01*
X-8841Y-2318D01*
X-8848Y-2345D01*
X-8861Y-2370D01*
X-8867Y-2401D01*
X-8874Y-2417D01*
X-8880Y-2475D01*
X-8901Y-2556D01*
X-8899Y-2584D01*
X-8904Y-2612D01*
X-8899Y-2642D01*
X-8901Y-2661D01*
X-8888Y-2721D01*
X-8882Y-2801D01*
X-8871Y-2827D01*
X-8867Y-2855D01*
X-8853Y-2881D01*
X-8849Y-2902D01*
X-8815Y-2958D01*
X-8786Y-3028D01*
X-8763Y-3055D01*
X-8754Y-3074D01*
X-8735Y-3092D01*
X-8723Y-3113D01*
X-8706Y-3127D01*
X-8681Y-3159D01*
X3303Y-15142D01*
X3303Y-24662D01*
X3306Y-24682D01*
X3304Y-24701D01*
X3326Y-24803D01*
X3342Y-24905D01*
X3352Y-24922D01*
X3356Y-24942D01*
X3409Y-25031D01*
X3458Y-25122D01*
X3472Y-25136D01*
X3482Y-25153D01*
X3561Y-25220D01*
X3636Y-25292D01*
X3654Y-25300D01*
X3669Y-25313D01*
X3765Y-25352D01*
X3859Y-25395D01*
X3879Y-25397D01*
X3897Y-25405D01*
X4064Y-25423D01*
X8445Y-25423D01*
X11432Y-28410D01*
X11456Y-28428D01*
X11501Y-28472D01*
X11739Y-28657D01*
X11740Y-28674D01*
X11771Y-28747D01*
X11793Y-28823D01*
X11819Y-28859D01*
X11836Y-28900D01*
X11894Y-28973D01*
X11894Y-29924D01*
X11899Y-29954D01*
X11900Y-30017D01*
X12156Y-32106D01*
X12169Y-32149D01*
X12173Y-32194D01*
X12203Y-32267D01*
X12226Y-32342D01*
X12251Y-32379D01*
X12269Y-32420D01*
X12357Y-32530D01*
X12366Y-32544D01*
X12370Y-32546D01*
X12374Y-32551D01*
X23795Y-43972D01*
X23869Y-44025D01*
X23938Y-44085D01*
X23968Y-44097D01*
X23994Y-44116D01*
X24081Y-44143D01*
X24166Y-44177D01*
X24207Y-44181D01*
X24229Y-44188D01*
X24262Y-44187D01*
X24333Y-44195D01*
X71587Y-44195D01*
X71657Y-44184D01*
X71729Y-44182D01*
X71778Y-44164D01*
X71829Y-44156D01*
X71893Y-44122D01*
X71960Y-44097D01*
X72001Y-44065D01*
X72047Y-44040D01*
X72096Y-43988D01*
X72152Y-43944D01*
X72180Y-43900D01*
X72216Y-43862D01*
X72246Y-43797D01*
X72285Y-43737D01*
X72298Y-43686D01*
X72320Y-43639D01*
X72328Y-43568D01*
X72345Y-43498D01*
X72341Y-43446D01*
X72347Y-43395D01*
X72332Y-43324D01*
X72326Y-43253D01*
X72306Y-43205D01*
X72295Y-43154D01*
X72258Y-43093D01*
X72230Y-43027D01*
X72185Y-42971D01*
X72168Y-42943D01*
X72151Y-42928D01*
X72125Y-42896D01*
X61526Y-32297D01*
X61377Y-32148D01*
X61303Y-32095D01*
X61234Y-32035D01*
X61203Y-32023D01*
X61177Y-32004D01*
X61090Y-31977D01*
X61005Y-31943D01*
X60965Y-31939D01*
X60942Y-31932D01*
X60910Y-31933D01*
X60839Y-31925D01*
X53168Y-31925D01*
X52275Y-31032D01*
X52275Y-19768D01*
X53168Y-18875D01*
X65432Y-18875D01*
X66325Y-19768D01*
X66325Y-27439D01*
X66339Y-27529D01*
X66347Y-27620D01*
X66359Y-27649D01*
X66364Y-27681D01*
X66407Y-27762D01*
X66443Y-27846D01*
X66469Y-27878D01*
X66480Y-27899D01*
X66503Y-27921D01*
X66548Y-27977D01*
X77891Y-39321D01*
X77965Y-39374D01*
X78035Y-39433D01*
X78065Y-39445D01*
X78091Y-39464D01*
X78178Y-39491D01*
X78263Y-39525D01*
X78304Y-39530D01*
X78326Y-39537D01*
X78358Y-39536D01*
X78430Y-39544D01*
X142160Y-39544D01*
X142250Y-39529D01*
X142341Y-39522D01*
X142371Y-39509D01*
X142403Y-39504D01*
X142484Y-39461D01*
X142568Y-39425D01*
X142600Y-39400D01*
X142620Y-39389D01*
X142643Y-39365D01*
X142699Y-39321D01*
X149918Y-32101D01*
X149985Y-32008D01*
X149990Y-32001D01*
X150013Y-31977D01*
X150021Y-31960D01*
X150055Y-31914D01*
X150058Y-31906D01*
X150061Y-31902D01*
X150067Y-31883D01*
X150115Y-31758D01*
X150400Y-30684D01*
X150745Y-29380D01*
X150756Y-29268D01*
X150770Y-29156D01*
X150768Y-29143D01*
X150768Y-29135D01*
X150763Y-29110D01*
X150745Y-28990D01*
X150712Y-28865D01*
X150971Y-28420D01*
X150977Y-28403D01*
X150988Y-28388D01*
X151049Y-28232D01*
X151180Y-27734D01*
X151292Y-27669D01*
X151379Y-27597D01*
X151468Y-27528D01*
X151476Y-27518D01*
X151482Y-27512D01*
X151496Y-27491D01*
X151554Y-27412D01*
X151556Y-27410D01*
X151557Y-27408D01*
X151568Y-27393D01*
X151753Y-27074D01*
X152804Y-25267D01*
X152845Y-25159D01*
X152889Y-25051D01*
X152890Y-25042D01*
X152892Y-25037D01*
X152893Y-25017D01*
X152907Y-24884D01*
X152907Y-24297D01*
X152907Y-24032D01*
X156494Y-20445D01*
X156547Y-20371D01*
X156607Y-20302D01*
X156619Y-20271D01*
X156638Y-20245D01*
X156665Y-20158D01*
X156699Y-20073D01*
X156703Y-20032D01*
X156710Y-20010D01*
X156709Y-19978D01*
X156717Y-19907D01*
X156717Y-7912D01*
X158875Y-5754D01*
X162052Y-2577D01*
X162105Y-2503D01*
X162165Y-2434D01*
X162177Y-2403D01*
X162196Y-2377D01*
X162223Y-2290D01*
X162257Y-2205D01*
X162261Y-2164D01*
X162268Y-2142D01*
X162267Y-2110D01*
X162275Y-2039D01*
X162275Y5632D01*
X163168Y6525D01*
X164581Y6525D01*
X164652Y6536D01*
X164724Y6538D01*
X164773Y6556D01*
X164824Y6564D01*
X164887Y6598D01*
X164955Y6623D01*
X164995Y6655D01*
X165041Y6680D01*
X165091Y6732D01*
X165147Y6776D01*
X165175Y6820D01*
X165211Y6858D01*
X165241Y6923D01*
X165280Y6983D01*
X165292Y7034D01*
X165314Y7081D01*
X165322Y7152D01*
X165340Y7222D01*
X165336Y7274D01*
X165341Y7325D01*
X165326Y7396D01*
X165321Y7467D01*
X165300Y7515D01*
X165289Y7566D01*
X165252Y7627D01*
X165224Y7693D01*
X165179Y7749D01*
X165163Y7777D01*
X165145Y7792D01*
X165119Y7824D01*
X164243Y8700D01*
X164243Y12924D01*
X164238Y12954D01*
X164238Y13017D01*
X164201Y13316D01*
X164212Y13329D01*
X164241Y13402D01*
X164279Y13471D01*
X164287Y13516D01*
X164304Y13558D01*
X164314Y13649D01*
X164987Y14322D01*
X165005Y14347D01*
X165048Y14392D01*
X165096Y14453D01*
X165415Y14861D01*
X166344Y16051D01*
X166365Y16090D01*
X166395Y16124D01*
X166424Y16197D01*
X166462Y16266D01*
X166470Y16311D01*
X166487Y16352D01*
X166502Y16492D01*
X166505Y16508D01*
X166504Y16513D01*
X166505Y16519D01*
X166505Y16767D01*
X166505Y16768D01*
X166505Y17639D01*
X166492Y17718D01*
X166488Y17798D01*
X166473Y17838D01*
X166466Y17881D01*
X166428Y17952D01*
X166399Y18027D01*
X166364Y18073D01*
X166350Y18099D01*
X166330Y18118D01*
X166298Y18161D01*
X155483Y29639D01*
X155476Y29644D01*
X155467Y29655D01*
X154651Y30471D01*
X154685Y31624D01*
X154684Y31633D01*
X154685Y31647D01*
X154685Y40437D01*
X154671Y40527D01*
X154663Y40618D01*
X154651Y40648D01*
X154646Y40680D01*
X154603Y40760D01*
X154567Y40844D01*
X154541Y40876D01*
X154530Y40897D01*
X154507Y40919D01*
X154462Y40975D01*
X147655Y47782D01*
X147581Y47835D01*
X147512Y47895D01*
X147482Y47907D01*
X147456Y47926D01*
X147369Y47953D01*
X147284Y47987D01*
X147243Y47991D01*
X147221Y47998D01*
X147188Y47997D01*
X147117Y48005D01*
X100614Y48005D01*
X100594Y48002D01*
X100575Y48004D01*
X100473Y47982D01*
X100371Y47966D01*
X100354Y47956D01*
X100334Y47952D01*
X100245Y47899D01*
X100154Y47850D01*
X100140Y47836D01*
X100123Y47826D01*
X100056Y47747D01*
X99984Y47672D01*
X99976Y47654D01*
X99963Y47639D01*
X99924Y47543D01*
X99881Y47449D01*
X99879Y47429D01*
X99871Y47411D01*
X99853Y47244D01*
X99853Y44703D01*
X93843Y44703D01*
X93843Y47244D01*
X93840Y47264D01*
X93842Y47283D01*
X93820Y47385D01*
X93803Y47487D01*
X93794Y47504D01*
X93790Y47524D01*
X93737Y47613D01*
X93688Y47704D01*
X93674Y47718D01*
X93664Y47735D01*
X93585Y47802D01*
X93510Y47874D01*
X93492Y47882D01*
X93477Y47895D01*
X93381Y47934D01*
X93287Y47977D01*
X93267Y47979D01*
X93249Y47987D01*
X93082Y48005D01*
X91558Y48005D01*
X91538Y48002D01*
X91519Y48004D01*
X91417Y47982D01*
X91315Y47966D01*
X91298Y47956D01*
X91278Y47952D01*
X91189Y47899D01*
X91098Y47850D01*
X91084Y47836D01*
X91067Y47826D01*
X91000Y47747D01*
X90929Y47672D01*
X90920Y47654D01*
X90907Y47639D01*
X90868Y47543D01*
X90825Y47449D01*
X90823Y47429D01*
X90815Y47411D01*
X90797Y47244D01*
X90797Y44703D01*
X84787Y44703D01*
X84787Y47244D01*
X84784Y47264D01*
X84786Y47283D01*
X84764Y47385D01*
X84748Y47487D01*
X84738Y47504D01*
X84734Y47524D01*
X84681Y47613D01*
X84632Y47704D01*
X84618Y47718D01*
X84608Y47735D01*
X84529Y47802D01*
X84454Y47874D01*
X84436Y47882D01*
X84421Y47895D01*
X84325Y47934D01*
X84231Y47977D01*
X84211Y47979D01*
X84193Y47987D01*
X84026Y48005D01*
X83106Y48005D01*
X83086Y48002D01*
X83067Y48004D01*
X82965Y47982D01*
X82863Y47966D01*
X82846Y47956D01*
X82826Y47952D01*
X82737Y47899D01*
X82646Y47850D01*
X82632Y47836D01*
X82615Y47826D01*
X82548Y47747D01*
X82476Y47672D01*
X82468Y47654D01*
X82455Y47639D01*
X82416Y47543D01*
X82373Y47449D01*
X82371Y47429D01*
X82363Y47411D01*
X82345Y47244D01*
X82345Y37548D01*
X81452Y36655D01*
X69188Y36655D01*
X68295Y37548D01*
X68295Y39370D01*
X68292Y39390D01*
X68294Y39409D01*
X68272Y39511D01*
X68256Y39613D01*
X68246Y39630D01*
X68242Y39650D01*
X68189Y39739D01*
X68140Y39830D01*
X68126Y39844D01*
X68116Y39861D01*
X68037Y39928D01*
X67962Y40000D01*
X67944Y40008D01*
X67929Y40021D01*
X67833Y40060D01*
X67739Y40103D01*
X67719Y40105D01*
X67701Y40113D01*
X67534Y40131D01*
X67086Y40131D01*
X67066Y40128D01*
X67047Y40130D01*
X66945Y40108D01*
X66843Y40092D01*
X66826Y40082D01*
X66806Y40078D01*
X66717Y40025D01*
X66626Y39976D01*
X66612Y39962D01*
X66595Y39952D01*
X66528Y39873D01*
X66456Y39798D01*
X66448Y39780D01*
X66435Y39765D01*
X66396Y39669D01*
X66353Y39575D01*
X66351Y39555D01*
X66343Y39537D01*
X66325Y39370D01*
X66325Y37548D01*
X65432Y36655D01*
X53168Y36655D01*
X52275Y37548D01*
X52275Y47244D01*
X52272Y47264D01*
X52274Y47283D01*
X52252Y47385D01*
X52236Y47487D01*
X52226Y47504D01*
X52222Y47524D01*
X52169Y47613D01*
X52120Y47704D01*
X52106Y47718D01*
X52096Y47735D01*
X52017Y47802D01*
X51942Y47874D01*
X51924Y47882D01*
X51909Y47895D01*
X51813Y47934D01*
X51719Y47977D01*
X51699Y47979D01*
X51681Y47987D01*
X51514Y48005D01*
X50086Y48005D01*
X50066Y48002D01*
X50047Y48004D01*
X49945Y47982D01*
X49843Y47966D01*
X49826Y47956D01*
X49806Y47952D01*
X49717Y47899D01*
X49626Y47850D01*
X49612Y47836D01*
X49595Y47826D01*
X49528Y47747D01*
X49456Y47672D01*
X49448Y47654D01*
X49435Y47639D01*
X49396Y47543D01*
X49353Y47449D01*
X49351Y47429D01*
X49343Y47411D01*
X49325Y47244D01*
X49325Y37548D01*
X48432Y36655D01*
X36168Y36655D01*
X35275Y37548D01*
X35275Y44725D01*
X35264Y44796D01*
X35262Y44868D01*
X35244Y44917D01*
X35236Y44968D01*
X35202Y45031D01*
X35177Y45099D01*
X35145Y45139D01*
X35120Y45185D01*
X35068Y45235D01*
X35024Y45291D01*
X34980Y45319D01*
X34942Y45355D01*
X34877Y45385D01*
X34817Y45424D01*
X34766Y45436D01*
X34719Y45458D01*
X34648Y45466D01*
X34578Y45484D01*
X34526Y45480D01*
X34475Y45485D01*
X34404Y45470D01*
X34333Y45465D01*
X34285Y45444D01*
X34234Y45433D01*
X34173Y45396D01*
X34107Y45368D01*
X34051Y45323D01*
X34023Y45307D01*
X34008Y45289D01*
X33976Y45263D01*
X28418Y39705D01*
X28365Y39631D01*
X28305Y39562D01*
X28293Y39532D01*
X28274Y39506D01*
X28247Y39419D01*
X28213Y39334D01*
X28209Y39293D01*
X28202Y39271D01*
X28203Y39238D01*
X28195Y39167D01*
X28195Y19261D01*
X28210Y19166D01*
X28219Y19070D01*
X28230Y19045D01*
X28234Y19018D01*
X28280Y18933D01*
X28319Y18845D01*
X28337Y18825D01*
X28350Y18801D01*
X28420Y18734D01*
X28485Y18663D01*
X28508Y18650D01*
X28528Y18631D01*
X28616Y18591D01*
X28700Y18544D01*
X28733Y18536D01*
X28751Y18528D01*
X28784Y18524D01*
X28863Y18505D01*
X30426Y18313D01*
X30943Y18250D01*
X30973Y18251D01*
X31036Y18244D01*
X31984Y18244D01*
X31995Y18232D01*
X32064Y18194D01*
X32128Y18148D01*
X32171Y18134D01*
X32211Y18113D01*
X32301Y18091D01*
X32488Y17851D01*
X32510Y17831D01*
X32550Y17782D01*
X35537Y14795D01*
X35537Y10605D01*
X32756Y7824D01*
X32714Y7766D01*
X32664Y7714D01*
X32642Y7667D01*
X32612Y7625D01*
X32591Y7556D01*
X32561Y7491D01*
X32555Y7439D01*
X32540Y7389D01*
X32542Y7318D01*
X32534Y7247D01*
X32545Y7196D01*
X32546Y7144D01*
X32571Y7076D01*
X32586Y7006D01*
X32613Y6961D01*
X32630Y6913D01*
X32675Y6857D01*
X32712Y6795D01*
X32752Y6761D01*
X32784Y6721D01*
X32844Y6682D01*
X32899Y6635D01*
X32947Y6616D01*
X32991Y6588D01*
X33061Y6570D01*
X33127Y6543D01*
X33198Y6535D01*
X33230Y6527D01*
X33253Y6529D01*
X33294Y6525D01*
X33682Y6525D01*
X34575Y5632D01*
X34575Y-5632D01*
X33682Y-6525D01*
X21418Y-6525D01*
X20525Y-5632D01*
X20525Y2429D01*
X20511Y2519D01*
X20503Y2610D01*
X20491Y2640D01*
X20486Y2671D01*
X20443Y2752D01*
X20407Y2836D01*
X20381Y2868D01*
X20370Y2889D01*
X20347Y2911D01*
X20302Y2967D01*
X19382Y3887D01*
X19324Y3929D01*
X19272Y3978D01*
X19225Y4000D01*
X19183Y4031D01*
X19114Y4052D01*
X19049Y4082D01*
X18997Y4088D01*
X18947Y4103D01*
X18876Y4101D01*
X18805Y4109D01*
X18754Y4098D01*
X18702Y4097D01*
X18634Y4072D01*
X18564Y4057D01*
X18519Y4030D01*
X18471Y4012D01*
X18415Y3967D01*
X18353Y3930D01*
X18319Y3891D01*
X18279Y3858D01*
X18240Y3798D01*
X18193Y3744D01*
X18174Y3695D01*
X18146Y3651D01*
X18128Y3582D01*
X18101Y3515D01*
X18093Y3444D01*
X18085Y3413D01*
X18087Y3390D01*
X18083Y3349D01*
X18083Y1523D01*
X12073Y1523D01*
X12073Y7033D01*
X16256Y7033D01*
X16276Y7036D01*
X16295Y7034D01*
X16397Y7056D01*
X16499Y7072D01*
X16516Y7082D01*
X16536Y7086D01*
X16625Y7139D01*
X16716Y7188D01*
X16730Y7202D01*
X16747Y7212D01*
X16814Y7291D01*
X16886Y7366D01*
X16894Y7384D01*
X16907Y7399D01*
X16946Y7495D01*
X16989Y7589D01*
X16991Y7609D01*
X16999Y7627D01*
X17017Y7794D01*
X17017Y44548D01*
X19175Y46706D01*
X24255Y51786D01*
X24297Y51844D01*
X24346Y51896D01*
X24368Y51943D01*
X24399Y51985D01*
X24420Y52054D01*
X24450Y52119D01*
X24456Y52171D01*
X24471Y52221D01*
X24469Y52292D01*
X24477Y52363D01*
X24466Y52414D01*
X24465Y52466D01*
X24440Y52534D01*
X24425Y52604D01*
X24398Y52649D01*
X24380Y52697D01*
X24335Y52753D01*
X24298Y52815D01*
X24259Y52849D01*
X24226Y52889D01*
X24166Y52928D01*
X24112Y52975D01*
X24063Y52994D01*
X24019Y53022D01*
X23950Y53040D01*
X23883Y53067D01*
X23812Y53075D01*
X23781Y53083D01*
X23758Y53081D01*
X23717Y53085D01*
X14173Y53085D01*
X14083Y53071D01*
X13992Y53063D01*
X13962Y53051D01*
X13930Y53046D01*
X13850Y53003D01*
X13766Y52967D01*
X13734Y52941D01*
X13713Y52930D01*
X13691Y52907D01*
X13635Y52862D01*
X11318Y50545D01*
X8513Y50545D01*
X8264Y50545D01*
X8220Y50538D01*
X8175Y50540D01*
X8099Y50518D01*
X8021Y50505D01*
X7982Y50484D01*
X7938Y50472D01*
X7819Y50398D01*
X7804Y50390D01*
X7801Y50387D01*
X7796Y50384D01*
X6450Y49333D01*
X6137Y49088D01*
X6116Y49066D01*
X6067Y49027D01*
X5397Y48356D01*
X5380Y48357D01*
X5304Y48335D01*
X5227Y48322D01*
X5187Y48301D01*
X5143Y48289D01*
X5065Y48240D01*
X4762Y48278D01*
X4732Y48276D01*
X4669Y48283D01*
X445Y48283D01*
X-986Y49714D01*
X-1044Y49756D01*
X-1096Y49806D01*
X-1143Y49828D01*
X-1185Y49858D01*
X-1254Y49879D01*
X-1319Y49909D01*
X-1371Y49915D01*
X-1421Y49930D01*
X-1492Y49928D01*
X-1563Y49936D01*
X-1614Y49925D01*
X-1666Y49924D01*
X-1734Y49899D01*
X-1804Y49884D01*
X-1849Y49857D01*
X-1897Y49840D01*
X-1953Y49795D01*
X-2015Y49758D01*
X-2049Y49718D01*
X-2089Y49686D01*
X-2128Y49626D01*
X-2175Y49571D01*
X-2194Y49523D01*
X-2222Y49479D01*
X-2240Y49409D01*
X-2267Y49343D01*
X-2275Y49272D01*
X-2283Y49240D01*
X-2281Y49217D01*
X-2285Y49176D01*
X-2285Y44661D01*
X-2270Y44566D01*
X-2261Y44470D01*
X-2250Y44445D01*
X-2246Y44418D01*
X-2200Y44333D01*
X-2161Y44245D01*
X-2143Y44225D01*
X-2130Y44201D01*
X-2061Y44134D01*
X-1995Y44063D01*
X-1972Y44050D01*
X-1952Y44031D01*
X-1864Y43991D01*
X-1780Y43944D01*
X-1747Y43936D01*
X-1729Y43928D01*
X-1696Y43924D01*
X-1617Y43905D01*
X463Y43650D01*
X493Y43651D01*
X556Y43644D01*
X1504Y43644D01*
X1515Y43632D01*
X1584Y43594D01*
X1648Y43548D01*
X1691Y43534D01*
X1731Y43512D01*
X1821Y43491D01*
X2008Y43251D01*
X2030Y43231D01*
X2070Y43182D01*
X5057Y40195D01*
X5057Y36005D01*
X2894Y33843D01*
X2868Y33806D01*
X2834Y33776D01*
X2796Y33707D01*
X2750Y33643D01*
X2737Y33600D01*
X2715Y33560D01*
X2701Y33483D01*
X2678Y33408D01*
X2679Y33363D01*
X2671Y33318D01*
X2682Y33241D01*
X2684Y33162D01*
X2700Y33120D01*
X2706Y33075D01*
X2763Y32947D01*
X2769Y32931D01*
X2771Y32927D01*
X2774Y32922D01*
X2906Y32695D01*
X3564Y31563D01*
X3573Y31552D01*
X3579Y31539D01*
X3684Y31408D01*
X5057Y30035D01*
X5057Y25845D01*
X2095Y22883D01*
X-2095Y22883D01*
X-3468Y24256D01*
X-3479Y24265D01*
X-3488Y24276D01*
X-3623Y24376D01*
X-4982Y25166D01*
X-5024Y25182D01*
X-5062Y25206D01*
X-5138Y25226D01*
X-5211Y25254D01*
X-5256Y25255D01*
X-5300Y25266D01*
X-5378Y25260D01*
X-5457Y25263D01*
X-5500Y25251D01*
X-5545Y25247D01*
X-5618Y25216D01*
X-5693Y25194D01*
X-5730Y25169D01*
X-5772Y25151D01*
X-5882Y25063D01*
X-5895Y25054D01*
X-5898Y25050D01*
X-5903Y25046D01*
X-8065Y22883D01*
X-10007Y22883D01*
X-10021Y22881D01*
X-10036Y22883D01*
X-10202Y22858D01*
X-11775Y22442D01*
X-13679Y23549D01*
X-14412Y23975D01*
X-14412Y23976D01*
X-15373Y24534D01*
X-15481Y24575D01*
X-15589Y24619D01*
X-15598Y24620D01*
X-15603Y24622D01*
X-15623Y24623D01*
X-15756Y24637D01*
X-16343Y24637D01*
X-22568Y24637D01*
X-24726Y26795D01*
X-34363Y36432D01*
X-34437Y36485D01*
X-34506Y36545D01*
X-34537Y36557D01*
X-34563Y36576D01*
X-34650Y36603D01*
X-34735Y36637D01*
X-34776Y36641D01*
X-34798Y36648D01*
X-34830Y36647D01*
X-34901Y36655D01*
X-42572Y36655D01*
X-43465Y37548D01*
X-43465Y48812D01*
X-42572Y49705D01*
X-30308Y49705D01*
X-29415Y48812D01*
X-29415Y41141D01*
X-29401Y41051D01*
X-29393Y40960D01*
X-29381Y40931D01*
X-29376Y40899D01*
X-29333Y40818D01*
X-29297Y40734D01*
X-29271Y40702D01*
X-29260Y40681D01*
X-29237Y40659D01*
X-29192Y40603D01*
X-27764Y39175D01*
X-27706Y39133D01*
X-27654Y39084D01*
X-27607Y39062D01*
X-27565Y39031D01*
X-27496Y39010D01*
X-27431Y38980D01*
X-27379Y38974D01*
X-27329Y38959D01*
X-27258Y38961D01*
X-27187Y38953D01*
X-27136Y38964D01*
X-27084Y38965D01*
X-27016Y38990D01*
X-26946Y39005D01*
X-26902Y39032D01*
X-26853Y39050D01*
X-26797Y39095D01*
X-26735Y39132D01*
X-26701Y39171D01*
X-26661Y39204D01*
X-26622Y39264D01*
X-26575Y39318D01*
X-26556Y39367D01*
X-26528Y39411D01*
X-26510Y39480D01*
X-26483Y39547D01*
X-26475Y39618D01*
X-26467Y39649D01*
X-26469Y39672D01*
X-26465Y39713D01*
X-26465Y48812D01*
X-25572Y49705D01*
X-13308Y49705D01*
X-12415Y48812D01*
X-12415Y41141D01*
X-12401Y41051D01*
X-12393Y40960D01*
X-12381Y40931D01*
X-12376Y40899D01*
X-12333Y40818D01*
X-12297Y40734D01*
X-12271Y40702D01*
X-12260Y40681D01*
X-12237Y40659D01*
X-12192Y40603D01*
X-10675Y39086D01*
X-10601Y39033D01*
X-10532Y38973D01*
X-10501Y38961D01*
X-10475Y38942D01*
X-10388Y38915D01*
X-10303Y38881D01*
X-10262Y38877D01*
X-10240Y38870D01*
X-10208Y38871D01*
X-10137Y38863D01*
X-6561Y38863D01*
X-6495Y38873D01*
X-6429Y38874D01*
X-6375Y38893D01*
X-6318Y38902D01*
X-6260Y38933D01*
X-6197Y38955D01*
X-6151Y38991D01*
X-6101Y39018D01*
X-6055Y39066D01*
X-6003Y39106D01*
X-5971Y39154D01*
X-5931Y39196D01*
X-5903Y39256D01*
X-5867Y39311D01*
X-5852Y39367D01*
X-5828Y39419D01*
X-5820Y39485D01*
X-5803Y39549D01*
X-5804Y39569D01*
X-5804Y39570D01*
X-5804Y39631D01*
X-5801Y39663D01*
X-5805Y39683D01*
X-5805Y39717D01*
X-5806Y39726D01*
X-5819Y39769D01*
X-5823Y39814D01*
X-5845Y39866D01*
X-5853Y39904D01*
X-5864Y39922D01*
X-5876Y39962D01*
X-5901Y39999D01*
X-5919Y40040D01*
X-6007Y40150D01*
X-6016Y40164D01*
X-6020Y40166D01*
X-6024Y40171D01*
X-7875Y42022D01*
X-7875Y57038D01*
X-1158Y63755D01*
X21387Y63755D01*
X21477Y63769D01*
X21568Y63777D01*
X21598Y63789D01*
X21630Y63794D01*
X21710Y63837D01*
X21794Y63873D01*
X21826Y63899D01*
X21847Y63910D01*
X21869Y63933D01*
X21925Y63978D01*
X25630Y67682D01*
X25631Y67683D01*
X25695Y67772D01*
X25774Y67882D01*
X25774Y67883D01*
X25809Y67995D01*
X25846Y68117D01*
X25847Y68118D01*
X25846Y68120D01*
X25851Y68285D01*
X25812Y68751D01*
X25872Y68822D01*
X25886Y68846D01*
X25906Y68866D01*
X25949Y68951D01*
X25998Y69033D01*
X26004Y69061D01*
X26017Y69086D01*
X26049Y69250D01*
X26802Y78268D01*
X26831Y78619D01*
X27380Y79083D01*
X27443Y79157D01*
X27511Y79226D01*
X27527Y79255D01*
X27540Y79270D01*
X27552Y79301D01*
X27592Y79373D01*
X28840Y82387D01*
X31513Y85060D01*
X31555Y85118D01*
X31604Y85170D01*
X31626Y85217D01*
X31656Y85259D01*
X31677Y85328D01*
X31708Y85393D01*
X31713Y85445D01*
X31729Y85495D01*
X31727Y85566D01*
X31735Y85637D01*
X31724Y85688D01*
X31722Y85740D01*
X31698Y85808D01*
X31682Y85878D01*
X31656Y85923D01*
X31638Y85971D01*
X31593Y86027D01*
X31556Y86089D01*
X31517Y86123D01*
X31484Y86163D01*
X31424Y86202D01*
X31369Y86249D01*
X31321Y86268D01*
X31277Y86296D01*
X31208Y86314D01*
X31141Y86341D01*
X31070Y86349D01*
X31039Y86357D01*
X31015Y86355D01*
X30974Y86359D01*
X19826Y86359D01*
X19755Y86348D01*
X19683Y86346D01*
X19634Y86328D01*
X19583Y86320D01*
X19520Y86286D01*
X19452Y86261D01*
X19412Y86229D01*
X19365Y86204D01*
X19316Y86152D01*
X19260Y86108D01*
X19232Y86064D01*
X19196Y86026D01*
X19166Y85961D01*
X19127Y85901D01*
X19114Y85850D01*
X19092Y85803D01*
X19085Y85732D01*
X19067Y85662D01*
X19071Y85610D01*
X19065Y85559D01*
X19081Y85488D01*
X19086Y85417D01*
X19107Y85369D01*
X19118Y85318D01*
X19154Y85257D01*
X19183Y85191D01*
X19227Y85135D01*
X19244Y85107D01*
X19262Y85092D01*
X19287Y85060D01*
X21960Y82387D01*
X23623Y78373D01*
X23623Y74027D01*
X21960Y70013D01*
X18887Y66940D01*
X14873Y65277D01*
X10527Y65277D01*
X6513Y66940D01*
X3440Y70013D01*
X1777Y74027D01*
X1777Y78373D01*
X3440Y82387D01*
X6113Y85060D01*
X6155Y85118D01*
X6204Y85170D01*
X6226Y85217D01*
X6256Y85259D01*
X6277Y85328D01*
X6308Y85393D01*
X6313Y85445D01*
X6329Y85495D01*
X6327Y85566D01*
X6335Y85637D01*
X6324Y85688D01*
X6322Y85740D01*
X6298Y85808D01*
X6282Y85878D01*
X6256Y85923D01*
X6238Y85971D01*
X6193Y86027D01*
X6156Y86089D01*
X6117Y86123D01*
X6084Y86163D01*
X6024Y86202D01*
X5969Y86249D01*
X5921Y86268D01*
X5877Y86296D01*
X5808Y86314D01*
X5741Y86341D01*
X5670Y86349D01*
X5639Y86357D01*
X5615Y86355D01*
X5574Y86359D01*
X-5574Y86359D01*
X-5645Y86348D01*
X-5717Y86346D01*
X-5766Y86328D01*
X-5817Y86320D01*
X-5880Y86286D01*
X-5948Y86261D01*
X-5988Y86229D01*
X-6035Y86204D01*
X-6084Y86152D01*
X-6140Y86108D01*
X-6168Y86064D01*
X-6204Y86026D01*
X-6234Y85961D01*
X-6273Y85901D01*
X-6286Y85850D01*
X-6308Y85803D01*
X-6315Y85732D01*
X-6333Y85662D01*
X-6329Y85610D01*
X-6335Y85559D01*
X-6319Y85488D01*
X-6314Y85417D01*
X-6293Y85369D01*
X-6282Y85318D01*
X-6246Y85257D01*
X-6217Y85191D01*
X-6173Y85135D01*
X-6156Y85107D01*
X-6138Y85092D01*
X-6113Y85060D01*
X-3440Y82387D01*
X-1777Y78373D01*
X-1777Y74027D01*
X-3440Y70013D01*
X-6513Y66940D01*
X-10527Y65277D01*
X-14873Y65277D01*
X-18887Y66940D01*
X-21960Y70013D01*
X-23623Y74027D01*
X-23623Y78373D01*
X-21960Y82387D01*
X-19287Y85060D01*
X-19245Y85118D01*
X-19196Y85170D01*
X-19174Y85217D01*
X-19144Y85259D01*
X-19123Y85328D01*
X-19092Y85393D01*
X-19087Y85445D01*
X-19071Y85495D01*
X-19073Y85566D01*
X-19065Y85637D01*
X-19076Y85688D01*
X-19078Y85740D01*
X-19102Y85808D01*
X-19118Y85878D01*
X-19144Y85923D01*
X-19162Y85971D01*
X-19207Y86027D01*
X-19244Y86089D01*
X-19283Y86123D01*
X-19316Y86163D01*
X-19376Y86202D01*
X-19431Y86249D01*
X-19479Y86268D01*
X-19523Y86296D01*
X-19592Y86314D01*
X-19659Y86341D01*
X-19730Y86349D01*
X-19761Y86357D01*
X-19785Y86355D01*
X-19826Y86359D01*
X-30974Y86359D01*
X-31045Y86348D01*
X-31117Y86346D01*
X-31166Y86328D01*
X-31217Y86320D01*
X-31280Y86286D01*
X-31348Y86261D01*
X-31388Y86229D01*
X-31435Y86204D01*
X-31484Y86152D01*
X-31540Y86108D01*
X-31568Y86064D01*
X-31604Y86026D01*
X-31634Y85961D01*
X-31673Y85901D01*
X-31686Y85850D01*
X-31708Y85803D01*
X-31715Y85732D01*
X-31733Y85662D01*
X-31729Y85610D01*
X-31735Y85559D01*
X-31719Y85488D01*
X-31714Y85417D01*
X-31693Y85369D01*
X-31682Y85318D01*
X-31646Y85257D01*
X-31617Y85191D01*
X-31573Y85135D01*
X-31556Y85107D01*
X-31538Y85092D01*
X-31513Y85060D01*
X-28840Y82387D01*
X-27177Y78373D01*
X-27177Y74027D01*
X-28840Y70013D01*
X-31913Y66940D01*
X-35927Y65277D01*
X-40273Y65277D01*
X-44287Y66940D01*
X-47360Y70013D01*
X-49023Y74027D01*
X-49023Y78373D01*
X-47360Y82387D01*
X-44687Y85060D01*
X-44645Y85118D01*
X-44596Y85170D01*
X-44574Y85217D01*
X-44544Y85259D01*
X-44523Y85328D01*
X-44492Y85393D01*
X-44487Y85445D01*
X-44471Y85495D01*
X-44473Y85566D01*
X-44465Y85637D01*
X-44476Y85688D01*
X-44478Y85740D01*
X-44502Y85808D01*
X-44518Y85878D01*
X-44544Y85923D01*
X-44562Y85971D01*
X-44607Y86027D01*
X-44644Y86089D01*
X-44683Y86123D01*
X-44716Y86163D01*
X-44776Y86202D01*
X-44831Y86249D01*
X-44879Y86268D01*
X-44923Y86296D01*
X-44992Y86314D01*
X-45059Y86341D01*
X-45130Y86349D01*
X-45161Y86357D01*
X-45185Y86355D01*
X-45226Y86359D01*
X-56374Y86359D01*
X-56445Y86348D01*
X-56517Y86346D01*
X-56566Y86328D01*
X-56617Y86320D01*
X-56680Y86286D01*
X-56748Y86261D01*
X-56788Y86229D01*
X-56835Y86204D01*
X-56884Y86152D01*
X-56940Y86108D01*
X-56968Y86064D01*
X-57004Y86026D01*
X-57034Y85961D01*
X-57073Y85901D01*
X-57086Y85850D01*
X-57108Y85803D01*
X-57115Y85732D01*
X-57133Y85662D01*
X-57129Y85610D01*
X-57135Y85559D01*
X-57119Y85488D01*
X-57114Y85417D01*
X-57093Y85369D01*
X-57082Y85318D01*
X-57046Y85257D01*
X-57017Y85191D01*
X-56973Y85135D01*
X-56956Y85107D01*
X-56938Y85092D01*
X-56913Y85060D01*
X-54240Y82387D01*
X-52577Y78373D01*
X-52577Y74027D01*
X-54240Y70013D01*
X-57313Y66940D01*
X-61327Y65277D01*
X-65673Y65277D01*
X-69687Y66940D01*
X-72760Y70013D01*
X-74423Y74027D01*
X-74423Y78373D01*
X-72760Y82387D01*
X-70087Y85060D01*
X-70045Y85118D01*
X-69996Y85170D01*
X-69974Y85217D01*
X-69944Y85259D01*
X-69923Y85328D01*
X-69892Y85393D01*
X-69887Y85445D01*
X-69871Y85495D01*
X-69873Y85566D01*
X-69865Y85637D01*
X-69876Y85688D01*
X-69878Y85740D01*
X-69902Y85808D01*
X-69918Y85878D01*
X-69944Y85923D01*
X-69962Y85971D01*
X-70007Y86027D01*
X-70044Y86089D01*
X-70083Y86123D01*
X-70116Y86163D01*
X-70176Y86202D01*
X-70231Y86249D01*
X-70279Y86268D01*
X-70323Y86296D01*
X-70392Y86314D01*
X-70459Y86341D01*
X-70530Y86349D01*
X-70561Y86357D01*
X-70585Y86355D01*
X-70626Y86359D01*
X-81774Y86359D01*
X-81845Y86348D01*
X-81917Y86346D01*
X-81966Y86328D01*
X-82017Y86320D01*
X-82080Y86286D01*
X-82148Y86261D01*
X-82188Y86229D01*
X-82235Y86204D01*
X-82284Y86152D01*
X-82340Y86108D01*
X-82368Y86064D01*
X-82404Y86026D01*
X-82434Y85961D01*
X-82473Y85901D01*
X-82486Y85850D01*
X-82508Y85803D01*
X-82515Y85732D01*
X-82533Y85662D01*
X-82529Y85610D01*
X-82535Y85559D01*
X-82519Y85488D01*
X-82514Y85417D01*
X-82493Y85369D01*
X-82482Y85318D01*
X-82446Y85257D01*
X-82417Y85191D01*
X-82373Y85135D01*
X-82356Y85107D01*
X-82338Y85092D01*
X-82313Y85060D01*
X-79640Y82387D01*
X-77977Y78373D01*
X-77977Y74027D01*
X-79640Y70013D01*
X-82713Y66940D01*
X-86727Y65277D01*
X-91073Y65277D01*
X-95087Y66940D01*
X-98160Y70013D01*
X-99823Y74027D01*
X-99823Y78373D01*
X-98160Y82387D01*
X-95487Y85060D01*
X-95445Y85118D01*
X-95396Y85170D01*
X-95374Y85217D01*
X-95344Y85259D01*
X-95323Y85328D01*
X-95292Y85393D01*
X-95287Y85445D01*
X-95271Y85495D01*
X-95273Y85566D01*
X-95265Y85637D01*
X-95276Y85688D01*
X-95278Y85740D01*
X-95302Y85808D01*
X-95318Y85878D01*
X-95344Y85923D01*
X-95362Y85971D01*
X-95407Y86027D01*
X-95444Y86089D01*
X-95483Y86123D01*
X-95516Y86163D01*
X-95576Y86202D01*
X-95631Y86249D01*
X-95679Y86268D01*
X-95723Y86296D01*
X-95792Y86314D01*
X-95859Y86341D01*
X-95930Y86349D01*
X-95961Y86357D01*
X-95985Y86355D01*
X-96026Y86359D01*
X-107174Y86359D01*
X-107245Y86348D01*
X-107317Y86346D01*
X-107366Y86328D01*
X-107417Y86320D01*
X-107480Y86286D01*
X-107548Y86261D01*
X-107588Y86229D01*
X-107635Y86204D01*
X-107684Y86152D01*
X-107740Y86108D01*
X-107768Y86064D01*
X-107804Y86026D01*
X-107834Y85961D01*
X-107873Y85901D01*
X-107886Y85850D01*
X-107908Y85803D01*
X-107915Y85732D01*
X-107933Y85662D01*
X-107929Y85610D01*
X-107935Y85559D01*
X-107919Y85488D01*
X-107914Y85417D01*
X-107893Y85369D01*
X-107882Y85318D01*
X-107846Y85257D01*
X-107817Y85191D01*
X-107773Y85135D01*
X-107756Y85107D01*
X-107738Y85092D01*
X-107713Y85060D01*
X-105040Y82387D01*
X-103377Y78373D01*
X-103377Y74027D01*
X-105040Y70013D01*
X-108113Y66940D01*
X-112127Y65277D01*
X-116473Y65277D01*
X-120487Y66940D01*
X-123560Y70013D01*
X-125223Y74027D01*
X-125223Y78373D01*
X-123560Y82387D01*
X-120887Y85060D01*
X-120845Y85118D01*
X-120796Y85170D01*
X-120774Y85217D01*
X-120744Y85259D01*
X-120723Y85328D01*
X-120692Y85393D01*
X-120687Y85445D01*
X-120671Y85495D01*
X-120673Y85566D01*
X-120665Y85637D01*
X-120676Y85688D01*
X-120678Y85740D01*
X-120702Y85808D01*
X-120718Y85878D01*
X-120744Y85923D01*
X-120762Y85971D01*
X-120807Y86027D01*
X-120844Y86089D01*
X-120883Y86123D01*
X-120916Y86163D01*
X-120976Y86202D01*
X-121031Y86249D01*
X-121079Y86268D01*
X-121123Y86296D01*
X-121192Y86314D01*
X-121259Y86341D01*
X-121330Y86349D01*
X-121361Y86357D01*
X-121385Y86355D01*
X-121426Y86359D01*
X-132574Y86359D01*
X-132645Y86348D01*
X-132717Y86346D01*
X-132766Y86328D01*
X-132817Y86320D01*
X-132880Y86286D01*
X-132948Y86261D01*
X-132988Y86229D01*
X-133035Y86204D01*
X-133084Y86152D01*
X-133140Y86108D01*
X-133168Y86064D01*
X-133204Y86026D01*
X-133234Y85961D01*
X-133273Y85901D01*
X-133286Y85850D01*
X-133308Y85803D01*
X-133315Y85732D01*
X-133333Y85662D01*
X-133329Y85610D01*
X-133335Y85559D01*
X-133319Y85488D01*
X-133314Y85417D01*
X-133293Y85369D01*
X-133282Y85318D01*
X-133246Y85257D01*
X-133217Y85191D01*
X-133173Y85135D01*
X-133156Y85107D01*
X-133138Y85092D01*
X-133113Y85060D01*
X-130440Y82387D01*
X-128777Y78373D01*
X-128777Y74027D01*
X-130440Y70013D01*
X-133513Y66940D01*
X-137527Y65277D01*
X-141873Y65277D01*
X-145887Y66940D01*
X-148960Y70013D01*
X-150623Y74027D01*
X-150623Y78373D01*
X-148960Y82387D01*
X-146287Y85060D01*
X-146245Y85118D01*
X-146196Y85170D01*
X-146174Y85217D01*
X-146144Y85259D01*
X-146123Y85328D01*
X-146092Y85393D01*
X-146087Y85445D01*
X-146071Y85495D01*
X-146073Y85566D01*
X-146065Y85637D01*
X-146076Y85688D01*
X-146078Y85740D01*
X-146102Y85808D01*
X-146118Y85878D01*
X-146144Y85923D01*
X-146162Y85971D01*
X-146207Y86027D01*
X-146244Y86089D01*
X-146283Y86123D01*
X-146316Y86163D01*
X-146376Y86202D01*
X-146431Y86249D01*
X-146479Y86268D01*
X-146523Y86296D01*
X-146592Y86314D01*
X-146659Y86341D01*
X-146730Y86349D01*
X-146761Y86357D01*
X-146785Y86355D01*
X-146826Y86359D01*
X-157974Y86359D01*
X-158045Y86348D01*
X-158117Y86346D01*
X-158166Y86328D01*
X-158217Y86320D01*
X-158280Y86286D01*
X-158348Y86261D01*
X-158388Y86229D01*
X-158435Y86204D01*
X-158484Y86152D01*
X-158540Y86108D01*
X-158568Y86064D01*
X-158604Y86026D01*
X-158634Y85961D01*
X-158673Y85901D01*
X-158686Y85850D01*
X-158708Y85803D01*
X-158715Y85732D01*
X-158733Y85662D01*
X-158729Y85610D01*
X-158735Y85559D01*
X-158719Y85488D01*
X-158714Y85417D01*
X-158693Y85369D01*
X-158682Y85318D01*
X-158646Y85257D01*
X-158617Y85191D01*
X-158573Y85135D01*
X-158556Y85107D01*
X-158538Y85092D01*
X-158513Y85060D01*
X-155840Y82387D01*
X-154177Y78373D01*
X-154177Y74027D01*
X-155840Y70013D01*
X-158913Y66940D01*
X-162927Y65277D01*
X-167273Y65277D01*
X-171287Y66940D01*
X-174360Y70013D01*
X-176023Y74027D01*
X-176023Y78373D01*
X-174360Y82387D01*
X-171687Y85060D01*
X-171645Y85118D01*
X-171596Y85170D01*
X-171574Y85217D01*
X-171544Y85259D01*
X-171523Y85328D01*
X-171492Y85393D01*
X-171487Y85445D01*
X-171471Y85495D01*
X-171473Y85566D01*
X-171465Y85637D01*
X-171476Y85688D01*
X-171478Y85740D01*
X-171502Y85808D01*
X-171518Y85878D01*
X-171544Y85923D01*
X-171562Y85971D01*
X-171607Y86027D01*
X-171644Y86089D01*
X-171683Y86123D01*
X-171716Y86163D01*
X-171776Y86202D01*
X-171831Y86249D01*
X-171879Y86268D01*
X-171923Y86296D01*
X-171992Y86314D01*
X-172059Y86341D01*
X-172130Y86349D01*
X-172161Y86357D01*
X-172185Y86355D01*
X-172226Y86359D01*
X-183374Y86359D01*
X-183445Y86348D01*
X-183517Y86346D01*
X-183566Y86328D01*
X-183617Y86320D01*
X-183680Y86286D01*
X-183748Y86261D01*
X-183788Y86229D01*
X-183835Y86204D01*
X-183884Y86152D01*
X-183940Y86108D01*
X-183968Y86064D01*
X-184004Y86026D01*
X-184034Y85961D01*
X-184073Y85901D01*
X-184086Y85850D01*
X-184108Y85803D01*
X-184115Y85732D01*
X-184133Y85662D01*
X-184129Y85610D01*
X-184135Y85559D01*
X-184119Y85488D01*
X-184114Y85417D01*
X-184093Y85369D01*
X-184082Y85318D01*
X-184046Y85257D01*
X-184017Y85191D01*
X-183973Y85135D01*
X-183956Y85107D01*
X-183938Y85092D01*
X-183913Y85060D01*
X-181240Y82387D01*
X-179577Y78373D01*
X-179577Y74027D01*
X-181240Y70013D01*
X-184313Y66940D01*
X-188327Y65277D01*
X-192673Y65277D01*
X-196687Y66940D01*
X-199760Y70013D01*
X-201423Y74027D01*
X-201423Y78373D01*
X-199760Y82387D01*
X-197087Y85060D01*
X-197045Y85118D01*
X-196996Y85170D01*
X-196974Y85217D01*
X-196944Y85259D01*
X-196923Y85328D01*
X-196892Y85393D01*
X-196887Y85445D01*
X-196871Y85495D01*
X-196873Y85566D01*
X-196865Y85637D01*
X-196876Y85688D01*
X-196878Y85740D01*
X-196902Y85808D01*
X-196918Y85878D01*
X-196944Y85923D01*
X-196962Y85971D01*
X-197007Y86027D01*
X-197044Y86089D01*
X-197083Y86123D01*
X-197116Y86163D01*
X-197176Y86202D01*
X-197231Y86249D01*
X-197279Y86268D01*
X-197323Y86296D01*
X-197392Y86314D01*
X-197459Y86341D01*
X-197530Y86349D01*
X-197561Y86357D01*
X-197585Y86355D01*
X-197626Y86359D01*
X-208774Y86359D01*
X-208845Y86348D01*
X-208917Y86346D01*
X-208966Y86328D01*
X-209017Y86320D01*
X-209080Y86286D01*
X-209148Y86261D01*
X-209188Y86229D01*
X-209235Y86204D01*
X-209284Y86152D01*
X-209340Y86108D01*
X-209368Y86064D01*
X-209404Y86026D01*
X-209434Y85961D01*
X-209473Y85901D01*
X-209486Y85850D01*
X-209508Y85803D01*
X-209515Y85732D01*
X-209533Y85662D01*
X-209529Y85610D01*
X-209535Y85559D01*
X-209519Y85488D01*
X-209514Y85417D01*
X-209493Y85369D01*
X-209482Y85318D01*
X-209446Y85257D01*
X-209417Y85191D01*
X-209373Y85135D01*
X-209356Y85107D01*
X-209338Y85092D01*
X-209313Y85060D01*
X-206640Y82387D01*
X-204977Y78373D01*
X-204977Y74027D01*
X-206226Y71013D01*
X-206248Y70919D01*
X-206277Y70826D01*
X-206278Y70793D01*
X-206282Y70774D01*
X-206279Y70741D01*
X-206281Y70658D01*
X-206221Y69942D01*
X-208328Y67452D01*
X-212163Y62918D01*
X-212194Y62867D01*
X-212233Y62821D01*
X-212257Y62762D01*
X-212290Y62707D01*
X-212302Y62649D01*
X-212325Y62593D01*
X-212331Y62533D01*
X-212344Y62520D01*
X-212373Y62463D01*
X-212410Y62412D01*
X-212428Y62354D01*
X-212455Y62301D01*
X-212464Y62256D01*
X-212836Y61942D01*
X-212911Y61853D01*
X-212995Y61755D01*
X-212995Y61754D01*
X-213040Y61644D01*
X-213087Y61527D01*
X-213087Y61526D01*
X-213087Y61524D01*
X-213105Y61360D01*
X-213105Y53933D01*
X-213091Y53843D01*
X-213083Y53752D01*
X-213071Y53722D01*
X-213066Y53690D01*
X-213023Y53610D01*
X-212987Y53526D01*
X-212961Y53494D01*
X-212950Y53473D01*
X-212927Y53451D01*
X-212882Y53395D01*
X-204335Y44848D01*
X-204261Y44795D01*
X-204192Y44735D01*
X-204162Y44723D01*
X-204136Y44704D01*
X-204049Y44677D01*
X-203964Y44643D01*
X-203923Y44639D01*
X-203901Y44632D01*
X-203868Y44633D01*
X-203797Y44625D01*
X-195408Y44625D01*
X-194515Y43732D01*
X-194515Y32468D01*
X-195408Y31575D01*
X-207672Y31575D01*
X-208565Y32468D01*
X-208565Y40857D01*
X-208579Y40947D01*
X-208587Y41038D01*
X-208599Y41068D01*
X-208604Y41100D01*
X-208647Y41180D01*
X-208683Y41264D01*
X-208709Y41296D01*
X-208720Y41317D01*
X-208743Y41339D01*
X-208788Y41395D01*
X-218695Y51302D01*
X-218695Y61360D01*
X-218713Y61472D01*
X-218734Y61602D01*
X-218734Y61603D01*
X-218786Y61700D01*
X-218849Y61820D01*
X-218850Y61820D01*
X-218851Y61822D01*
X-218964Y61942D01*
X-219332Y62252D01*
X-219332Y62254D01*
X-219357Y62313D01*
X-219373Y62375D01*
X-219405Y62425D01*
X-219428Y62480D01*
X-219466Y62527D01*
X-219466Y62545D01*
X-219486Y62606D01*
X-219496Y62669D01*
X-219524Y62722D01*
X-219543Y62779D01*
X-219596Y62858D01*
X-219612Y62887D01*
X-219623Y62897D01*
X-219637Y62918D01*
X-224394Y68542D01*
X-225579Y69942D01*
X-225519Y70658D01*
X-225526Y70755D01*
X-225527Y70852D01*
X-225537Y70884D01*
X-225538Y70903D01*
X-225551Y70934D01*
X-225574Y71013D01*
X-226823Y74027D01*
X-226823Y78373D01*
X-225160Y82387D01*
X-222487Y85060D01*
X-222445Y85118D01*
X-222396Y85170D01*
X-222374Y85217D01*
X-222344Y85259D01*
X-222323Y85328D01*
X-222292Y85393D01*
X-222287Y85445D01*
X-222271Y85495D01*
X-222273Y85566D01*
X-222265Y85637D01*
X-222276Y85688D01*
X-222278Y85740D01*
X-222302Y85808D01*
X-222318Y85878D01*
X-222344Y85923D01*
X-222362Y85971D01*
X-222407Y86027D01*
X-222444Y86089D01*
X-222483Y86123D01*
X-222516Y86163D01*
X-222576Y86202D01*
X-222631Y86249D01*
X-222679Y86268D01*
X-222723Y86296D01*
X-222792Y86314D01*
X-222859Y86341D01*
X-222930Y86349D01*
X-222961Y86357D01*
X-222985Y86355D01*
X-223026Y86359D01*
X-233493Y86359D01*
X-233501Y86358D01*
X-233509Y86359D01*
X-233623Y86338D01*
X-233736Y86320D01*
X-233743Y86316D01*
X-233751Y86314D01*
X-233852Y86258D01*
X-233953Y86204D01*
X-233959Y86199D01*
X-233966Y86195D01*
X-234043Y86109D01*
X-234123Y86026D01*
X-234126Y86019D01*
X-234131Y86013D01*
X-234178Y85908D01*
X-234226Y85803D01*
X-234227Y85795D01*
X-234230Y85788D01*
X-234241Y85672D01*
X-234253Y85559D01*
X-234252Y85551D01*
X-234252Y85543D01*
X-234225Y85431D01*
X-234201Y85318D01*
X-234197Y85311D01*
X-234195Y85304D01*
X-234134Y85206D01*
X-234075Y85107D01*
X-234069Y85102D01*
X-234064Y85095D01*
X-233940Y84982D01*
X-233853Y84919D01*
X-232581Y83647D01*
X-231524Y82191D01*
X-230707Y80588D01*
X-230151Y78877D01*
X-229968Y77723D01*
X-240538Y77723D01*
X-240558Y77720D01*
X-240577Y77722D01*
X-240679Y77700D01*
X-240781Y77683D01*
X-240798Y77674D01*
X-240818Y77670D01*
X-240907Y77617D01*
X-240998Y77568D01*
X-241012Y77554D01*
X-241029Y77544D01*
X-241096Y77465D01*
X-241167Y77390D01*
X-241176Y77372D01*
X-241189Y77357D01*
X-241227Y77261D01*
X-241271Y77167D01*
X-241273Y77147D01*
X-241281Y77129D01*
X-241299Y76962D01*
X-241299Y76199D01*
X-241301Y76199D01*
X-241301Y76962D01*
X-241304Y76982D01*
X-241302Y77001D01*
X-241324Y77103D01*
X-241341Y77205D01*
X-241350Y77222D01*
X-241354Y77242D01*
X-241407Y77331D01*
X-241456Y77422D01*
X-241470Y77436D01*
X-241480Y77453D01*
X-241559Y77520D01*
X-241634Y77591D01*
X-241652Y77600D01*
X-241667Y77613D01*
X-241763Y77652D01*
X-241857Y77695D01*
X-241877Y77697D01*
X-241895Y77705D01*
X-242062Y77723D01*
X-252632Y77723D01*
X-252449Y78877D01*
X-251893Y80588D01*
X-251076Y82191D01*
X-250019Y83647D01*
X-248747Y84919D01*
X-248660Y84982D01*
X-248654Y84988D01*
X-248647Y84992D01*
X-248568Y85075D01*
X-248487Y85157D01*
X-248483Y85164D01*
X-248477Y85170D01*
X-248429Y85275D01*
X-248378Y85378D01*
X-248377Y85386D01*
X-248374Y85393D01*
X-248361Y85508D01*
X-248346Y85622D01*
X-248348Y85630D01*
X-248347Y85637D01*
X-248371Y85750D01*
X-248393Y85863D01*
X-248397Y85870D01*
X-248399Y85878D01*
X-248458Y85976D01*
X-248515Y86077D01*
X-248521Y86082D01*
X-248525Y86089D01*
X-248612Y86163D01*
X-248699Y86240D01*
X-248706Y86244D01*
X-248712Y86249D01*
X-248820Y86292D01*
X-248925Y86337D01*
X-248933Y86338D01*
X-248940Y86341D01*
X-249107Y86359D01*
X-268567Y86359D01*
X-268637Y86348D01*
X-268709Y86346D01*
X-268758Y86328D01*
X-268809Y86320D01*
X-268873Y86286D01*
X-268940Y86261D01*
X-268981Y86229D01*
X-269027Y86204D01*
X-269076Y86152D01*
X-269132Y86108D01*
X-269160Y86064D01*
X-269196Y86026D01*
X-269226Y85961D01*
X-269265Y85901D01*
X-269278Y85850D01*
X-269300Y85803D01*
X-269308Y85732D01*
X-269325Y85662D01*
X-269321Y85610D01*
X-269327Y85559D01*
X-269311Y85488D01*
X-269306Y85417D01*
X-269286Y85369D01*
X-269274Y85318D01*
X-269238Y85257D01*
X-269210Y85191D01*
X-269165Y85135D01*
X-269148Y85107D01*
X-269131Y85092D01*
X-269105Y85060D01*
X-264111Y80066D01*
X-261365Y73437D01*
X-261365Y66263D01*
X-264111Y59634D01*
X-269184Y54561D01*
X-275813Y51815D01*
X-282987Y51815D01*
X-289616Y54561D01*
X-294610Y59555D01*
X-294668Y59597D01*
X-294720Y59646D01*
X-294767Y59668D01*
X-294809Y59698D01*
X-294878Y59719D01*
X-294943Y59750D01*
X-294995Y59755D01*
X-295045Y59771D01*
X-295116Y59769D01*
X-295187Y59777D01*
X-295238Y59766D01*
X-295290Y59764D01*
X-295358Y59740D01*
X-295428Y59724D01*
X-295473Y59698D01*
X-295521Y59680D01*
X-295577Y59635D01*
X-295639Y59598D01*
X-295673Y59559D01*
X-295713Y59526D01*
X-295752Y59466D01*
X-295799Y59411D01*
X-295818Y59363D01*
X-295846Y59319D01*
X-295864Y59250D01*
X-295891Y59183D01*
X-295899Y59112D01*
X-295907Y59081D01*
X-295905Y59057D01*
X-295909Y59017D01*
X-295909Y-59017D01*
X-295898Y-59087D01*
X-295896Y-59159D01*
X-295878Y-59208D01*
X-295870Y-59259D01*
X-295836Y-59323D01*
X-295811Y-59390D01*
X-295779Y-59431D01*
X-295754Y-59477D01*
X-295702Y-59526D01*
X-295658Y-59582D01*
X-295614Y-59610D01*
X-295576Y-59646D01*
X-295511Y-59676D01*
X-295451Y-59715D01*
X-295400Y-59728D01*
X-295353Y-59750D01*
X-295282Y-59758D01*
X-295212Y-59775D01*
X-295160Y-59771D01*
X-295109Y-59777D01*
X-295038Y-59761D01*
X-294967Y-59756D01*
X-294919Y-59736D01*
X-294868Y-59724D01*
X-294807Y-59688D01*
X-294741Y-59660D01*
X-294685Y-59615D01*
X-294657Y-59598D01*
X-294642Y-59581D01*
X-294610Y-59555D01*
X-289616Y-54561D01*
X-282987Y-51815D01*
X-275813Y-51815D01*
X-269184Y-54561D01*
X-264111Y-59634D01*
X-261365Y-66263D01*
X-261365Y-73437D01*
X-264111Y-80066D01*
X-269105Y-85060D01*
X-269147Y-85118D01*
X-269196Y-85170D01*
X-269218Y-85217D01*
X-269248Y-85259D01*
X-269269Y-85328D01*
X-269300Y-85393D01*
X-269305Y-85445D01*
X-269321Y-85495D01*
X-269319Y-85566D01*
X-269327Y-85637D01*
X-269316Y-85688D01*
X-269314Y-85740D01*
X-269290Y-85808D01*
X-269274Y-85878D01*
X-269248Y-85923D01*
X-269230Y-85971D01*
X-269185Y-86027D01*
X-269148Y-86089D01*
X-269109Y-86123D01*
X-269076Y-86163D01*
X-269016Y-86202D01*
X-268961Y-86249D01*
X-268913Y-86268D01*
X-268869Y-86296D01*
X-268800Y-86314D01*
X-268733Y-86341D01*
X-268662Y-86349D01*
X-268631Y-86357D01*
X-268607Y-86355D01*
X-268567Y-86359D01*
X-248426Y-86359D01*
X-248355Y-86348D01*
G37*
%LPC*%
G36*
X-127317Y-38082D02*
X-127317Y-38082D01*
X-127348Y-38084D01*
X-127410Y-38077D01*
X-131635Y-38077D01*
X-134597Y-35115D01*
X-134597Y-30925D01*
X-132150Y-28478D01*
X-132138Y-28462D01*
X-132122Y-28450D01*
X-132066Y-28362D01*
X-132006Y-28279D01*
X-132000Y-28260D01*
X-131989Y-28243D01*
X-131964Y-28143D01*
X-131934Y-28043D01*
X-131934Y-28024D01*
X-131929Y-28004D01*
X-131937Y-27901D01*
X-131940Y-27798D01*
X-131947Y-27779D01*
X-131948Y-27759D01*
X-131989Y-27664D01*
X-132024Y-27567D01*
X-132037Y-27551D01*
X-132045Y-27533D01*
X-132150Y-27402D01*
X-134597Y-24955D01*
X-134597Y-20765D01*
X-131635Y-17803D01*
X-127411Y-17803D01*
X-127380Y-17798D01*
X-127318Y-17798D01*
X-127018Y-17761D01*
X-127006Y-17772D01*
X-126932Y-17801D01*
X-126864Y-17839D01*
X-126819Y-17847D01*
X-126777Y-17864D01*
X-126686Y-17874D01*
X-126013Y-18547D01*
X-125988Y-18564D01*
X-125943Y-18608D01*
X-125062Y-19297D01*
X-124697Y-19581D01*
X-124697Y-19582D01*
X-124284Y-19904D01*
X-124245Y-19926D01*
X-124211Y-19955D01*
X-124138Y-19984D01*
X-124069Y-20022D01*
X-124024Y-20030D01*
X-123983Y-20047D01*
X-123843Y-20062D01*
X-123827Y-20065D01*
X-123822Y-20064D01*
X-123816Y-20065D01*
X-123568Y-20065D01*
X-123567Y-20065D01*
X-122032Y-20065D01*
X-119715Y-22382D01*
X-119641Y-22435D01*
X-119572Y-22495D01*
X-119542Y-22507D01*
X-119516Y-22526D01*
X-119429Y-22553D01*
X-119344Y-22587D01*
X-119303Y-22591D01*
X-119281Y-22598D01*
X-119248Y-22597D01*
X-119177Y-22605D01*
X-100684Y-22605D01*
X-100613Y-22594D01*
X-100541Y-22592D01*
X-100492Y-22574D01*
X-100441Y-22566D01*
X-100378Y-22532D01*
X-100310Y-22507D01*
X-100270Y-22475D01*
X-100224Y-22450D01*
X-100174Y-22398D01*
X-100118Y-22354D01*
X-100090Y-22310D01*
X-100054Y-22272D01*
X-100024Y-22207D01*
X-99985Y-22147D01*
X-99973Y-22096D01*
X-99951Y-22049D01*
X-99943Y-21978D01*
X-99925Y-21908D01*
X-99929Y-21856D01*
X-99924Y-21805D01*
X-99939Y-21734D01*
X-99944Y-21663D01*
X-99965Y-21615D01*
X-99976Y-21564D01*
X-100013Y-21503D01*
X-100041Y-21437D01*
X-100086Y-21381D01*
X-100102Y-21353D01*
X-100120Y-21338D01*
X-100146Y-21306D01*
X-101577Y-19875D01*
X-101577Y-15685D01*
X-98590Y-12698D01*
X-98572Y-12673D01*
X-98528Y-12629D01*
X-98343Y-12391D01*
X-98326Y-12390D01*
X-98253Y-12359D01*
X-98178Y-12337D01*
X-98141Y-12311D01*
X-98099Y-12294D01*
X-98027Y-12236D01*
X-97076Y-12236D01*
X-97046Y-12231D01*
X-96983Y-12230D01*
X-96714Y-12197D01*
X-94894Y-11973D01*
X-94851Y-11961D01*
X-94806Y-11957D01*
X-94734Y-11927D01*
X-94658Y-11904D01*
X-94621Y-11879D01*
X-94580Y-11861D01*
X-94470Y-11773D01*
X-94456Y-11764D01*
X-94454Y-11760D01*
X-94449Y-11756D01*
X-94273Y-11581D01*
X-94273Y-11580D01*
X-91948Y-9255D01*
X-91895Y-9181D01*
X-91882Y-9167D01*
X-91856Y-9140D01*
X-91853Y-9133D01*
X-91835Y-9112D01*
X-91823Y-9082D01*
X-91804Y-9056D01*
X-91778Y-8971D01*
X-91753Y-8917D01*
X-91751Y-8904D01*
X-91743Y-8884D01*
X-91739Y-8843D01*
X-91732Y-8821D01*
X-91733Y-8788D01*
X-91725Y-8717D01*
X-91725Y-1988D01*
X-90832Y-1095D01*
X-78568Y-1095D01*
X-77675Y-1988D01*
X-77675Y-13252D01*
X-78568Y-14145D01*
X-88617Y-14145D01*
X-88707Y-14159D01*
X-88798Y-14167D01*
X-88828Y-14179D01*
X-88860Y-14184D01*
X-88940Y-14227D01*
X-89024Y-14263D01*
X-89057Y-14289D01*
X-89077Y-14300D01*
X-89099Y-14323D01*
X-89155Y-14368D01*
X-90320Y-15533D01*
X-90496Y-15709D01*
X-90513Y-15732D01*
X-90535Y-15750D01*
X-90544Y-15765D01*
X-90556Y-15776D01*
X-90594Y-15844D01*
X-90640Y-15908D01*
X-90648Y-15936D01*
X-90663Y-15960D01*
X-90669Y-15980D01*
X-90675Y-15991D01*
X-90690Y-16056D01*
X-90709Y-16122D01*
X-90709Y-16133D01*
X-90712Y-16143D01*
X-90712Y-16148D01*
X-90714Y-16154D01*
X-90948Y-18058D01*
X-90970Y-18243D01*
X-90969Y-18273D01*
X-90976Y-18336D01*
X-90976Y-19284D01*
X-90988Y-19295D01*
X-91026Y-19364D01*
X-91072Y-19428D01*
X-91086Y-19471D01*
X-91107Y-19511D01*
X-91129Y-19601D01*
X-91369Y-19788D01*
X-91389Y-19810D01*
X-91438Y-19850D01*
X-92894Y-21306D01*
X-92936Y-21364D01*
X-92986Y-21416D01*
X-93008Y-21463D01*
X-93038Y-21505D01*
X-93059Y-21574D01*
X-93089Y-21639D01*
X-93095Y-21691D01*
X-93110Y-21741D01*
X-93108Y-21812D01*
X-93116Y-21883D01*
X-93105Y-21934D01*
X-93104Y-21986D01*
X-93079Y-22054D01*
X-93064Y-22124D01*
X-93037Y-22169D01*
X-93020Y-22217D01*
X-92975Y-22273D01*
X-92938Y-22335D01*
X-92898Y-22369D01*
X-92866Y-22409D01*
X-92806Y-22448D01*
X-92751Y-22495D01*
X-92703Y-22514D01*
X-92659Y-22542D01*
X-92589Y-22560D01*
X-92523Y-22587D01*
X-92452Y-22595D01*
X-92420Y-22603D01*
X-92397Y-22601D01*
X-92356Y-22605D01*
X-77673Y-22605D01*
X-77583Y-22591D01*
X-77492Y-22583D01*
X-77462Y-22571D01*
X-77430Y-22566D01*
X-77350Y-22523D01*
X-77266Y-22487D01*
X-77234Y-22461D01*
X-77213Y-22450D01*
X-77191Y-22427D01*
X-77135Y-22382D01*
X-72278Y-17525D01*
X-23753Y-17525D01*
X-23504Y-17525D01*
X-23460Y-17518D01*
X-23415Y-17520D01*
X-23339Y-17498D01*
X-23261Y-17485D01*
X-23222Y-17464D01*
X-23178Y-17452D01*
X-23059Y-17378D01*
X-23044Y-17370D01*
X-23041Y-17367D01*
X-23036Y-17364D01*
X-21690Y-16313D01*
X-21377Y-16068D01*
X-21356Y-16046D01*
X-21307Y-16007D01*
X-20637Y-15336D01*
X-20620Y-15337D01*
X-20544Y-15315D01*
X-20467Y-15302D01*
X-20427Y-15281D01*
X-20383Y-15269D01*
X-20305Y-15220D01*
X-20002Y-15258D01*
X-19972Y-15256D01*
X-19909Y-15263D01*
X-15685Y-15263D01*
X-12723Y-18225D01*
X-12723Y-22122D01*
X-12720Y-22142D01*
X-12722Y-22161D01*
X-12700Y-22263D01*
X-12684Y-22365D01*
X-12674Y-22382D01*
X-12670Y-22402D01*
X-12617Y-22491D01*
X-12568Y-22582D01*
X-12554Y-22596D01*
X-12544Y-22613D01*
X-12465Y-22680D01*
X-12390Y-22752D01*
X-12372Y-22760D01*
X-12357Y-22773D01*
X-12261Y-22812D01*
X-12167Y-22855D01*
X-12147Y-22857D01*
X-12129Y-22865D01*
X-11962Y-22883D01*
X-8065Y-22883D01*
X-5103Y-25845D01*
X-5103Y-30035D01*
X-8065Y-32997D01*
X-12290Y-32997D01*
X-12320Y-33002D01*
X-12383Y-33002D01*
X-12682Y-33039D01*
X-12694Y-33028D01*
X-12768Y-32999D01*
X-12836Y-32961D01*
X-12881Y-32953D01*
X-12923Y-32936D01*
X-13014Y-32926D01*
X-13687Y-32253D01*
X-13712Y-32235D01*
X-13757Y-32191D01*
X-14138Y-31894D01*
X-15416Y-30896D01*
X-15455Y-30874D01*
X-15489Y-30845D01*
X-15562Y-30816D01*
X-15631Y-30778D01*
X-15676Y-30770D01*
X-15717Y-30753D01*
X-15857Y-30738D01*
X-15874Y-30735D01*
X-15878Y-30735D01*
X-15884Y-30735D01*
X-21478Y-30735D01*
X-25065Y-27148D01*
X-25139Y-27095D01*
X-25208Y-27035D01*
X-25238Y-27023D01*
X-25264Y-27004D01*
X-25351Y-26977D01*
X-25436Y-26943D01*
X-25477Y-26939D01*
X-25499Y-26932D01*
X-25532Y-26933D01*
X-25603Y-26925D01*
X-65837Y-26925D01*
X-65927Y-26939D01*
X-66018Y-26947D01*
X-66048Y-26959D01*
X-66080Y-26964D01*
X-66160Y-27007D01*
X-66244Y-27043D01*
X-66277Y-27069D01*
X-66297Y-27080D01*
X-66319Y-27103D01*
X-66375Y-27148D01*
X-69372Y-30145D01*
X-71232Y-32005D01*
X-119177Y-32005D01*
X-119267Y-32019D01*
X-119358Y-32027D01*
X-119388Y-32039D01*
X-119420Y-32044D01*
X-119500Y-32087D01*
X-119584Y-32123D01*
X-119616Y-32149D01*
X-119637Y-32160D01*
X-119659Y-32183D01*
X-119715Y-32228D01*
X-123302Y-35815D01*
X-123816Y-35815D01*
X-123860Y-35822D01*
X-123905Y-35820D01*
X-123981Y-35842D01*
X-124059Y-35854D01*
X-124098Y-35876D01*
X-124142Y-35888D01*
X-124261Y-35962D01*
X-124276Y-35970D01*
X-124279Y-35973D01*
X-124284Y-35976D01*
X-125943Y-37271D01*
X-125964Y-37294D01*
X-126013Y-37333D01*
X-126683Y-38004D01*
X-126700Y-38003D01*
X-126776Y-38025D01*
X-126853Y-38037D01*
X-126893Y-38059D01*
X-126936Y-38071D01*
X-127015Y-38120D01*
X-127317Y-38082D01*
G37*
%LPD*%
%LPC*%
G36*
X-73832Y-14145D02*
X-73832Y-14145D01*
X-74725Y-13252D01*
X-74725Y-1988D01*
X-73832Y-1095D01*
X-61568Y-1095D01*
X-60516Y-2147D01*
X-60500Y-2159D01*
X-60488Y-2174D01*
X-60401Y-2231D01*
X-60317Y-2291D01*
X-60298Y-2297D01*
X-60281Y-2308D01*
X-60180Y-2333D01*
X-60082Y-2363D01*
X-60062Y-2363D01*
X-60042Y-2368D01*
X-59939Y-2360D01*
X-59836Y-2357D01*
X-59817Y-2350D01*
X-59797Y-2349D01*
X-59702Y-2308D01*
X-59605Y-2272D01*
X-59589Y-2260D01*
X-59571Y-2252D01*
X-59440Y-2148D01*
X-59364Y-2072D01*
X-59337Y-2035D01*
X-59304Y-2004D01*
X-59266Y-1936D01*
X-59220Y-1872D01*
X-59207Y-1829D01*
X-59185Y-1789D01*
X-59153Y-1653D01*
X-59148Y-1637D01*
X-59148Y-1632D01*
X-59146Y-1626D01*
X-58958Y-93D01*
X-58958Y-84D01*
X-58956Y-75D01*
X-58958Y93D01*
X-59146Y1626D01*
X-59159Y1669D01*
X-59163Y1714D01*
X-59193Y1787D01*
X-59216Y1862D01*
X-59241Y1899D01*
X-59259Y1941D01*
X-59347Y2050D01*
X-59356Y2064D01*
X-59360Y2066D01*
X-59364Y2072D01*
X-59440Y2148D01*
X-59456Y2159D01*
X-59468Y2175D01*
X-59555Y2231D01*
X-59640Y2291D01*
X-59659Y2297D01*
X-59675Y2308D01*
X-59776Y2333D01*
X-59875Y2363D01*
X-59895Y2363D01*
X-59914Y2368D01*
X-60017Y2360D01*
X-60121Y2357D01*
X-60139Y2350D01*
X-60159Y2349D01*
X-60254Y2308D01*
X-60352Y2272D01*
X-60367Y2260D01*
X-60385Y2252D01*
X-60516Y2147D01*
X-61568Y1095D01*
X-73832Y1095D01*
X-74725Y1988D01*
X-74725Y13252D01*
X-74291Y13686D01*
X-74249Y13744D01*
X-74199Y13796D01*
X-74177Y13843D01*
X-74147Y13885D01*
X-74126Y13954D01*
X-74096Y14019D01*
X-74090Y14071D01*
X-74075Y14121D01*
X-74077Y14192D01*
X-74069Y14263D01*
X-74080Y14314D01*
X-74081Y14366D01*
X-74106Y14434D01*
X-74121Y14504D01*
X-74148Y14549D01*
X-74165Y14597D01*
X-74210Y14653D01*
X-74247Y14715D01*
X-74287Y14749D01*
X-74319Y14789D01*
X-74379Y14828D01*
X-74434Y14875D01*
X-74482Y14894D01*
X-74526Y14922D01*
X-74596Y14940D01*
X-74662Y14967D01*
X-74733Y14975D01*
X-74765Y14983D01*
X-74788Y14981D01*
X-74829Y14985D01*
X-76900Y14985D01*
X-76994Y14970D01*
X-77089Y14961D01*
X-77115Y14950D01*
X-77143Y14946D01*
X-77227Y14901D01*
X-77314Y14863D01*
X-77335Y14844D01*
X-77360Y14830D01*
X-77425Y14761D01*
X-77496Y14697D01*
X-77510Y14672D01*
X-77529Y14652D01*
X-77570Y14566D01*
X-77616Y14482D01*
X-77621Y14455D01*
X-77633Y14429D01*
X-77644Y14334D01*
X-77661Y14241D01*
X-77657Y14213D01*
X-77660Y14185D01*
X-77640Y14091D01*
X-77626Y13997D01*
X-77612Y13965D01*
X-77608Y13944D01*
X-77591Y13916D01*
X-77559Y13843D01*
X-77306Y13405D01*
X-77167Y12888D01*
X-77167Y9143D01*
X-83938Y9143D01*
X-83958Y9140D01*
X-83977Y9142D01*
X-84079Y9120D01*
X-84181Y9103D01*
X-84198Y9094D01*
X-84218Y9090D01*
X-84307Y9037D01*
X-84398Y8988D01*
X-84412Y8974D01*
X-84429Y8964D01*
X-84496Y8885D01*
X-84567Y8810D01*
X-84576Y8792D01*
X-84589Y8777D01*
X-84628Y8681D01*
X-84671Y8587D01*
X-84673Y8567D01*
X-84681Y8549D01*
X-84699Y8382D01*
X-84699Y7619D01*
X-84701Y7619D01*
X-84701Y8382D01*
X-84704Y8402D01*
X-84702Y8421D01*
X-84724Y8523D01*
X-84741Y8625D01*
X-84750Y8642D01*
X-84754Y8662D01*
X-84807Y8751D01*
X-84856Y8842D01*
X-84870Y8856D01*
X-84880Y8873D01*
X-84959Y8940D01*
X-85034Y9011D01*
X-85052Y9020D01*
X-85067Y9033D01*
X-85163Y9072D01*
X-85257Y9115D01*
X-85277Y9117D01*
X-85295Y9125D01*
X-85462Y9143D01*
X-92233Y9143D01*
X-92233Y12507D01*
X-92237Y12532D01*
X-92234Y12557D01*
X-92257Y12653D01*
X-92272Y12750D01*
X-92284Y12772D01*
X-92290Y12797D01*
X-92342Y12881D01*
X-92388Y12967D01*
X-92406Y12985D01*
X-92419Y13006D01*
X-92495Y13069D01*
X-92566Y13137D01*
X-92589Y13147D01*
X-92608Y13163D01*
X-92700Y13199D01*
X-92789Y13240D01*
X-92814Y13243D01*
X-92838Y13252D01*
X-92936Y13257D01*
X-93033Y13267D01*
X-93058Y13262D01*
X-93083Y13263D01*
X-93178Y13236D01*
X-93274Y13215D01*
X-93295Y13202D01*
X-93320Y13195D01*
X-93463Y13107D01*
X-94007Y12682D01*
X-94297Y12718D01*
X-94328Y12716D01*
X-94390Y12723D01*
X-98615Y12723D01*
X-101577Y15685D01*
X-101577Y19875D01*
X-98615Y22837D01*
X-94390Y22837D01*
X-94360Y22842D01*
X-94297Y22842D01*
X-94007Y22878D01*
X-93079Y22154D01*
X-91264Y20736D01*
X-91225Y20714D01*
X-91191Y20685D01*
X-91118Y20656D01*
X-91049Y20618D01*
X-91004Y20610D01*
X-90963Y20593D01*
X-90823Y20578D01*
X-90807Y20575D01*
X-90802Y20575D01*
X-90796Y20575D01*
X4436Y20575D01*
X4480Y20582D01*
X4525Y20580D01*
X4601Y20602D01*
X4679Y20614D01*
X4718Y20636D01*
X4762Y20648D01*
X4881Y20722D01*
X4896Y20730D01*
X4899Y20733D01*
X4904Y20736D01*
X6719Y22154D01*
X7647Y22878D01*
X7937Y22842D01*
X7968Y22844D01*
X8030Y22837D01*
X12255Y22837D01*
X15217Y19875D01*
X15217Y15685D01*
X12255Y12723D01*
X8030Y12723D01*
X8000Y12718D01*
X7937Y12718D01*
X7647Y12682D01*
X5574Y14301D01*
X4904Y14824D01*
X4865Y14846D01*
X4831Y14875D01*
X4757Y14904D01*
X4689Y14942D01*
X4644Y14950D01*
X4603Y14967D01*
X4463Y14982D01*
X4446Y14985D01*
X4442Y14985D01*
X4436Y14985D01*
X-60571Y14985D01*
X-60642Y14974D01*
X-60714Y14972D01*
X-60763Y14954D01*
X-60814Y14946D01*
X-60877Y14912D01*
X-60945Y14887D01*
X-60985Y14855D01*
X-61031Y14830D01*
X-61081Y14779D01*
X-61137Y14734D01*
X-61165Y14690D01*
X-61201Y14652D01*
X-61231Y14587D01*
X-61270Y14527D01*
X-61282Y14476D01*
X-61304Y14429D01*
X-61312Y14358D01*
X-61330Y14288D01*
X-61326Y14236D01*
X-61331Y14185D01*
X-61316Y14114D01*
X-61311Y14043D01*
X-61290Y13995D01*
X-61279Y13944D01*
X-61242Y13883D01*
X-61214Y13817D01*
X-61169Y13761D01*
X-61153Y13733D01*
X-61135Y13718D01*
X-61109Y13686D01*
X-60675Y13252D01*
X-60675Y11176D01*
X-60672Y11156D01*
X-60674Y11137D01*
X-60652Y11035D01*
X-60636Y10933D01*
X-60626Y10916D01*
X-60622Y10896D01*
X-60569Y10807D01*
X-60520Y10716D01*
X-60506Y10702D01*
X-60496Y10685D01*
X-60417Y10618D01*
X-60342Y10546D01*
X-60324Y10538D01*
X-60309Y10525D01*
X-60213Y10486D01*
X-60119Y10443D01*
X-60099Y10441D01*
X-60081Y10433D01*
X-59914Y10415D01*
X-59802Y10415D01*
X-55411Y6024D01*
X-55375Y5998D01*
X-55344Y5964D01*
X-55276Y5926D01*
X-55212Y5880D01*
X-55169Y5867D01*
X-55129Y5845D01*
X-54993Y5813D01*
X-54977Y5808D01*
X-54972Y5808D01*
X-54966Y5807D01*
X-52877Y5550D01*
X-52847Y5551D01*
X-52784Y5544D01*
X-51836Y5544D01*
X-51824Y5532D01*
X-51756Y5494D01*
X-51692Y5448D01*
X-51649Y5434D01*
X-51609Y5412D01*
X-51519Y5391D01*
X-51332Y5151D01*
X-51310Y5131D01*
X-51270Y5082D01*
X-48283Y2095D01*
X-48283Y-2095D01*
X-51270Y-5082D01*
X-51288Y-5106D01*
X-51332Y-5151D01*
X-51517Y-5389D01*
X-51534Y-5390D01*
X-51607Y-5421D01*
X-51682Y-5443D01*
X-51719Y-5469D01*
X-51761Y-5486D01*
X-51833Y-5544D01*
X-52784Y-5544D01*
X-52814Y-5549D01*
X-52877Y-5550D01*
X-54966Y-5806D01*
X-55009Y-5819D01*
X-55054Y-5823D01*
X-55127Y-5853D01*
X-55202Y-5876D01*
X-55239Y-5901D01*
X-55280Y-5919D01*
X-55390Y-6007D01*
X-55404Y-6016D01*
X-55406Y-6020D01*
X-55411Y-6024D01*
X-57942Y-8555D01*
X-59802Y-10415D01*
X-59914Y-10415D01*
X-59934Y-10418D01*
X-59953Y-10416D01*
X-60055Y-10438D01*
X-60157Y-10454D01*
X-60174Y-10464D01*
X-60194Y-10468D01*
X-60283Y-10521D01*
X-60374Y-10570D01*
X-60388Y-10584D01*
X-60405Y-10594D01*
X-60472Y-10673D01*
X-60544Y-10748D01*
X-60552Y-10766D01*
X-60565Y-10781D01*
X-60604Y-10877D01*
X-60647Y-10971D01*
X-60649Y-10991D01*
X-60657Y-11009D01*
X-60675Y-11176D01*
X-60675Y-13252D01*
X-61568Y-14145D01*
X-73832Y-14145D01*
G37*
%LPD*%
%LPC*%
G36*
X-190672Y31575D02*
X-190672Y31575D01*
X-191565Y32468D01*
X-191565Y43732D01*
X-190672Y44625D01*
X-182283Y44625D01*
X-182193Y44639D01*
X-182102Y44647D01*
X-182072Y44659D01*
X-182040Y44664D01*
X-181959Y44707D01*
X-181876Y44743D01*
X-181843Y44769D01*
X-181823Y44780D01*
X-181801Y44803D01*
X-181745Y44848D01*
X-173588Y53005D01*
X-171728Y54865D01*
X-128382Y54865D01*
X-126522Y53005D01*
X-124795Y51278D01*
X-124721Y51225D01*
X-124652Y51165D01*
X-124622Y51153D01*
X-124596Y51134D01*
X-124509Y51107D01*
X-124424Y51073D01*
X-124383Y51069D01*
X-124361Y51062D01*
X-124328Y51063D01*
X-124257Y51055D01*
X-61100Y51055D01*
X-61010Y51069D01*
X-60919Y51076D01*
X-60889Y51089D01*
X-60857Y51094D01*
X-60777Y51137D01*
X-60693Y51173D01*
X-60660Y51199D01*
X-60640Y51210D01*
X-60618Y51233D01*
X-60562Y51277D01*
X-60232Y51607D01*
X-60201Y51607D01*
X-60175Y51611D01*
X-60149Y51608D01*
X-60055Y51630D01*
X-59958Y51646D01*
X-59935Y51658D01*
X-59910Y51664D01*
X-59763Y51745D01*
X-58206Y52840D01*
X-58184Y52862D01*
X-58106Y52924D01*
X-57505Y53525D01*
X-57472Y53525D01*
X-57447Y53529D01*
X-57421Y53527D01*
X-57326Y53549D01*
X-57230Y53565D01*
X-57207Y53577D01*
X-57182Y53583D01*
X-57035Y53664D01*
X-57008Y53682D01*
X-56807Y53647D01*
X-56743Y53647D01*
X-56680Y53636D01*
X-56621Y53645D01*
X-56561Y53645D01*
X-56556Y53647D01*
X-56161Y53548D01*
X-56151Y53547D01*
X-56143Y53544D01*
X-55976Y53525D01*
X-55139Y53525D01*
X-55118Y53510D01*
X-55031Y53483D01*
X-54946Y53449D01*
X-54905Y53444D01*
X-54883Y53437D01*
X-54856Y53438D01*
X-54843Y53427D01*
X-54813Y53415D01*
X-54787Y53396D01*
X-54700Y53369D01*
X-54615Y53335D01*
X-54574Y53331D01*
X-54552Y53324D01*
X-54520Y53325D01*
X-54448Y53317D01*
X-52515Y53317D01*
X-49553Y50355D01*
X-49553Y46165D01*
X-52515Y43203D01*
X-54448Y43203D01*
X-54538Y43189D01*
X-54629Y43181D01*
X-54659Y43169D01*
X-54691Y43164D01*
X-54772Y43121D01*
X-54856Y43085D01*
X-54868Y43075D01*
X-54869Y43075D01*
X-54960Y43068D01*
X-54990Y43055D01*
X-55022Y43050D01*
X-55103Y43007D01*
X-55132Y42995D01*
X-55976Y42995D01*
X-55985Y42993D01*
X-55994Y42995D01*
X-56161Y42972D01*
X-56571Y42869D01*
X-56577Y42870D01*
X-56640Y42883D01*
X-56726Y42878D01*
X-56759Y42880D01*
X-56777Y42875D01*
X-56807Y42873D01*
X-57008Y42838D01*
X-57035Y42856D01*
X-57058Y42868D01*
X-57078Y42885D01*
X-57168Y42921D01*
X-57256Y42963D01*
X-57282Y42967D01*
X-57306Y42976D01*
X-57472Y42995D01*
X-57505Y42995D01*
X-58106Y43596D01*
X-58132Y43615D01*
X-58206Y43681D01*
X-58937Y44194D01*
X-59160Y44351D01*
X-59479Y44575D01*
X-59763Y44775D01*
X-59786Y44786D01*
X-59806Y44803D01*
X-59896Y44840D01*
X-59984Y44882D01*
X-60010Y44885D01*
X-60034Y44895D01*
X-60201Y44913D01*
X-60232Y44913D01*
X-60562Y45243D01*
X-60636Y45296D01*
X-60705Y45355D01*
X-60735Y45367D01*
X-60762Y45386D01*
X-60849Y45413D01*
X-60933Y45447D01*
X-60974Y45451D01*
X-60997Y45458D01*
X-61029Y45457D01*
X-61100Y45465D01*
X-61333Y45465D01*
X-126888Y45465D01*
X-128748Y47325D01*
X-130475Y49052D01*
X-130549Y49105D01*
X-130618Y49165D01*
X-130648Y49177D01*
X-130674Y49196D01*
X-130761Y49223D01*
X-130846Y49257D01*
X-130887Y49261D01*
X-130909Y49268D01*
X-130942Y49267D01*
X-131013Y49275D01*
X-169097Y49275D01*
X-169187Y49261D01*
X-169278Y49253D01*
X-169308Y49241D01*
X-169340Y49236D01*
X-169420Y49193D01*
X-169504Y49157D01*
X-169536Y49131D01*
X-169557Y49120D01*
X-169579Y49097D01*
X-169635Y49052D01*
X-177292Y41395D01*
X-177345Y41321D01*
X-177405Y41252D01*
X-177417Y41222D01*
X-177436Y41196D01*
X-177463Y41109D01*
X-177497Y41024D01*
X-177501Y40983D01*
X-177508Y40961D01*
X-177507Y40928D01*
X-177515Y40857D01*
X-177515Y32468D01*
X-178408Y31575D01*
X-190672Y31575D01*
G37*
%LPD*%
%LPC*%
G36*
X213727Y-49023D02*
X213727Y-49023D01*
X209713Y-47360D01*
X206640Y-44287D01*
X204977Y-40273D01*
X204977Y-35927D01*
X206640Y-31913D01*
X209713Y-28840D01*
X213727Y-27177D01*
X218073Y-27177D01*
X222087Y-28840D01*
X225160Y-31913D01*
X226823Y-35927D01*
X226823Y-40273D01*
X225160Y-44287D01*
X222087Y-47360D01*
X218073Y-49023D01*
X213727Y-49023D01*
G37*
%LPD*%
%LPC*%
G36*
X-238198Y36675D02*
X-238198Y36675D01*
X-240596Y37669D01*
X-242431Y39504D01*
X-243425Y41902D01*
X-243425Y44498D01*
X-242431Y46896D01*
X-240596Y48731D01*
X-238198Y49725D01*
X-224602Y49725D01*
X-222204Y48731D01*
X-220369Y46896D01*
X-219375Y44498D01*
X-219375Y41902D01*
X-220369Y39504D01*
X-222204Y37669D01*
X-224602Y36675D01*
X-238198Y36675D01*
G37*
%LPD*%
%LPC*%
G36*
X-238198Y-49725D02*
X-238198Y-49725D01*
X-240596Y-48731D01*
X-242431Y-46896D01*
X-243425Y-44498D01*
X-243425Y-41902D01*
X-242431Y-39504D01*
X-240596Y-37669D01*
X-238198Y-36675D01*
X-224602Y-36675D01*
X-222204Y-37669D01*
X-220369Y-39504D01*
X-219375Y-41902D01*
X-219375Y-44498D01*
X-220369Y-46896D01*
X-222204Y-48731D01*
X-224602Y-49725D01*
X-238198Y-49725D01*
G37*
%LPD*%
%LPC*%
G36*
X-195135Y-54587D02*
X-195135Y-54587D01*
X-196508Y-53214D01*
X-196519Y-53205D01*
X-196528Y-53194D01*
X-196663Y-53094D01*
X-197795Y-52436D01*
X-198070Y-52276D01*
X-198383Y-51094D01*
X-199134Y-48252D01*
X-199182Y-48146D01*
X-199227Y-48040D01*
X-199233Y-48033D01*
X-199235Y-48028D01*
X-199249Y-48013D01*
X-199332Y-47909D01*
X-203393Y-43848D01*
X-203467Y-43795D01*
X-203536Y-43735D01*
X-203567Y-43723D01*
X-203593Y-43704D01*
X-203680Y-43677D01*
X-203765Y-43643D01*
X-203806Y-43639D01*
X-203828Y-43632D01*
X-203860Y-43633D01*
X-203931Y-43625D01*
X-210669Y-43625D01*
X-212265Y-42029D01*
X-212265Y-34171D01*
X-210669Y-32575D01*
X-200811Y-32575D01*
X-199215Y-34171D01*
X-199215Y-38369D01*
X-199200Y-38459D01*
X-199193Y-38550D01*
X-199181Y-38579D01*
X-199176Y-38611D01*
X-199133Y-38692D01*
X-199097Y-38776D01*
X-199071Y-38808D01*
X-199060Y-38829D01*
X-199037Y-38851D01*
X-198992Y-38907D01*
X-194661Y-43238D01*
X-194567Y-43305D01*
X-194474Y-43375D01*
X-194466Y-43378D01*
X-194462Y-43381D01*
X-194442Y-43387D01*
X-194318Y-43435D01*
X-193244Y-43720D01*
X-190294Y-44500D01*
X-189476Y-45907D01*
X-189467Y-45918D01*
X-189461Y-45932D01*
X-189356Y-46063D01*
X-187983Y-47435D01*
X-187983Y-51625D01*
X-190945Y-54587D01*
X-195135Y-54587D01*
G37*
%LPD*%
%LPC*%
G36*
X-277498Y36675D02*
X-277498Y36675D01*
X-279896Y37669D01*
X-281731Y39504D01*
X-282725Y41902D01*
X-282725Y44498D01*
X-281731Y46896D01*
X-279896Y48731D01*
X-277498Y49725D01*
X-268902Y49725D01*
X-266504Y48731D01*
X-264669Y46896D01*
X-263675Y44498D01*
X-263675Y41902D01*
X-264669Y39504D01*
X-266504Y37669D01*
X-268902Y36675D01*
X-277498Y36675D01*
G37*
%LPD*%
%LPC*%
G36*
X-277498Y-49725D02*
X-277498Y-49725D01*
X-279896Y-48731D01*
X-281731Y-46896D01*
X-282725Y-44498D01*
X-282725Y-41902D01*
X-281731Y-39504D01*
X-279896Y-37669D01*
X-277498Y-36675D01*
X-268902Y-36675D01*
X-266504Y-37669D01*
X-264669Y-39504D01*
X-263675Y-41902D01*
X-263675Y-44498D01*
X-264669Y-46896D01*
X-266504Y-48731D01*
X-268902Y-49725D01*
X-277498Y-49725D01*
G37*
%LPD*%
G36*
X178433Y-50843D02*
X178433Y-50843D01*
X178452Y-50845D01*
X178554Y-50823D01*
X178656Y-50807D01*
X178673Y-50797D01*
X178693Y-50793D01*
X178782Y-50740D01*
X178873Y-50691D01*
X178887Y-50677D01*
X178904Y-50667D01*
X178971Y-50588D01*
X179043Y-50513D01*
X179051Y-50495D01*
X179064Y-50480D01*
X179103Y-50384D01*
X179146Y-50290D01*
X179148Y-50270D01*
X179156Y-50252D01*
X179174Y-50085D01*
X179174Y-44094D01*
X179171Y-44075D01*
X179173Y-44055D01*
X179151Y-43953D01*
X179135Y-43851D01*
X179125Y-43834D01*
X179121Y-43814D01*
X179068Y-43725D01*
X179019Y-43634D01*
X179005Y-43620D01*
X178995Y-43603D01*
X178916Y-43536D01*
X178859Y-43482D01*
X178873Y-43474D01*
X178887Y-43460D01*
X178904Y-43450D01*
X178971Y-43371D01*
X179043Y-43296D01*
X179051Y-43278D01*
X179064Y-43263D01*
X179103Y-43166D01*
X179146Y-43073D01*
X179148Y-43053D01*
X179156Y-43035D01*
X179174Y-42868D01*
X179174Y-35448D01*
X179242Y-35448D01*
X180220Y-35710D01*
X181098Y-36217D01*
X181814Y-36933D01*
X182120Y-37463D01*
X182196Y-37556D01*
X182269Y-37648D01*
X182273Y-37650D01*
X182275Y-37653D01*
X182376Y-37717D01*
X182476Y-37781D01*
X182480Y-37782D01*
X182484Y-37784D01*
X182599Y-37812D01*
X182715Y-37841D01*
X182719Y-37841D01*
X182723Y-37842D01*
X182842Y-37831D01*
X182960Y-37822D01*
X182964Y-37820D01*
X182968Y-37820D01*
X183077Y-37772D01*
X183186Y-37725D01*
X183190Y-37722D01*
X183193Y-37721D01*
X183204Y-37712D01*
X183317Y-37621D01*
X184282Y-36656D01*
X184326Y-36595D01*
X184374Y-36545D01*
X184381Y-36528D01*
X184395Y-36512D01*
X184407Y-36482D01*
X184426Y-36456D01*
X184447Y-36386D01*
X184477Y-36322D01*
X184479Y-36303D01*
X184487Y-36284D01*
X184491Y-36243D01*
X184498Y-36221D01*
X184497Y-36189D01*
X184505Y-36117D01*
X184505Y-24843D01*
X184491Y-24753D01*
X184483Y-24662D01*
X184471Y-24632D01*
X184466Y-24600D01*
X184423Y-24519D01*
X184387Y-24435D01*
X184361Y-24403D01*
X184350Y-24383D01*
X184327Y-24360D01*
X184282Y-24304D01*
X183088Y-23110D01*
X183072Y-23099D01*
X183060Y-23083D01*
X182972Y-23027D01*
X182889Y-22967D01*
X182870Y-22961D01*
X182853Y-22950D01*
X182752Y-22925D01*
X182653Y-22894D01*
X182634Y-22895D01*
X182614Y-22890D01*
X182511Y-22898D01*
X182408Y-22901D01*
X182389Y-22908D01*
X182369Y-22909D01*
X182274Y-22950D01*
X182177Y-22985D01*
X182161Y-22998D01*
X182143Y-23006D01*
X182012Y-23110D01*
X180118Y-25004D01*
X179324Y-25004D01*
X179304Y-25007D01*
X179285Y-25005D01*
X179183Y-25027D01*
X179081Y-25043D01*
X179064Y-25053D01*
X179044Y-25057D01*
X178955Y-25110D01*
X178864Y-25159D01*
X178850Y-25173D01*
X178833Y-25183D01*
X178766Y-25262D01*
X178694Y-25337D01*
X178686Y-25355D01*
X178673Y-25370D01*
X178634Y-25466D01*
X178591Y-25560D01*
X178589Y-25580D01*
X178581Y-25598D01*
X178563Y-25765D01*
X178563Y-27737D01*
X177661Y-28638D01*
X177655Y-28647D01*
X177646Y-28654D01*
X177583Y-28748D01*
X177518Y-28838D01*
X177515Y-28849D01*
X177509Y-28858D01*
X177455Y-29017D01*
X176710Y-32489D01*
X176710Y-32490D01*
X176604Y-32985D01*
X175235Y-33870D01*
X175226Y-33879D01*
X175110Y-33971D01*
X174644Y-34437D01*
X174616Y-34476D01*
X174581Y-34509D01*
X174545Y-34575D01*
X174501Y-34637D01*
X174487Y-34683D01*
X174464Y-34725D01*
X174451Y-34799D01*
X174428Y-34872D01*
X174430Y-34920D01*
X174421Y-34967D01*
X174433Y-35042D01*
X174435Y-35118D01*
X174451Y-35163D01*
X174459Y-35210D01*
X174493Y-35278D01*
X174519Y-35349D01*
X174549Y-35386D01*
X174571Y-35429D01*
X174626Y-35482D01*
X174673Y-35541D01*
X174713Y-35567D01*
X174748Y-35600D01*
X174816Y-35633D01*
X174880Y-35674D01*
X174926Y-35685D01*
X174970Y-35706D01*
X175045Y-35715D01*
X175118Y-35734D01*
X175166Y-35730D01*
X175214Y-35736D01*
X175342Y-35716D01*
X175364Y-35715D01*
X175370Y-35712D01*
X175380Y-35711D01*
X176358Y-35448D01*
X176426Y-35448D01*
X176426Y-42868D01*
X176429Y-42887D01*
X176427Y-42907D01*
X176449Y-43009D01*
X176465Y-43111D01*
X176475Y-43128D01*
X176479Y-43148D01*
X176532Y-43237D01*
X176581Y-43328D01*
X176595Y-43342D01*
X176605Y-43359D01*
X176684Y-43426D01*
X176741Y-43480D01*
X176727Y-43488D01*
X176713Y-43502D01*
X176696Y-43512D01*
X176629Y-43591D01*
X176557Y-43666D01*
X176549Y-43684D01*
X176536Y-43699D01*
X176497Y-43796D01*
X176454Y-43889D01*
X176452Y-43909D01*
X176444Y-43927D01*
X176426Y-44094D01*
X176426Y-50085D01*
X176429Y-50105D01*
X176427Y-50124D01*
X176449Y-50226D01*
X176465Y-50328D01*
X176475Y-50345D01*
X176479Y-50365D01*
X176532Y-50454D01*
X176581Y-50545D01*
X176595Y-50559D01*
X176605Y-50576D01*
X176684Y-50643D01*
X176759Y-50715D01*
X176777Y-50723D01*
X176792Y-50736D01*
X176888Y-50775D01*
X176982Y-50818D01*
X177002Y-50820D01*
X177020Y-50828D01*
X177187Y-50846D01*
X178413Y-50846D01*
X178433Y-50843D01*
G37*
%LPC*%
G36*
X-237852Y-34691D02*
X-237852Y-34691D01*
X-239980Y-33809D01*
X-241609Y-32180D01*
X-242491Y-30052D01*
X-242491Y-27748D01*
X-241609Y-25620D01*
X-239980Y-23991D01*
X-237852Y-23109D01*
X-235548Y-23109D01*
X-233420Y-23991D01*
X-231791Y-25620D01*
X-230909Y-27748D01*
X-230909Y-30052D01*
X-231791Y-32180D01*
X-233420Y-33809D01*
X-235548Y-34691D01*
X-237852Y-34691D01*
G37*
%LPD*%
%LPC*%
G36*
X-237852Y23109D02*
X-237852Y23109D01*
X-239980Y23991D01*
X-241609Y25620D01*
X-242491Y27748D01*
X-242491Y30052D01*
X-241609Y32180D01*
X-239980Y33809D01*
X-237852Y34691D01*
X-235548Y34691D01*
X-233420Y33809D01*
X-231791Y32180D01*
X-230909Y30052D01*
X-230909Y27748D01*
X-231791Y25620D01*
X-233420Y23991D01*
X-235548Y23109D01*
X-237852Y23109D01*
G37*
%LPD*%
%LPC*%
G36*
X-289115Y-27917D02*
X-289115Y-27917D01*
X-292077Y-24955D01*
X-292077Y-20765D01*
X-289115Y-17803D01*
X-284925Y-17803D01*
X-281963Y-20765D01*
X-281963Y-24955D01*
X-284925Y-27917D01*
X-289115Y-27917D01*
G37*
%LPD*%
%LPC*%
G36*
X-289115Y17803D02*
X-289115Y17803D01*
X-292077Y20765D01*
X-292077Y24955D01*
X-289115Y27917D01*
X-284925Y27917D01*
X-281963Y24955D01*
X-281963Y20765D01*
X-284925Y17803D01*
X-289115Y17803D01*
G37*
%LPD*%
%LPC*%
G36*
X217423Y39623D02*
X217423Y39623D01*
X217423Y49432D01*
X218577Y49249D01*
X220288Y48693D01*
X221891Y47876D01*
X223347Y46819D01*
X224619Y45547D01*
X225676Y44091D01*
X226493Y42488D01*
X227049Y40777D01*
X227232Y39623D01*
X217423Y39623D01*
G37*
%LPD*%
%LPC*%
G36*
X-243977Y65051D02*
X-243977Y65051D01*
X-245688Y65607D01*
X-247291Y66424D01*
X-248747Y67481D01*
X-250019Y68753D01*
X-251076Y70209D01*
X-251893Y71812D01*
X-252449Y73523D01*
X-252632Y74677D01*
X-242823Y74677D01*
X-242823Y64868D01*
X-243977Y65051D01*
G37*
%LPD*%
%LPC*%
G36*
X204568Y39623D02*
X204568Y39623D01*
X204751Y40777D01*
X205307Y42488D01*
X206124Y44091D01*
X207181Y45547D01*
X208453Y46819D01*
X209909Y47876D01*
X211512Y48693D01*
X213223Y49249D01*
X214377Y49432D01*
X214377Y39623D01*
X204568Y39623D01*
G37*
%LPD*%
%LPC*%
G36*
X217423Y-74677D02*
X217423Y-74677D01*
X217423Y-64868D01*
X218577Y-65051D01*
X220288Y-65607D01*
X221891Y-66424D01*
X223347Y-67481D01*
X224619Y-68753D01*
X225676Y-70209D01*
X226493Y-71812D01*
X227049Y-73523D01*
X227232Y-74677D01*
X217423Y-74677D01*
G37*
%LPD*%
%LPC*%
G36*
X217423Y36577D02*
X217423Y36577D01*
X227232Y36577D01*
X227049Y35423D01*
X226493Y33712D01*
X225676Y32109D01*
X224619Y30653D01*
X223347Y29381D01*
X221891Y28324D01*
X220288Y27507D01*
X218577Y26951D01*
X217423Y26768D01*
X217423Y36577D01*
G37*
%LPD*%
%LPC*%
G36*
X-239777Y74677D02*
X-239777Y74677D01*
X-229968Y74677D01*
X-230151Y73523D01*
X-230707Y71812D01*
X-231524Y70209D01*
X-232581Y68753D01*
X-233853Y67481D01*
X-235309Y66424D01*
X-236912Y65607D01*
X-238623Y65051D01*
X-239777Y64868D01*
X-239777Y74677D01*
G37*
%LPD*%
%LPC*%
G36*
X213223Y26951D02*
X213223Y26951D01*
X211512Y27507D01*
X209909Y28324D01*
X208453Y29381D01*
X207181Y30653D01*
X206124Y32109D01*
X205307Y33712D01*
X204751Y35423D01*
X204568Y36577D01*
X214377Y36577D01*
X214377Y26768D01*
X213223Y26951D01*
G37*
%LPD*%
%LPC*%
G36*
X204568Y-74677D02*
X204568Y-74677D01*
X204751Y-73523D01*
X205307Y-71812D01*
X206124Y-70209D01*
X207181Y-68753D01*
X208453Y-67481D01*
X209909Y-66424D01*
X211512Y-65607D01*
X213223Y-65051D01*
X214377Y-64868D01*
X214377Y-74677D01*
X204568Y-74677D01*
G37*
%LPD*%
%LPC*%
G36*
X-151433Y-36577D02*
X-151433Y-36577D01*
X-151433Y-32832D01*
X-151294Y-32315D01*
X-151027Y-31852D01*
X-150648Y-31473D01*
X-150161Y-31192D01*
X-150130Y-31185D01*
X-150065Y-31145D01*
X-149996Y-31114D01*
X-149961Y-31082D01*
X-149920Y-31056D01*
X-149871Y-30998D01*
X-149816Y-30947D01*
X-149793Y-30905D01*
X-149762Y-30868D01*
X-149734Y-30797D01*
X-149698Y-30731D01*
X-149690Y-30684D01*
X-149673Y-30639D01*
X-149669Y-30563D01*
X-149656Y-30489D01*
X-149663Y-30441D01*
X-149661Y-30393D01*
X-149682Y-30320D01*
X-149693Y-30245D01*
X-149715Y-30203D01*
X-149728Y-30156D01*
X-149771Y-30094D01*
X-149805Y-30027D01*
X-149840Y-29993D01*
X-149867Y-29954D01*
X-149928Y-29908D01*
X-149982Y-29855D01*
X-150025Y-29835D01*
X-150064Y-29806D01*
X-150161Y-29768D01*
X-150648Y-29487D01*
X-151027Y-29108D01*
X-151294Y-28645D01*
X-151433Y-28128D01*
X-151433Y-24383D01*
X-145423Y-24383D01*
X-145423Y-36577D01*
X-151433Y-36577D01*
G37*
%LPD*%
%LPC*%
G36*
X-142377Y-36577D02*
X-142377Y-36577D01*
X-142377Y-24383D01*
X-136367Y-24383D01*
X-136367Y-28128D01*
X-136506Y-28645D01*
X-136773Y-29108D01*
X-137152Y-29487D01*
X-137639Y-29768D01*
X-137671Y-29775D01*
X-137735Y-29815D01*
X-137804Y-29846D01*
X-137839Y-29879D01*
X-137880Y-29904D01*
X-137929Y-29962D01*
X-137984Y-30013D01*
X-138007Y-30056D01*
X-138038Y-30093D01*
X-138066Y-30163D01*
X-138102Y-30229D01*
X-138110Y-30277D01*
X-138128Y-30322D01*
X-138131Y-30397D01*
X-138144Y-30472D01*
X-138137Y-30519D01*
X-138139Y-30567D01*
X-138118Y-30640D01*
X-138107Y-30715D01*
X-138085Y-30758D01*
X-138072Y-30804D01*
X-138029Y-30866D01*
X-137994Y-30934D01*
X-137960Y-30967D01*
X-137933Y-31007D01*
X-137872Y-31052D01*
X-137818Y-31105D01*
X-137774Y-31126D01*
X-137736Y-31154D01*
X-137638Y-31192D01*
X-137152Y-31473D01*
X-136773Y-31852D01*
X-136506Y-32315D01*
X-136367Y-32832D01*
X-136367Y-36577D01*
X-142377Y-36577D01*
G37*
%LPD*%
%LPC*%
G36*
X12073Y-7033D02*
X12073Y-7033D01*
X12073Y-1523D01*
X18083Y-1523D01*
X18083Y-5268D01*
X17944Y-5785D01*
X17677Y-6248D01*
X17298Y-6627D01*
X16835Y-6894D01*
X16318Y-7033D01*
X12073Y-7033D01*
G37*
%LPD*%
%LPC*%
G36*
X187823Y1523D02*
X187823Y1523D01*
X187823Y7033D01*
X192068Y7033D01*
X192585Y6894D01*
X193048Y6627D01*
X193427Y6248D01*
X193694Y5785D01*
X193833Y5268D01*
X193833Y1523D01*
X187823Y1523D01*
G37*
%LPD*%
%LPC*%
G36*
X-21893Y6603D02*
X-21893Y6603D01*
X-21893Y10348D01*
X-21754Y10865D01*
X-21487Y11328D01*
X-21108Y11707D01*
X-20645Y11974D01*
X-20128Y12113D01*
X-15883Y12113D01*
X-15883Y6603D01*
X-21893Y6603D01*
G37*
%LPD*%
%LPC*%
G36*
X43823Y-32433D02*
X43823Y-32433D01*
X43823Y-26923D01*
X49833Y-26923D01*
X49833Y-30668D01*
X49694Y-31185D01*
X49427Y-31648D01*
X49048Y-32027D01*
X48585Y-32294D01*
X48068Y-32433D01*
X43823Y-32433D01*
G37*
%LPD*%
%LPC*%
G36*
X-58718Y-50213D02*
X-58718Y-50213D01*
X-59235Y-50074D01*
X-59698Y-49807D01*
X-60077Y-49428D01*
X-60344Y-48965D01*
X-60483Y-48448D01*
X-60483Y-44703D01*
X-54473Y-44703D01*
X-54473Y-50213D01*
X-58718Y-50213D01*
G37*
%LPD*%
%LPC*%
G36*
X-151433Y39623D02*
X-151433Y39623D01*
X-151433Y43368D01*
X-151294Y43885D01*
X-151027Y44348D01*
X-150648Y44727D01*
X-150185Y44994D01*
X-149668Y45133D01*
X-145423Y45133D01*
X-145423Y39623D01*
X-151433Y39623D01*
G37*
%LPD*%
%LPC*%
G36*
X43823Y-23877D02*
X43823Y-23877D01*
X43823Y-18367D01*
X48068Y-18367D01*
X48585Y-18506D01*
X49048Y-18773D01*
X49427Y-19152D01*
X49694Y-19615D01*
X49833Y-20132D01*
X49833Y-23877D01*
X43823Y-23877D01*
G37*
%LPD*%
%LPC*%
G36*
X-142377Y39623D02*
X-142377Y39623D01*
X-142377Y45133D01*
X-138132Y45133D01*
X-137615Y44994D01*
X-137152Y44727D01*
X-136773Y44348D01*
X-136506Y43885D01*
X-136367Y43368D01*
X-136367Y39623D01*
X-142377Y39623D01*
G37*
%LPD*%
%LPC*%
G36*
X4782Y-7033D02*
X4782Y-7033D01*
X4265Y-6894D01*
X3802Y-6627D01*
X3423Y-6248D01*
X3156Y-5785D01*
X3017Y-5268D01*
X3017Y-1523D01*
X9027Y-1523D01*
X9027Y-7033D01*
X4782Y-7033D01*
G37*
%LPD*%
%LPC*%
G36*
X3017Y1523D02*
X3017Y1523D01*
X3017Y5268D01*
X3156Y5785D01*
X3423Y6248D01*
X3802Y6627D01*
X4265Y6894D01*
X4782Y7033D01*
X9027Y7033D01*
X9027Y1523D01*
X3017Y1523D01*
G37*
%LPD*%
%LPC*%
G36*
X-12837Y6603D02*
X-12837Y6603D01*
X-12837Y12113D01*
X-8592Y12113D01*
X-8075Y11974D01*
X-7612Y11707D01*
X-7233Y11328D01*
X-6966Y10865D01*
X-6827Y10348D01*
X-6827Y6603D01*
X-12837Y6603D01*
G37*
%LPD*%
%LPC*%
G36*
X36532Y-32433D02*
X36532Y-32433D01*
X36015Y-32294D01*
X35552Y-32027D01*
X35173Y-31648D01*
X34906Y-31185D01*
X34767Y-30668D01*
X34767Y-26923D01*
X40777Y-26923D01*
X40777Y-32433D01*
X36532Y-32433D01*
G37*
%LPD*%
%LPC*%
G36*
X-51427Y-50213D02*
X-51427Y-50213D01*
X-51427Y-44703D01*
X-45417Y-44703D01*
X-45417Y-48448D01*
X-45556Y-48965D01*
X-45823Y-49428D01*
X-46202Y-49807D01*
X-46665Y-50074D01*
X-47182Y-50213D01*
X-51427Y-50213D01*
G37*
%LPD*%
%LPC*%
G36*
X93843Y36147D02*
X93843Y36147D01*
X93843Y41657D01*
X99853Y41657D01*
X99853Y37912D01*
X99714Y37395D01*
X99447Y36932D01*
X99068Y36553D01*
X98605Y36286D01*
X98088Y36147D01*
X93843Y36147D01*
G37*
%LPD*%
%LPC*%
G36*
X-151433Y-21337D02*
X-151433Y-21337D01*
X-151433Y-17592D01*
X-151294Y-17075D01*
X-151027Y-16612D01*
X-150648Y-16233D01*
X-150185Y-15966D01*
X-149668Y-15827D01*
X-145423Y-15827D01*
X-145423Y-21337D01*
X-151433Y-21337D01*
G37*
%LPD*%
%LPC*%
G36*
X-142377Y-21337D02*
X-142377Y-21337D01*
X-142377Y-15827D01*
X-138132Y-15827D01*
X-137615Y-15966D01*
X-137152Y-16233D01*
X-136773Y-16612D01*
X-136506Y-17075D01*
X-136367Y-17592D01*
X-136367Y-21337D01*
X-142377Y-21337D01*
G37*
%LPD*%
%LPC*%
G36*
X86552Y36147D02*
X86552Y36147D01*
X86035Y36286D01*
X85572Y36553D01*
X85193Y36932D01*
X84926Y37395D01*
X84787Y37912D01*
X84787Y41657D01*
X90797Y41657D01*
X90797Y36147D01*
X86552Y36147D01*
G37*
%LPD*%
%LPC*%
G36*
X-90468Y587D02*
X-90468Y587D01*
X-90985Y726D01*
X-91448Y993D01*
X-91827Y1372D01*
X-92094Y1835D01*
X-92233Y2352D01*
X-92233Y6097D01*
X-86223Y6097D01*
X-86223Y587D01*
X-90468Y587D01*
G37*
%LPD*%
%LPC*%
G36*
X34767Y-23877D02*
X34767Y-23877D01*
X34767Y-20132D01*
X34906Y-19615D01*
X35173Y-19152D01*
X35552Y-18773D01*
X36015Y-18506D01*
X36532Y-18367D01*
X40777Y-18367D01*
X40777Y-23877D01*
X34767Y-23877D01*
G37*
%LPD*%
%LPC*%
G36*
X-142377Y31067D02*
X-142377Y31067D01*
X-142377Y36577D01*
X-136367Y36577D01*
X-136367Y32832D01*
X-136506Y32315D01*
X-136773Y31852D01*
X-137152Y31473D01*
X-137615Y31206D01*
X-138132Y31067D01*
X-142377Y31067D01*
G37*
%LPD*%
%LPC*%
G36*
X-83177Y587D02*
X-83177Y587D01*
X-83177Y6097D01*
X-77167Y6097D01*
X-77167Y2352D01*
X-77306Y1835D01*
X-77573Y1372D01*
X-77952Y993D01*
X-78415Y726D01*
X-78932Y587D01*
X-83177Y587D01*
G37*
%LPD*%
%LPC*%
G36*
X215899Y38099D02*
X215899Y38099D01*
X215899Y38101D01*
X215901Y38101D01*
X215901Y38099D01*
X215899Y38099D01*
G37*
%LPD*%
%LPC*%
G36*
X92319Y43179D02*
X92319Y43179D01*
X92319Y43181D01*
X92321Y43181D01*
X92321Y43179D01*
X92319Y43179D01*
G37*
%LPD*%
%LPC*%
G36*
X-143901Y-22861D02*
X-143901Y-22861D01*
X-143901Y-22859D01*
X-143899Y-22859D01*
X-143899Y-22861D01*
X-143901Y-22861D01*
G37*
%LPD*%
%LPC*%
G36*
X42299Y-25401D02*
X42299Y-25401D01*
X42299Y-25399D01*
X42301Y-25399D01*
X42301Y-25401D01*
X42299Y-25401D01*
G37*
%LPD*%
%LPC*%
G36*
X-143901Y38099D02*
X-143901Y38099D01*
X-143901Y38101D01*
X-143899Y38101D01*
X-143899Y38099D01*
X-143901Y38099D01*
G37*
%LPD*%
%LPC*%
G36*
X10549Y-1D02*
X10549Y-1D01*
X10549Y1D01*
X10551Y1D01*
X10551Y-1D01*
X10549Y-1D01*
G37*
%LPD*%
D10*
X-236900Y43200D02*
X-225900Y43200D01*
X-225900Y-43200D02*
X-236900Y-43200D01*
X-270200Y43200D02*
X-276200Y43200D01*
X-276200Y-43200D02*
X-270200Y-43200D01*
D11*
X-160900Y38100D03*
X-143900Y38100D03*
D12*
X177800Y20480D03*
X187300Y40480D03*
X168300Y40480D03*
D11*
X27550Y0D03*
X10550Y0D03*
D13*
X241300Y-76200D03*
X215900Y-76200D03*
X190500Y-76200D03*
X165100Y-76200D03*
X139700Y-76200D03*
X114300Y-76200D03*
X88900Y-76200D03*
X63500Y-76200D03*
X38100Y-76200D03*
X12700Y-76200D03*
X-12700Y-76200D03*
X-38100Y-76200D03*
X-63500Y-76200D03*
X-88900Y-76200D03*
X-114300Y-76200D03*
X-139700Y-76200D03*
X-165100Y-76200D03*
X-190500Y-76200D03*
X-215900Y-76200D03*
X-241300Y-76200D03*
X241300Y76200D03*
X215900Y76200D03*
X190500Y76200D03*
X165100Y76200D03*
X139700Y76200D03*
X114300Y76200D03*
X88900Y76200D03*
X63500Y76200D03*
X38100Y76200D03*
X12700Y76200D03*
X-12700Y76200D03*
X-38100Y76200D03*
X-63500Y76200D03*
X-88900Y76200D03*
X-114300Y76200D03*
X-139700Y76200D03*
X-165100Y76200D03*
X-190500Y76200D03*
X-215900Y76200D03*
X-241300Y76200D03*
X215900Y-38100D03*
X215900Y-12700D03*
X215900Y12700D03*
X215900Y38100D03*
D11*
X-67700Y-7620D03*
X-84700Y-7620D03*
X-67700Y7620D03*
X-84700Y7620D03*
X-160900Y-22860D03*
X-143900Y-22860D03*
X59300Y43180D03*
X42300Y43180D03*
X-14360Y5080D03*
X-31360Y5080D03*
X-52950Y-43180D03*
X-35950Y-43180D03*
X42300Y-25400D03*
X59300Y-25400D03*
X-160900Y-38100D03*
X-143900Y-38100D03*
D14*
X-176540Y-35300D02*
X-184140Y-35300D01*
X-176540Y-35300D02*
X-176540Y-40900D01*
X-184140Y-40900D01*
X-184140Y-35300D01*
X-184140Y-38620D02*
X-176540Y-38620D01*
X-176540Y-36340D02*
X-184140Y-36340D01*
X-201940Y-35300D02*
X-209540Y-35300D01*
X-201940Y-35300D02*
X-201940Y-40900D01*
X-209540Y-40900D01*
X-209540Y-35300D01*
X-209540Y-38620D02*
X-201940Y-38620D01*
X-201940Y-36340D02*
X-209540Y-36340D01*
D15*
X-143835Y-1196D02*
X-141965Y-1196D01*
X-141965Y-9566D01*
X-143835Y-9566D01*
X-143835Y-1196D01*
X-143835Y-6118D02*
X-141965Y-6118D01*
X-141965Y-2670D02*
X-143835Y-2670D01*
X-151465Y-1196D02*
X-153335Y-1196D01*
X-151465Y-1196D02*
X-151465Y-9566D01*
X-153335Y-9566D01*
X-153335Y-1196D01*
X-153335Y-6118D02*
X-151465Y-6118D01*
X-151465Y-2670D02*
X-153335Y-2670D01*
X-160965Y-1196D02*
X-162835Y-1196D01*
X-160965Y-1196D02*
X-160965Y-9566D01*
X-162835Y-9566D01*
X-162835Y-1196D01*
X-162835Y-6118D02*
X-160965Y-6118D01*
X-160965Y-2670D02*
X-162835Y-2670D01*
X-162835Y24806D02*
X-160965Y24806D01*
X-160965Y16436D01*
X-162835Y16436D01*
X-162835Y24806D01*
X-162835Y19884D02*
X-160965Y19884D01*
X-160965Y23332D02*
X-162835Y23332D01*
X-143835Y24806D02*
X-141965Y24806D01*
X-141965Y16436D01*
X-143835Y16436D01*
X-143835Y24806D01*
X-143835Y19884D02*
X-141965Y19884D01*
X-141965Y23332D02*
X-143835Y23332D01*
D11*
X-184540Y38100D03*
X-201540Y38100D03*
X-19440Y43180D03*
X-36440Y43180D03*
X75320Y43180D03*
X92320Y43180D03*
D15*
X167365Y-21664D02*
X169235Y-21664D01*
X167365Y-21664D02*
X167365Y-13294D01*
X169235Y-13294D01*
X169235Y-21664D01*
X169235Y-18216D02*
X167365Y-18216D01*
X167365Y-14768D02*
X169235Y-14768D01*
X176865Y-21664D02*
X178735Y-21664D01*
X176865Y-21664D02*
X176865Y-13294D01*
X178735Y-13294D01*
X178735Y-21664D01*
X178735Y-18216D02*
X176865Y-18216D01*
X176865Y-14768D02*
X178735Y-14768D01*
X186365Y-21664D02*
X188235Y-21664D01*
X186365Y-21664D02*
X186365Y-13294D01*
X188235Y-13294D01*
X188235Y-21664D01*
X188235Y-18216D02*
X186365Y-18216D01*
X186365Y-14768D02*
X188235Y-14768D01*
X188235Y-47666D02*
X186365Y-47666D01*
X186365Y-39296D01*
X188235Y-39296D01*
X188235Y-47666D01*
X188235Y-44218D02*
X186365Y-44218D01*
X186365Y-40770D02*
X188235Y-40770D01*
X169235Y-47666D02*
X167365Y-47666D01*
X167365Y-39296D01*
X169235Y-39296D01*
X169235Y-47666D01*
X169235Y-44218D02*
X167365Y-44218D01*
X167365Y-40770D02*
X169235Y-40770D01*
X176865Y-39296D02*
X178735Y-39296D01*
X178735Y-47666D01*
X176865Y-47666D01*
X176865Y-39296D01*
X176865Y-44218D02*
X178735Y-44218D01*
X178735Y-40770D02*
X176865Y-40770D01*
D11*
X169300Y0D03*
X186300Y0D03*
D16*
X-160900Y-22860D02*
X-160900Y-38100D01*
D17*
X156210Y-49530D03*
D16*
X153670Y-52070D01*
X152495Y-52070D02*
X16900Y-52070D01*
X152495Y-52070D02*
X153670Y-52070D01*
X-150740Y-48260D02*
X-160900Y-38100D01*
X-27940Y-34290D02*
X-16510Y-45720D01*
X10550Y-45720D02*
X16900Y-52070D01*
X-74930Y-48260D02*
X-150740Y-48260D01*
X-74930Y-48260D02*
X-60960Y-34290D01*
X-27940Y-34290D01*
X-16510Y-45720D02*
X10550Y-45720D01*
X-160900Y-38100D02*
X-180340Y-38100D01*
X-161900Y-5381D02*
X-161900Y-1880D01*
X-154940Y5080D01*
X-149860Y5080D01*
X-142900Y-1880D01*
X-142900Y-5381D01*
X-160900Y-6381D02*
X-161900Y-5381D01*
X-160900Y-6381D02*
X-160900Y-22860D01*
X152495Y-52070D02*
X156375Y-51786D01*
X156210Y-49530D01*
X154168Y-48558D02*
X152495Y-52070D01*
X154168Y-48558D02*
X156210Y-49530D01*
D17*
X10160Y17780D03*
X-96520Y17780D03*
D18*
X5660Y17780D02*
X10160Y17780D01*
X5660Y17780D02*
X-92020Y17780D01*
X-96520Y17780D01*
X5660Y17780D02*
X8455Y15597D01*
X10160Y17780D01*
X8455Y19963D02*
X5660Y17780D01*
X8455Y19963D02*
X10160Y17780D01*
X-92020Y17780D02*
X-94815Y19963D01*
X-96520Y17780D01*
X-94815Y15597D02*
X-92020Y17780D01*
X-94815Y15597D02*
X-96520Y17780D01*
D17*
X-53340Y0D03*
D18*
X-56522Y-3182D01*
X-56522Y-3182D01*
X-60960Y-7620D01*
X-67700Y-7620D01*
X-56522Y3182D02*
X-53340Y0D01*
X-56522Y3182D02*
X-56522Y3182D01*
X-60960Y7620D01*
X-67700Y7620D01*
X-56522Y-3182D02*
X-53002Y-2749D01*
X-53002Y-2749D01*
X-56522Y-3182D02*
X-56089Y338D01*
X-56089Y338D01*
X-56089Y-338D02*
X-56522Y3182D01*
X-56089Y-338D02*
X-56089Y-338D01*
X-56522Y3182D02*
X-53002Y2749D01*
X-53002Y2749D01*
X-56089Y338D02*
X-56089Y338D01*
X-53002Y2749D02*
X-53002Y2749D01*
X-53002Y-2749D02*
X-53002Y-2749D01*
X-53340Y0D01*
X-56089Y338D02*
X-56522Y-3182D01*
X-56089Y338D02*
X-53340Y0D01*
X-53002Y-2749D02*
X-56522Y-3182D01*
X-53002Y-2749D02*
X-53340Y0D01*
X-56089Y338D02*
X-56522Y-3182D01*
X-56089Y338D02*
X-53340Y0D01*
X-56089Y-338D02*
X-56089Y-338D01*
X-53340Y0D01*
X-53002Y2749D02*
X-56522Y3182D01*
X-53002Y2749D02*
X-53340Y0D01*
X-56089Y-338D02*
X-56522Y3182D01*
X-56089Y-338D02*
X-53340Y0D01*
X-53002Y2749D02*
X-56522Y3182D01*
X-53002Y2749D02*
X-53340Y0D01*
D17*
X-259080Y-53340D03*
X-193040Y-5080D03*
X-241300Y0D03*
X-205740Y53340D03*
X0Y0D03*
X-106680Y26670D03*
X12700Y-24130D03*
X-246380Y22860D03*
X-246380Y-22860D03*
X87630Y30480D03*
X119380Y-8890D03*
X92710Y43180D03*
X-246380Y-33020D03*
X-246380Y33020D03*
X-184150Y-22860D03*
X73660Y-27940D03*
X11430Y26670D03*
X114300Y43180D03*
X134620Y43180D03*
X152400Y-17780D03*
X55880Y6350D03*
X55880Y-6350D03*
X119380Y-35560D03*
X270510Y-25400D03*
X270510Y0D03*
X270510Y25400D03*
X-259080Y53340D03*
X180340Y49530D03*
X-116840Y0D03*
X-130810Y39370D03*
X152400Y63500D03*
X177800Y-45720D03*
X-5080Y-53340D03*
D16*
X-9580Y-53340D01*
X-9580Y-53340D01*
X-17780Y-53340D01*
X-27940Y-43180D01*
X-35950Y-43180D01*
D17*
X-31750Y3810D03*
X-193040Y5080D03*
D16*
X-188540Y5080D01*
X-188540Y5080D01*
X-182490Y5080D01*
X-178680Y8890D02*
X-172720Y8890D01*
X-166670Y8890D02*
X-162170Y8890D01*
X-166670Y8890D02*
X-166670Y8890D01*
X-172720Y8890D01*
X-178680Y8890D02*
X-182490Y5080D01*
D17*
X-162170Y8890D03*
D16*
X-150161Y20621D02*
X-152400Y22860D01*
X-152400Y29600D01*
X-157309Y34509D01*
X-160900Y38100D01*
X-163611Y35389D01*
X-163611Y35389D01*
X-172720Y26280D01*
X-172720Y8890D01*
X-160900Y38100D02*
X-160020Y38100D01*
D17*
X-160020Y38100D03*
X59690Y-25400D03*
X-78740Y38100D03*
X171450Y45720D03*
D16*
X168300Y42570D01*
X168300Y42506D02*
X168300Y40480D01*
X168300Y42506D02*
X168300Y42570D01*
X168750Y40480D02*
X167480Y39210D01*
X168300Y40480D02*
X168750Y40480D01*
X-172720Y8890D02*
X-172720Y-24710D01*
D17*
X-172720Y-29210D03*
D16*
X-172720Y-24710D02*
X-172720Y-24710D01*
X-172720Y-29210D01*
D17*
X171450Y-30480D03*
D16*
X185420Y12700D02*
X185420Y27940D01*
X182880Y30480D01*
X176210Y30480D01*
X167480Y39210D01*
D17*
X-129540Y0D03*
D16*
X-83240Y38100D02*
X-78740Y38100D01*
X-83240Y38100D02*
X-83240Y38100D01*
X-117801Y38100D01*
X-135280Y20621D01*
D17*
X0Y-36830D03*
D16*
X-11430Y-5080D02*
X-21590Y-5080D01*
X-26384Y-286D01*
X-26841Y171D01*
X-28568Y628D02*
X-31750Y3810D01*
X-31750Y4690D02*
X-31360Y5080D01*
X-31750Y4690D02*
X-31750Y3810D01*
X-11430Y-5080D02*
X0Y-16510D01*
X0Y-32330D01*
X0Y-32330D01*
X0Y-36830D01*
X-135280Y20621D02*
X-142900Y20621D01*
X-150161Y20621D01*
X-129540Y2540D02*
X-129540Y0D01*
X-129540Y2540D02*
X-131188Y4188D01*
X-142900Y15900D01*
X-142900Y20621D01*
X-27297Y3163D02*
X-26384Y-286D01*
X-27297Y3163D02*
X-27748Y4869D01*
X-29563Y4389D01*
X-28568Y628D02*
X-26841Y171D01*
X62671Y-28771D02*
X76746Y-42846D01*
X62671Y-28771D02*
X59300Y-25400D01*
X59690Y-25400D01*
X-21200Y27940D02*
X-36440Y43180D01*
X-21200Y27940D02*
X-14660Y27940D01*
D17*
X-10160Y27940D03*
D16*
X-14660Y27940D02*
X-14660Y27940D01*
X-10160Y27940D01*
X-163611Y35389D02*
X-163611Y35389D01*
X-159749Y35854D01*
X-159749Y35854D01*
X-163611Y35389D02*
X-162106Y38976D01*
X76746Y-42846D02*
X143844Y-42846D01*
X160020Y-9280D02*
X169300Y0D01*
X179460Y10160D02*
X182880Y10160D01*
X179460Y10160D02*
X169300Y0D01*
X182880Y10160D02*
X185420Y12700D01*
X177800Y-17479D02*
X177800Y-21289D01*
X175260Y-23829D01*
X175260Y-26369D01*
X174478Y-27151D01*
X171450Y-30179D01*
X171450Y-30480D01*
D17*
X156210Y-30480D03*
D16*
X153028Y-33662D01*
X143844Y-42846D01*
X160020Y-21590D02*
X160020Y-9280D01*
X160020Y-21590D02*
X156210Y-25400D01*
X156210Y-25980D02*
X156210Y-30480D01*
X156210Y-25980D02*
X156210Y-25980D01*
X156210Y-25400D01*
X-6217Y-55295D02*
X-9580Y-53340D01*
X-9580Y-53340D01*
X-6217Y-55295D01*
X-5080Y-53340D01*
X-9580Y-53340D02*
X-9580Y-53340D01*
X-6217Y-51385D01*
X-9580Y-53340D02*
X-6217Y-55295D01*
X-9580Y-53340D02*
X-9580Y-53340D01*
X-6217Y-51385D01*
X-5080Y-53340D01*
X-6217Y-55295D02*
X-9580Y-53340D01*
X-6217Y-51385D01*
X-9580Y-53340D02*
X-6217Y-55295D01*
X-5080Y-53340D01*
X-6217Y-51385D02*
X-9580Y-53340D01*
X-6217Y-51385D02*
X-5080Y-53340D01*
X-6217Y-55295D02*
X-9580Y-53340D01*
X-6217Y-55295D02*
X-5080Y-53340D01*
X-6217Y-51385D02*
X-9580Y-53340D01*
X-6217Y-51385D02*
X-5080Y-53340D01*
X-27297Y3163D02*
X-30344Y5582D01*
X-31750Y3810D01*
X-30906Y1711D02*
X-27297Y3163D01*
X-30906Y1711D02*
X-31750Y3810D01*
X-29563Y4389D02*
X-28568Y628D01*
X-29563Y4389D02*
X-31750Y3810D01*
X-32329Y1623D02*
X-28568Y628D01*
X-32329Y1623D02*
X-31750Y3810D01*
X-188540Y5080D02*
X-191903Y7035D01*
X-188540Y5080D02*
X-188540Y5080D01*
X-191903Y7035D01*
X-193040Y5080D01*
X-188540Y5080D02*
X-188540Y5080D01*
X-191903Y3125D01*
X-188540Y5080D02*
X-191903Y7035D01*
X-188540Y5080D02*
X-188540Y5080D01*
X-191903Y3125D01*
X-193040Y5080D01*
X-191903Y7035D02*
X-188540Y5080D01*
X-191903Y3125D01*
X-188540Y5080D02*
X-191903Y7035D01*
X-193040Y5080D01*
X-191903Y3125D02*
X-188540Y5080D01*
X-191903Y3125D02*
X-193040Y5080D01*
X-191903Y7035D02*
X-188540Y5080D01*
X-191903Y7035D02*
X-193040Y5080D01*
X-191903Y3125D02*
X-188540Y5080D01*
X-191903Y3125D02*
X-193040Y5080D01*
X-166670Y8890D02*
X-163307Y10845D01*
X-166670Y8890D02*
X-166670Y8890D01*
X-163307Y6935D01*
X-162170Y8890D01*
X-163307Y10845D02*
X-166670Y8890D01*
X-166670Y8890D01*
X-163307Y6935D01*
X-166670Y8890D02*
X-166670Y8890D01*
X-163307Y10845D01*
X-162170Y8890D01*
X-163307Y6935D02*
X-166670Y8890D01*
X-163307Y6935D02*
X-162170Y8890D01*
X-163307Y10845D02*
X-166670Y8890D01*
X-163307Y10845D02*
X-162170Y8890D01*
X-163307Y6935D02*
X-166670Y8890D01*
X-163307Y10845D01*
X-166670Y8890D02*
X-163307Y6935D01*
X-162170Y8890D01*
X-163307Y10845D02*
X-166670Y8890D01*
X-163307Y10845D02*
X-162170Y8890D01*
X-157309Y34509D02*
X-157309Y34509D01*
X-157774Y38371D01*
X-157774Y38371D01*
X-157309Y34509D02*
X-157309Y34509D01*
X-163611Y35389D02*
X-163611Y35389D01*
X-159749Y35854D01*
X-163611Y35389D02*
X-162106Y38976D01*
X-157774Y38371D02*
X-157309Y34509D01*
X-160896Y36014D01*
X-157309Y34509D02*
X-157774Y38371D01*
X-160020Y38100D01*
X-160896Y36014D02*
X-157309Y34509D01*
X-160896Y36014D02*
X-160020Y38100D01*
X-159749Y35854D02*
X-163611Y35389D01*
X-159749Y35854D02*
X-160020Y38100D01*
X-162106Y38976D02*
X-163611Y35389D01*
X-162106Y38976D02*
X-160020Y38100D01*
X61908Y-24956D02*
X62671Y-28771D01*
X61908Y-24956D02*
X59690Y-25400D01*
X58978Y-27547D02*
X62671Y-28771D01*
X58978Y-27547D02*
X59690Y-25400D01*
X-79877Y40055D02*
X-83240Y38100D01*
X-83240Y38100D01*
X-79877Y36145D01*
X-78740Y38100D01*
X-79877Y40055D02*
X-83240Y38100D01*
X-83240Y38100D01*
X-79877Y36145D01*
X-83240Y38100D02*
X-83240Y38100D01*
X-79877Y40055D01*
X-78740Y38100D01*
X-79877Y36145D02*
X-83240Y38100D01*
X-79877Y36145D02*
X-78740Y38100D01*
X-79877Y40055D02*
X-83240Y38100D01*
X-79877Y40055D02*
X-78740Y38100D01*
X-79877Y36145D02*
X-83240Y38100D01*
X-79877Y40055D01*
X-83240Y38100D02*
X-79877Y36145D01*
X-78740Y38100D01*
X-79877Y40055D02*
X-83240Y38100D01*
X-79877Y40055D02*
X-78740Y38100D01*
X168300Y42506D02*
X172051Y43539D01*
X171450Y45720D01*
X169258Y46277D02*
X168300Y42506D01*
X169258Y46277D02*
X171450Y45720D01*
X-172720Y-24710D02*
X-174675Y-28073D01*
X-172720Y-24710D02*
X-172720Y-24710D01*
X-174675Y-28073D01*
X-172720Y-29210D01*
X-172720Y-24710D02*
X-172720Y-24710D01*
X-170765Y-28073D01*
X-172720Y-24710D02*
X-174675Y-28073D01*
X-172720Y-24710D02*
X-172720Y-24710D01*
X-170765Y-28073D01*
X-172720Y-29210D01*
X-174675Y-28073D02*
X-172720Y-24710D01*
X-170765Y-28073D01*
X-172720Y-24710D02*
X-174675Y-28073D01*
X-172720Y-29210D01*
X-170765Y-28073D02*
X-172720Y-24710D01*
X-170765Y-28073D02*
X-172720Y-29210D01*
X-174675Y-28073D02*
X-172720Y-24710D01*
X-174675Y-28073D02*
X-172720Y-29210D01*
X-170765Y-28073D02*
X-172720Y-24710D01*
X-170765Y-28073D02*
X-172720Y-29210D01*
X170769Y-28323D02*
X174478Y-27151D01*
X170769Y-28323D02*
X171450Y-30480D01*
X173662Y-30955D02*
X174478Y-27151D01*
X173662Y-30955D02*
X171450Y-30480D01*
X-131188Y4188D02*
X-131776Y342D01*
X-129540Y0D01*
X-128137Y1774D02*
X-131188Y4188D01*
X-128137Y1774D02*
X-129540Y0D01*
X-1955Y-35693D02*
X0Y-32330D01*
X-1955Y-35693D02*
X0Y-36830D01*
X1955Y-35693D02*
X0Y-32330D01*
X-1955Y-35693D01*
X0Y-32330D02*
X1955Y-35693D01*
X0Y-36830D01*
X-1955Y-35693D02*
X0Y-32330D01*
X-1955Y-35693D02*
X0Y-36830D01*
X1955Y-35693D02*
X0Y-32330D01*
X1955Y-35693D02*
X0Y-36830D01*
X-1955Y-35693D02*
X0Y-32330D01*
X-1955Y-35693D02*
X0Y-36830D01*
X1955Y-35693D02*
X0Y-32330D01*
X1955Y-35693D02*
X0Y-36830D01*
X-14660Y27940D02*
X-14660Y27940D01*
X-11297Y25985D01*
X-14660Y27940D02*
X-11297Y29895D01*
X-10160Y27940D01*
X-11297Y25985D01*
X-14660Y27940D02*
X-11297Y29895D01*
X-10160Y27940D02*
X-11297Y25985D01*
X-10160Y27940D02*
X-11297Y29895D01*
X-10160Y27940D02*
X-11297Y25985D01*
X-10160Y27940D02*
X-11297Y29895D01*
X156210Y-25980D02*
X156210Y-25980D01*
X154255Y-29343D01*
X156210Y-30480D01*
X158165Y-29343D02*
X156210Y-25980D01*
X158165Y-29343D02*
X156210Y-30480D01*
X156789Y-32667D02*
X153028Y-33662D01*
X156789Y-32667D02*
X156210Y-30480D01*
X154023Y-29901D02*
X153028Y-33662D01*
X154023Y-29901D02*
X156210Y-30480D01*
X154255Y-29343D02*
X156210Y-25980D01*
X154255Y-29343D02*
X156210Y-30480D01*
X158165Y-29343D02*
X156210Y-25980D01*
X158165Y-29343D02*
X156210Y-30480D01*
X154255Y-29343D02*
X156210Y-25980D01*
X154255Y-29343D02*
X156210Y-30480D01*
X158165Y-29343D02*
X156210Y-25980D01*
X158165Y-29343D02*
X156210Y-30480D01*
D17*
X30480Y12700D03*
X169300Y10795D03*
D18*
X169300Y15295D01*
X169300Y15295D01*
X169300Y19050D01*
X157480Y31594D01*
X157480Y41910D01*
X148590Y50800D01*
X35560Y50800D01*
X27298Y15882D02*
X30480Y12700D01*
X27298Y15882D02*
X27298Y15882D01*
X25400Y17780D01*
X25400Y40640D01*
X35560Y50800D01*
X27298Y15882D02*
X27298Y15882D01*
X27731Y12362D01*
X27731Y12362D01*
X27298Y15882D02*
X30818Y15449D01*
X30818Y15449D01*
X27298Y15882D01*
X30818Y15449D02*
X30480Y12700D01*
X27731Y12362D02*
X27298Y15882D01*
X27731Y12362D02*
X27731Y12362D01*
X27298Y15882D02*
X27298Y15882D01*
X30818Y15449D01*
X27298Y15882D02*
X27731Y12362D01*
X30480Y12700D01*
X30818Y15449D02*
X27298Y15882D01*
X30818Y15449D02*
X30480Y12700D01*
X27731Y12362D02*
X27298Y15882D01*
X27731Y12362D02*
X30480Y12700D01*
X30818Y15449D02*
X27298Y15882D01*
X30818Y15449D02*
X30480Y12700D01*
X167117Y12500D02*
X169300Y15295D01*
X169300Y15295D01*
X167117Y12500D01*
X169300Y10795D01*
X171483Y12500D02*
X169300Y15295D01*
X169300Y15295D01*
X167117Y12500D01*
X169300Y15295D02*
X169300Y15295D01*
X171483Y12500D01*
X171483Y12500D01*
X169300Y15295D01*
X171483Y12500D02*
X169300Y10795D01*
X167117Y12500D02*
X169300Y15295D01*
X167117Y12500D02*
X169300Y10795D01*
X171483Y12500D02*
X169300Y15295D01*
X171483Y12500D02*
X171483Y12500D01*
X169300Y15295D02*
X167117Y12500D01*
X167117Y12500D01*
X169300Y10795D01*
X171483Y12500D02*
X169300Y15295D01*
X171483Y12500D02*
X169300Y10795D01*
X167117Y12500D02*
X169300Y15295D01*
X167117Y12500D02*
X169300Y10795D01*
X171483Y12500D02*
X169300Y15295D01*
X171483Y12500D02*
X169300Y10795D01*
D16*
X177800Y20480D02*
X168910Y29370D01*
X166210Y29370D01*
X161990Y33590D01*
X149797Y55880D02*
X33020Y55880D01*
D17*
X27940Y0D03*
D16*
X24758Y3182D01*
X20320Y7620D01*
X161990Y33590D02*
X161990Y43687D01*
X149797Y55880D01*
X27940Y0D02*
X27550Y0D01*
X20320Y43180D02*
X33020Y55880D01*
X20320Y43180D02*
X20320Y7620D01*
X24758Y3182D02*
X25753Y-579D01*
X27940Y0D01*
X28519Y2187D02*
X24758Y3182D01*
X28519Y2187D02*
X27940Y0D01*
D17*
X0Y38100D03*
D18*
X-3182Y41282D01*
X-3182Y41282D01*
X-5080Y43180D01*
X-5080Y55880D01*
X0Y60960D01*
X22860Y60960D02*
X29479Y67579D01*
X38100Y76200D01*
X22860Y60960D02*
X0Y60960D01*
D19*
X29479Y67579D02*
X38755Y68353D01*
X38100Y76200D01*
X30253Y76855D02*
X29479Y67579D01*
X30253Y76855D02*
X38100Y76200D01*
D18*
X-3182Y41282D02*
X-2749Y37762D01*
X-2749Y37762D01*
X-3182Y41282D02*
X338Y40849D01*
X338Y40849D01*
X338Y40849D01*
X-2749Y37762D02*
X-2749Y37762D01*
X0Y38100D01*
X338Y40849D02*
X-3182Y41282D01*
X338Y40849D02*
X0Y38100D01*
X-2749Y37762D02*
X-3182Y41282D01*
X-2749Y37762D02*
X0Y38100D01*
X338Y40849D02*
X-3182Y41282D01*
X338Y40849D02*
X0Y38100D01*
D17*
X2540Y53340D03*
D18*
X12700Y55880D02*
X25400Y55880D01*
X7040Y53340D02*
X2540Y53340D01*
X7040Y53340D02*
X7040Y53340D01*
X10160Y53340D01*
X12700Y55880D01*
X30480Y60960D02*
X48260Y60960D01*
X54879Y67579D01*
X63500Y76200D01*
X30480Y60960D02*
X25400Y55880D01*
D19*
X54879Y67579D02*
X64155Y68353D01*
X63500Y76200D01*
X55653Y76855D02*
X54879Y67579D01*
X55653Y76855D02*
X63500Y76200D01*
D18*
X7040Y53340D02*
X4245Y55523D01*
X7040Y53340D02*
X4245Y51157D01*
X7040Y53340D02*
X7040Y53340D01*
X4245Y55523D01*
X4245Y55523D01*
X7040Y53340D02*
X7040Y53340D01*
X4245Y55523D01*
X7040Y53340D02*
X7040Y53340D01*
X4245Y51157D01*
X2540Y53340D01*
X4245Y55523D02*
X7040Y53340D01*
X4245Y55523D02*
X4245Y55523D01*
X7040Y53340D01*
X4245Y55523D02*
X2540Y53340D01*
X4245Y51157D02*
X7040Y53340D01*
X4245Y51157D02*
X4245Y51157D01*
X4245Y51157D01*
X2540Y53340D01*
X4245Y55523D02*
X7040Y53340D01*
X4245Y55523D02*
X2540Y53340D01*
X4245Y51157D02*
X7040Y53340D01*
X4245Y51157D02*
X2540Y53340D01*
X4245Y55523D02*
X7040Y53340D01*
X4245Y55523D02*
X2540Y53340D01*
X4245Y51157D02*
X7040Y53340D01*
X4245Y51157D02*
X2540Y53340D01*
D20*
X187300Y40480D02*
X187829Y41009D01*
X190000Y43180D01*
X191770Y43180D01*
D17*
X191770Y43180D03*
D20*
X191544Y40674D02*
X187829Y41009D01*
X191544Y40674D02*
X191770Y43180D01*
X189531Y44328D02*
X187829Y41009D01*
X189531Y44328D02*
X191770Y43180D01*
D17*
X5080Y-53340D03*
D18*
X8262Y-56522D02*
X8890Y-57150D01*
X8262Y-56522D02*
X8262Y-56522D01*
X5080Y-53340D01*
X7829Y-53002D02*
X8262Y-56522D01*
X7829Y-53002D02*
X7829Y-53002D01*
X8262Y-56522D02*
X4742Y-56089D01*
X4742Y-56089D01*
X187300Y-47291D02*
X187300Y-43481D01*
X187300Y-47291D02*
X180950Y-53641D01*
X161599Y-53641D01*
X158090Y-57150D01*
X8890Y-57150D01*
X194920Y-17479D02*
X199699Y-12700D01*
X194920Y-17479D02*
X187300Y-17479D01*
X199699Y-12700D02*
X215900Y-12700D01*
X187300Y-17479D02*
X187300Y-43481D01*
X4742Y-56089D02*
X4742Y-56089D01*
X7829Y-53002D02*
X7829Y-53002D01*
X5080Y-53340D01*
X4742Y-56089D02*
X8262Y-56522D01*
X4742Y-56089D02*
X5080Y-53340D01*
X7829Y-53002D02*
X8262Y-56522D01*
X4742Y-56089D01*
X5080Y-53340D01*
D17*
X6350Y-30480D03*
D18*
X9532Y-33662D02*
X9532Y-33662D01*
X22860Y-46990D01*
X194945Y-8255D02*
X207279Y4079D01*
X215900Y12700D01*
D19*
X216555Y4853D02*
X207279Y4079D01*
X216555Y4853D02*
X215900Y12700D01*
X208053Y13355D02*
X207279Y4079D01*
X208053Y13355D02*
X215900Y12700D01*
D18*
X9099Y-30142D02*
X9532Y-33662D01*
X9099Y-30142D02*
X9099Y-30142D01*
X9532Y-33662D02*
X6012Y-33229D01*
X6012Y-33229D01*
X174625Y-8255D02*
X194945Y-8255D01*
X174625Y-8255D02*
X168300Y-14580D01*
X168300Y-17479D01*
X148590Y-46990D02*
X22860Y-46990D01*
X168300Y-20930D02*
X168300Y-17479D01*
X168300Y-20930D02*
X163830Y-25400D01*
X168300Y-40030D02*
X168300Y-43481D01*
X163830Y-35560D02*
X163830Y-25400D01*
X163830Y-35560D02*
X168300Y-40030D01*
X154940Y-40640D02*
X148590Y-46990D01*
X154940Y-40640D02*
X158750Y-40640D01*
X163830Y-35560D01*
X6012Y-33229D02*
X6012Y-33229D01*
X8533Y-32185D02*
X6350Y-30480D01*
X9099Y-30142D02*
X9099Y-30142D01*
X6350Y-30480D01*
X6012Y-33229D02*
X9532Y-33662D01*
X6012Y-33229D02*
X6350Y-30480D01*
X9099Y-30142D02*
X9532Y-33662D01*
X9099Y-30142D02*
X6350Y-30480D01*
X6012Y-33229D02*
X9532Y-33662D01*
D21*
X-279400Y69850D03*
X-279400Y-69850D03*
X279400Y-69850D03*
X279400Y69850D03*
D17*
X-10160Y-27940D03*
X-129540Y-33020D03*
D18*
X-120650Y-29210D02*
X-72390Y-29210D01*
X-120650Y-29210D02*
X-124460Y-33020D01*
X-125040Y-33020D01*
X-125040Y-33020D01*
X-129540Y-33020D01*
X-14660Y-27940D02*
X-10160Y-27940D01*
X-14660Y-27940D02*
X-14660Y-27940D01*
X-20320Y-27940D01*
X-24130Y-24130D01*
X-67310Y-24130D01*
X-72390Y-29210D01*
X-14660Y-27940D02*
X-11865Y-30123D01*
X-14660Y-27940D02*
X-11865Y-25757D01*
X-14660Y-27940D02*
X-14660Y-27940D01*
X-11865Y-30123D01*
X-11865Y-30123D01*
X-14660Y-27940D02*
X-14660Y-27940D01*
X-11865Y-30123D01*
X-14660Y-27940D02*
X-14660Y-27940D01*
X-11865Y-25757D01*
X-10160Y-27940D01*
X-11865Y-30123D02*
X-14660Y-27940D01*
X-11865Y-30123D02*
X-11865Y-30123D01*
X-14660Y-27940D01*
X-11865Y-30123D02*
X-10160Y-27940D01*
X-11865Y-25757D02*
X-14660Y-27940D01*
X-11865Y-25757D02*
X-11865Y-25757D01*
X-11865Y-25757D01*
X-10160Y-27940D01*
X-11865Y-30123D02*
X-14660Y-27940D01*
X-11865Y-30123D02*
X-10160Y-27940D01*
X-11865Y-25757D02*
X-14660Y-27940D01*
X-11865Y-25757D02*
X-10160Y-27940D01*
X-11865Y-30123D02*
X-14660Y-27940D01*
X-11865Y-30123D02*
X-10160Y-27940D01*
X-11865Y-25757D02*
X-14660Y-27940D01*
X-11865Y-25757D02*
X-10160Y-27940D01*
X-125040Y-33020D02*
X-127835Y-30837D01*
X-125040Y-33020D02*
X-125040Y-33020D01*
X-127835Y-30837D01*
X-129540Y-33020D01*
X-127835Y-35203D02*
X-125040Y-33020D01*
X-125040Y-33020D01*
X-127835Y-30837D01*
X-125040Y-33020D02*
X-125040Y-33020D01*
X-127835Y-35203D01*
X-127835Y-35203D01*
X-125040Y-33020D01*
X-127835Y-35203D02*
X-129540Y-33020D01*
X-127835Y-30837D02*
X-125040Y-33020D01*
X-127835Y-30837D02*
X-129540Y-33020D01*
X-127835Y-35203D02*
X-125040Y-33020D01*
X-127835Y-35203D02*
X-127835Y-35203D01*
X-125040Y-33020D02*
X-127835Y-30837D01*
X-127835Y-30837D01*
X-129540Y-33020D01*
X-127835Y-35203D02*
X-125040Y-33020D01*
X-127835Y-35203D02*
X-129540Y-33020D01*
X-127835Y-30837D02*
X-125040Y-33020D01*
X-127835Y-30837D02*
X-129540Y-33020D01*
X-127835Y-35203D02*
X-125040Y-33020D01*
X-127835Y-35203D02*
X-129540Y-33020D01*
D17*
X-17780Y-20320D03*
X-129540Y-22860D03*
D18*
X-120650Y-25400D02*
X-76200Y-25400D01*
X-120650Y-25400D02*
X-123190Y-22860D01*
X-125040Y-22860D01*
X-125040Y-22860D01*
X-129540Y-22860D01*
X-22280Y-20320D02*
X-17780Y-20320D01*
X-22280Y-20320D02*
X-22280Y-20320D01*
X-71120Y-20320D01*
X-76200Y-25400D01*
X-22280Y-20320D02*
X-19485Y-22503D01*
X-22280Y-20320D02*
X-19485Y-18137D01*
X-22280Y-20320D02*
X-22280Y-20320D01*
X-19485Y-22503D01*
X-19485Y-22503D01*
X-22280Y-20320D02*
X-22280Y-20320D01*
X-19485Y-22503D01*
X-22280Y-20320D02*
X-22280Y-20320D01*
X-19485Y-18137D01*
X-17780Y-20320D01*
X-19485Y-22503D02*
X-22280Y-20320D01*
X-19485Y-22503D02*
X-19485Y-22503D01*
X-22280Y-20320D01*
X-19485Y-22503D02*
X-17780Y-20320D01*
X-19485Y-18137D02*
X-22280Y-20320D01*
X-19485Y-18137D02*
X-19485Y-18137D01*
X-19485Y-18137D01*
X-17780Y-20320D01*
X-19485Y-22503D02*
X-22280Y-20320D01*
X-19485Y-22503D02*
X-17780Y-20320D01*
X-19485Y-18137D02*
X-22280Y-20320D01*
X-19485Y-18137D02*
X-17780Y-20320D01*
X-19485Y-22503D02*
X-22280Y-20320D01*
X-19485Y-22503D02*
X-17780Y-20320D01*
X-19485Y-18137D02*
X-22280Y-20320D01*
X-19485Y-18137D02*
X-17780Y-20320D01*
X-125040Y-22860D02*
X-127835Y-20677D01*
X-125040Y-22860D02*
X-125040Y-22860D01*
X-127835Y-20677D01*
X-129540Y-22860D01*
X-127835Y-25043D02*
X-125040Y-22860D01*
X-125040Y-22860D01*
X-127835Y-20677D01*
X-125040Y-22860D02*
X-125040Y-22860D01*
X-127835Y-25043D01*
X-127835Y-25043D01*
X-125040Y-22860D01*
X-127835Y-25043D02*
X-129540Y-22860D01*
X-127835Y-20677D02*
X-125040Y-22860D01*
X-127835Y-20677D02*
X-129540Y-22860D01*
X-127835Y-25043D02*
X-125040Y-22860D01*
X-127835Y-25043D02*
X-127835Y-25043D01*
X-125040Y-22860D02*
X-127835Y-20677D01*
X-127835Y-20677D01*
X-129540Y-22860D01*
X-127835Y-25043D02*
X-125040Y-22860D01*
X-127835Y-25043D02*
X-129540Y-22860D01*
X-127835Y-20677D02*
X-125040Y-22860D01*
X-127835Y-20677D02*
X-129540Y-22860D01*
X-127835Y-25043D02*
X-125040Y-22860D01*
X-127835Y-25043D02*
X-129540Y-22860D01*
X-86360Y-7620D02*
X-84700Y-7620D01*
X-86360Y-7620D02*
X-93338Y-14598D01*
D17*
X-96520Y-17780D03*
D18*
X-93338Y-14598D01*
X-96858Y-15031D02*
X-96858Y-15031D01*
X-93771Y-18118D02*
X-93771Y-18118D01*
X-93338Y-14598D02*
X-96858Y-15031D01*
X-96858Y-15031D01*
X-93338Y-14598D02*
X-93771Y-18118D01*
X-96520Y-17780D01*
X-96858Y-15031D02*
X-93338Y-14598D01*
X-96858Y-15031D02*
X-96520Y-17780D01*
X-93338Y-14598D02*
X-93338Y-14598D01*
X-96858Y-15031D01*
X-93338Y-14598D02*
X-93338Y-14598D01*
X-93771Y-18118D01*
X-93338Y-14598D02*
X-96858Y-15031D01*
X-96520Y-17780D01*
X-93771Y-18118D02*
X-93338Y-14598D01*
X-93771Y-18118D02*
X-96520Y-17780D01*
X-96858Y-15031D02*
X-93338Y-14598D01*
X-96858Y-15031D02*
X-96520Y-17780D01*
X-93771Y-18118D02*
X-93338Y-14598D01*
X-93771Y-18118D02*
X-96520Y-17780D01*
D17*
X-193040Y-49530D03*
D16*
X-204470Y-38100D02*
X-205740Y-38100D01*
X-196222Y-46348D02*
X-193040Y-49530D01*
X-196222Y-46348D02*
X-204470Y-38100D01*
X-196222Y-46348D02*
X-195227Y-50109D01*
X-193040Y-49530D01*
X-192461Y-47343D02*
X-196222Y-46348D01*
X-192461Y-47343D02*
X-193040Y-49530D01*
D17*
X-287020Y22860D03*
X-287020Y-22860D03*
X-54610Y48260D03*
D18*
X-59110Y48260D01*
X-59110Y48260D01*
X-59860Y48260D01*
X-59860Y48260D01*
X-125730Y48260D01*
X-59860Y48260D02*
X-59860Y48260D01*
X-59076Y47709D02*
X-56347Y45790D01*
X-56347Y45790D01*
X-59860Y48260D02*
X-56347Y50730D01*
X-56347Y50730D01*
X-59076Y47709D02*
X-59860Y48260D01*
X-59076Y47709D02*
X-56347Y45790D01*
X-56347Y45790D01*
X-54610Y48260D01*
X-59076Y48811D02*
X-59860Y48260D01*
X-59076Y48811D02*
X-56347Y50730D01*
X-54610Y48260D01*
X-59076Y47709D02*
X-59860Y48260D01*
X-59076Y47709D02*
X-56347Y45790D01*
X-54610Y48260D01*
X-59076Y48811D02*
X-59860Y48260D01*
X-59076Y48811D02*
X-56347Y50730D01*
X-54610Y48260D01*
X-56035Y45885D02*
X-59076Y47709D01*
X-59076Y48811D02*
X-56035Y50635D01*
X-125730Y48260D02*
X-129540Y52070D01*
X-170570Y52070D02*
X-184540Y38100D01*
X-170570Y52070D02*
X-129540Y52070D01*
X-59110Y48260D02*
X-59110Y48260D01*
X-56315Y46077D01*
X-59110Y48260D02*
X-56315Y50443D01*
X-59076Y48811D02*
X-56570Y46302D01*
X-54610Y48260D01*
X-56035Y50635D02*
X-59076Y48811D01*
X-56035Y50635D02*
X-56035Y50635D01*
X-54610Y48260D01*
X-56570Y50218D02*
X-59076Y47709D01*
X-56570Y50218D02*
X-56570Y50218D01*
X-59110Y48260D02*
X-56315Y46077D01*
X-54610Y48260D01*
X-56315Y50443D02*
X-59110Y48260D01*
X-56315Y50443D02*
X-54610Y48260D01*
X-56315Y46077D02*
X-59110Y48260D01*
X-56315Y46077D02*
X-54610Y48260D01*
X-56315Y50443D02*
X-59110Y48260D01*
X-56315Y50443D02*
X-54610Y48260D01*
X-56035Y45885D02*
X-59076Y47709D01*
X-56035Y45885D02*
X-56035Y45885D01*
X-54610Y48260D01*
X-56570Y50218D02*
X-59076Y47709D01*
X-56570Y50218D02*
X-54610Y48260D01*
X-56570Y46302D02*
X-59076Y48811D01*
X-56035Y50635D01*
X-59076Y47709D02*
X-56035Y45885D01*
X-54610Y48260D01*
X-56570Y50218D02*
X-59076Y47709D01*
X-56570Y50218D02*
X-54610Y48260D01*
X-56570Y46302D02*
X-59076Y48811D01*
X-56570Y46302D02*
X-56570Y46302D01*
X-54610Y48260D01*
X-56035Y50635D02*
X-59076Y48811D01*
X-56035Y50635D02*
X-54610Y48260D01*
X-56035Y45885D02*
X-59076Y47709D01*
X-56035Y45885D02*
X-54610Y48260D01*
X-56570Y50218D02*
X-59076Y47709D01*
X-56570Y50218D02*
X-54610Y48260D01*
X-56570Y46302D02*
X-59076Y48811D01*
X-56570Y46302D02*
X-54610Y48260D01*
X-56035Y50635D02*
X-59076Y48811D01*
X-56035Y50635D02*
X-54610Y48260D01*
D16*
X-11820Y35560D02*
X-7620Y35560D01*
X-11820Y35560D02*
X-19440Y43180D01*
X-7620Y35560D02*
X-3182Y31122D01*
D17*
X0Y27940D03*
D16*
X-3182Y31122D01*
D17*
X40386Y44704D03*
D16*
X40776Y44704D02*
X42300Y43180D01*
D20*
X40776Y44704D02*
X40386Y44704D01*
D16*
X-3182Y31122D02*
X-2187Y27361D01*
X0Y27940D01*
X579Y30127D02*
X-3182Y31122D01*
X579Y30127D02*
X0Y27940D01*
D17*
X59300Y43180D03*
D20*
X63800Y43180D01*
X63800Y43180D01*
X75320Y43180D01*
X60707Y41094D02*
X60707Y41094D01*
X60707Y41094D01*
X63800Y43180D02*
X60707Y45266D01*
X63800Y43180D01*
X60707Y45266D02*
X60707Y45266D01*
X59300Y43180D01*
X60707Y41094D02*
X63800Y43180D01*
X60707Y41094D02*
X59300Y43180D01*
X60707Y41094D02*
X60707Y41094D01*
X63800Y43180D02*
X60707Y45266D01*
X59300Y43180D01*
X60707Y41094D02*
X63800Y43180D01*
X60707Y41094D02*
X60707Y41094D01*
X59300Y43180D01*
X60707Y45266D02*
X63800Y43180D01*
X60707Y45266D02*
X59300Y43180D01*
X63800Y43180D02*
X63800Y43180D01*
X60707Y41094D01*
X59300Y43180D01*
X60707Y45266D02*
X63800Y43180D01*
X60707Y45266D02*
X59300Y43180D01*
X60707Y41094D02*
X63800Y43180D01*
X60707Y41094D02*
X59300Y43180D01*
D18*
X-201540Y38100D02*
X-215900Y52460D01*
X-215900Y64008D01*
D19*
X-209888Y71115D01*
X-215900Y64008D02*
X-221912Y71115D01*
X-215900Y76200D02*
X-215900Y64008D01*
X-221912Y71115D02*
X-215900Y76200D01*
X-209888Y71115D01*
M02*
