M48
;GenerationSoftware,Autodesk,EAGLE,9.6.2*%
;CreationDate,2020-08-14T09:48:33Z*%
FMAT,2
ICI,OFF
METRIC,TZ,000.000
T4C0.300
T3C0.650
T2C1.016
T1C2.100
%
G90
M71
T1
X27940Y6985
X-27940Y6985
X-27940Y-6985
X27940Y-6985
T2
X6350Y-7620
X8890Y-7620
X11430Y-7620
X13970Y-7620
X16510Y-7620
X19050Y-7620
X21590Y-7620
X24130Y-7620
X21590Y3810
X21590Y1270
X21590Y-1270
X3810Y7620
X21590Y-3810
X-24130Y7620
X-21590Y7620
X-19050Y7620
X-16510Y7620
X-13970Y7620
X-11430Y7620
X-8890Y7620
X-6350Y7620
X-3810Y7620
X-1270Y7620
X1270Y7620
X6350Y7620
X8890Y7620
X11430Y7620
X13970Y7620
X16510Y7620
X19050Y7620
X21590Y7620
X24130Y7620
X-24130Y-7620
X-21590Y-7620
X-19050Y-7620
X-16510Y-7620
X-13970Y-7620
X-11430Y-7620
X-8890Y-7620
X-6350Y-7620
X-3810Y-7620
X3810Y-7620
X-1270Y-7620
X1270Y-7620
T3
X-23670Y-2890
X-23670Y2890
T4
X15621Y-4953
X1016Y1778
X-9652Y1778
X-5334Y0
X-25908Y-5334
X-19304Y-508
X-24130Y0
X-20574Y5334
X0Y0
X-10668Y2667
X1270Y-2413
X-24638Y2286
X-1016Y-2794
X-12954Y-3302
X-1778Y-2032
X-12954Y-2286
X-9652Y-1778
X-19304Y-4953
X-28702Y2286
X-28702Y-2286
X-5461Y4826
X0Y2794
X4039Y4470
X5930Y4318
X635Y-3048
X17145Y-3048
X508Y-5334
X19177Y4318
X254Y5334
X0Y3810
X2794Y0
X16930Y1080
X3048Y1270
X15621Y-3048
X-1016Y2794
X0Y-3683
X-12954Y0
X-17272Y-2921
X17145Y4572
X-7874Y3810
X5969Y-2540
X-16002Y3810
X-16217Y889
X-19304Y508
X-3175Y381
X-508Y-5334
X17780Y-4572
X15240Y6350
X-13081Y3937
X-11684Y0
X18034Y4953
X-25908Y5334
X27051Y2540
X27051Y0
X9271Y4318
X27051Y-2540
X11938Y-3556
X5588Y-635
X5588Y635
X15240Y-1778
X13462Y4318
X11430Y4318
X1143Y2667
X7366Y-2794
X-18415Y-2286
X-24638Y3302
X-24638Y-3302
X11938Y-889
X8763Y3048
X-24638Y-2286
M30