G04 EAGLE Gerber RS-274X export*
G75*
%MOMM*%
%FSLAX34Y34*%
%LPD*%
%INSolderpaste Bottom*%
%IPPOS*%
%AMOC8*
5,1,8,0,0,1.08239X$1,22.5*%
G01*
%ADD10R,1.100000X1.000000*%
%ADD11R,0.635000X1.016000*%
%ADD12C,0.240000*%
%ADD13C,0.363000*%


D10*
X-160900Y38100D03*
X-143900Y38100D03*
D11*
X177800Y20480D03*
X187300Y40480D03*
X168300Y40480D03*
D10*
X27550Y0D03*
X10550Y0D03*
X-67700Y-7620D03*
X-84700Y-7620D03*
X-67700Y7620D03*
X-84700Y7620D03*
X-160900Y-22860D03*
X-143900Y-22860D03*
X59300Y43180D03*
X42300Y43180D03*
X-14360Y5080D03*
X-31360Y5080D03*
X-52950Y-43180D03*
X-35950Y-43180D03*
X42300Y-25400D03*
X59300Y-25400D03*
X-160900Y-38100D03*
X-143900Y-38100D03*
D12*
X-176540Y-35300D02*
X-184140Y-35300D01*
X-176540Y-35300D02*
X-176540Y-40900D01*
X-184140Y-40900D01*
X-184140Y-35300D01*
X-184140Y-38620D02*
X-176540Y-38620D01*
X-176540Y-36340D02*
X-184140Y-36340D01*
X-201940Y-35300D02*
X-209540Y-35300D01*
X-201940Y-35300D02*
X-201940Y-40900D01*
X-209540Y-40900D01*
X-209540Y-35300D01*
X-209540Y-38620D02*
X-201940Y-38620D01*
X-201940Y-36340D02*
X-209540Y-36340D01*
D13*
X-143835Y-1196D02*
X-141965Y-1196D01*
X-141965Y-9566D01*
X-143835Y-9566D01*
X-143835Y-1196D01*
X-143835Y-6118D02*
X-141965Y-6118D01*
X-141965Y-2670D02*
X-143835Y-2670D01*
X-151465Y-1196D02*
X-153335Y-1196D01*
X-151465Y-1196D02*
X-151465Y-9566D01*
X-153335Y-9566D01*
X-153335Y-1196D01*
X-153335Y-6118D02*
X-151465Y-6118D01*
X-151465Y-2670D02*
X-153335Y-2670D01*
X-160965Y-1196D02*
X-162835Y-1196D01*
X-160965Y-1196D02*
X-160965Y-9566D01*
X-162835Y-9566D01*
X-162835Y-1196D01*
X-162835Y-6118D02*
X-160965Y-6118D01*
X-160965Y-2670D02*
X-162835Y-2670D01*
X-162835Y24806D02*
X-160965Y24806D01*
X-160965Y16436D01*
X-162835Y16436D01*
X-162835Y24806D01*
X-162835Y19884D02*
X-160965Y19884D01*
X-160965Y23332D02*
X-162835Y23332D01*
X-143835Y24806D02*
X-141965Y24806D01*
X-141965Y16436D01*
X-143835Y16436D01*
X-143835Y24806D01*
X-143835Y19884D02*
X-141965Y19884D01*
X-141965Y23332D02*
X-143835Y23332D01*
D10*
X-184540Y38100D03*
X-201540Y38100D03*
X-19440Y43180D03*
X-36440Y43180D03*
X75320Y43180D03*
X92320Y43180D03*
D13*
X167365Y-21664D02*
X169235Y-21664D01*
X167365Y-21664D02*
X167365Y-13294D01*
X169235Y-13294D01*
X169235Y-21664D01*
X169235Y-18216D02*
X167365Y-18216D01*
X167365Y-14768D02*
X169235Y-14768D01*
X176865Y-21664D02*
X178735Y-21664D01*
X176865Y-21664D02*
X176865Y-13294D01*
X178735Y-13294D01*
X178735Y-21664D01*
X178735Y-18216D02*
X176865Y-18216D01*
X176865Y-14768D02*
X178735Y-14768D01*
X186365Y-21664D02*
X188235Y-21664D01*
X186365Y-21664D02*
X186365Y-13294D01*
X188235Y-13294D01*
X188235Y-21664D01*
X188235Y-18216D02*
X186365Y-18216D01*
X186365Y-14768D02*
X188235Y-14768D01*
X188235Y-47666D02*
X186365Y-47666D01*
X186365Y-39296D01*
X188235Y-39296D01*
X188235Y-47666D01*
X188235Y-44218D02*
X186365Y-44218D01*
X186365Y-40770D02*
X188235Y-40770D01*
X169235Y-47666D02*
X167365Y-47666D01*
X167365Y-39296D01*
X169235Y-39296D01*
X169235Y-47666D01*
X169235Y-44218D02*
X167365Y-44218D01*
X167365Y-40770D02*
X169235Y-40770D01*
X176865Y-39296D02*
X178735Y-39296D01*
X178735Y-47666D01*
X176865Y-47666D01*
X176865Y-39296D01*
X176865Y-44218D02*
X178735Y-44218D01*
X178735Y-40770D02*
X176865Y-40770D01*
D10*
X169300Y0D03*
X186300Y0D03*
M02*
