M48
;GenerationSoftware,Autodesk,EAGLE,9.6.2*%
;CreationDate,2020-08-14T05:19:01Z*%
FMAT,2
ICI,OFF
METRIC,TZ,000.000
T8C0.300
T7C0.400
T6C0.500
T5C0.650
T4C1.000
T3C1.016
T2C2.100
T1C2.500
%
G90
M71
T1
X64183Y14474
X64183Y-14526
X34683Y14474
X34683Y-14526
T2
X-27940Y-6985
X27940Y-6985
X27940Y6985
X-27940Y6985
T3
X11430Y-7620
X13970Y-7620
X16510Y-7620
X19050Y-7620
X21590Y-7620
X-11430Y7620
X-1270Y-7620
X1270Y-7620
X3810Y-7620
X6350Y-7620
X8890Y-7620
X-6350Y-7620
X21590Y3810
X-8890Y-7620
X21590Y1270
X21590Y-1270
X21590Y-3810
X-24130Y7620
X-21590Y7620
X-19050Y7620
X-16510Y7620
X-13970Y7620
X-8890Y7620
X-6350Y7620
X-3810Y7620
X-1270Y7620
X1270Y7620
X3810Y7620
X24130Y-7620
X6350Y7620
X8890Y7620
X11430Y7620
X13970Y7620
X16510Y7620
X19050Y7620
X21590Y7620
X-24130Y-7620
X-21590Y-7620
X-19050Y-7620
X-16510Y-7620
X-13970Y-7620
X-11430Y-7620
X24130Y7620
X-3810Y-7620
T4
X34753Y8864
X34753Y6324
X34753Y3784
X34753Y1244
X34753Y-1296
X34753Y-3836
X34753Y-6376
X34753Y-8916
T5
X-23670Y2890
X-23670Y-2890
T6
X53213Y12700
X58293Y-4191
X48260Y3429
X44958Y10795
X50546Y3683
X43561Y9906
T7
X58323Y-2286
X38989Y4826
X38989Y-4572
X43815Y-10160
X39751Y-10160
X46355Y-10668
X58091Y-7974
X58091Y8026
X54229Y-11684
X50927Y-5334
X50165Y-11938
X49149Y4318
X49149Y-1016
X37719Y6604
X42291Y-5588
X42291Y-3048
X50419Y-10668
X50673Y-1016
X58928Y-1016
X50927Y-3048
X42545Y-1524
X49911Y-2032
X44577Y-1524
X40767Y0
X40767Y-2286
X46609Y-1016
X58323Y762
X41783Y-11430
X41275Y-13716
X43053Y4318
T8
X1016Y1778
X-9652Y1778
X-5334Y0
X-25908Y-5334
X-19304Y-508
X-24130Y0
X-20574Y5334
X254Y5334
X0Y2794
X-5461Y4826
X-28702Y-2286
X-28702Y2286
X5930Y4318
X4039Y4470
X-19304Y-4953
X-9652Y-1778
X-12954Y-2286
X-1778Y-2032
X-12954Y-3302
X-1016Y-2794
X635Y-3048
X508Y-5334
X19177Y4318
X0Y3810
X2794Y0
X16930Y1080
X3048Y1270
X15621Y-3048
X-1016Y2794
X0Y-3683
X-12954Y0
X17145Y-3048
X-17272Y-2921
X17145Y4572
X-7874Y3810
X5969Y-2540
X-16002Y3810
X-16217Y889
X-19304Y508
X-3175Y381
X-508Y-5334
X11430Y4318
X17780Y-4572
X15240Y6350
X-13081Y3937
X-11684Y0
X18034Y4953
X-25908Y5334
X15621Y-4953
X27051Y2540
X27051Y0
X27051Y-2540
X11938Y-3556
X5588Y-635
X5588Y635
X15240Y-1778
X13462Y4318
X1143Y2667
X7366Y-2794
X-18415Y-2286
X-24638Y3302
X-24638Y-3302
X9271Y4318
X11938Y-889
X8763Y3048
X-24638Y-2286
X-24638Y2286
X1270Y-2413
X-10668Y2667
X0Y0
M30