G04 EAGLE Gerber RS-274X export*
G75*
%MOMM*%
%FSLAX34Y34*%
%LPD*%
%INSoldermask Bottom*%
%IPPOS*%
%AMOC8*
5,1,8,0,0,1.08239X$1,22.5*%
G01*
%ADD10C,0.700800*%
%ADD11R,1.150800X1.050800*%
%ADD12R,0.685800X1.066800*%
%ADD13C,1.930400*%
%ADD14C,0.289272*%
%ADD15C,0.414550*%
%ADD16R,2.250800X0.400800*%
%ADD17C,0.450800*%
%ADD18R,1.651000X1.219200*%
%ADD19R,1.828800X0.152400*%
%ADD20R,1.350800X1.550800*%
%ADD21R,1.250800X0.600800*%
%ADD22R,1.550800X1.350800*%
%ADD23R,0.850800X0.850800*%
%ADD24R,1.320800X1.050800*%
%ADD25C,1.828800*%
%ADD26C,3.566800*%
%ADD27C,3.352800*%

G36*
X357662Y98780D02*
X357662Y98780D01*
X357705Y98792D01*
X357771Y98799D01*
X359454Y99250D01*
X359495Y99269D01*
X359558Y99288D01*
X361138Y100025D01*
X361175Y100051D01*
X361234Y100080D01*
X362662Y101080D01*
X362693Y101112D01*
X362746Y101151D01*
X363979Y102384D01*
X364004Y102420D01*
X364050Y102468D01*
X365050Y103896D01*
X365068Y103937D01*
X365105Y103992D01*
X365842Y105572D01*
X365853Y105615D01*
X365880Y105676D01*
X366331Y107359D01*
X366333Y107390D01*
X366340Y107412D01*
X366340Y107427D01*
X366350Y107468D01*
X366502Y109205D01*
X366498Y109249D01*
X366502Y109315D01*
X366350Y111052D01*
X366338Y111095D01*
X366331Y111161D01*
X365880Y112844D01*
X365861Y112885D01*
X365842Y112948D01*
X365105Y114528D01*
X365079Y114565D01*
X365050Y114624D01*
X364050Y116052D01*
X364018Y116083D01*
X363979Y116136D01*
X362746Y117369D01*
X362710Y117394D01*
X362662Y117440D01*
X361234Y118440D01*
X361193Y118458D01*
X361138Y118495D01*
X359558Y119232D01*
X359515Y119243D01*
X359454Y119270D01*
X357771Y119721D01*
X357726Y119724D01*
X357662Y119740D01*
X355925Y119892D01*
X355881Y119888D01*
X355815Y119892D01*
X354078Y119740D01*
X354035Y119728D01*
X353969Y119721D01*
X352286Y119270D01*
X352245Y119251D01*
X352182Y119232D01*
X350602Y118495D01*
X350565Y118469D01*
X350506Y118440D01*
X349078Y117440D01*
X349047Y117408D01*
X348994Y117369D01*
X347761Y116136D01*
X347736Y116100D01*
X347690Y116052D01*
X346690Y114624D01*
X346672Y114583D01*
X346635Y114528D01*
X345898Y112948D01*
X345887Y112905D01*
X345860Y112844D01*
X345409Y111161D01*
X345406Y111116D01*
X345390Y111052D01*
X345238Y109315D01*
X345242Y109271D01*
X345238Y109205D01*
X345390Y107468D01*
X345402Y107425D01*
X345406Y107391D01*
X345406Y107375D01*
X345408Y107370D01*
X345409Y107359D01*
X345860Y105676D01*
X345879Y105635D01*
X345898Y105572D01*
X346635Y103992D01*
X346661Y103955D01*
X346690Y103896D01*
X347690Y102468D01*
X347722Y102437D01*
X347761Y102384D01*
X348994Y101151D01*
X349030Y101126D01*
X349078Y101080D01*
X350506Y100080D01*
X350547Y100062D01*
X350602Y100025D01*
X352182Y99288D01*
X352225Y99277D01*
X352286Y99250D01*
X353969Y98799D01*
X354014Y98796D01*
X354078Y98780D01*
X355815Y98628D01*
X355859Y98632D01*
X355925Y98628D01*
X357662Y98780D01*
G37*
G36*
X603622Y-164630D02*
X603622Y-164630D01*
X603665Y-164618D01*
X603731Y-164611D01*
X605414Y-164160D01*
X605455Y-164141D01*
X605518Y-164122D01*
X607098Y-163385D01*
X607135Y-163359D01*
X607194Y-163330D01*
X608622Y-162330D01*
X608653Y-162298D01*
X608706Y-162259D01*
X609939Y-161026D01*
X609964Y-160990D01*
X610010Y-160942D01*
X611010Y-159514D01*
X611028Y-159473D01*
X611065Y-159418D01*
X611802Y-157838D01*
X611813Y-157795D01*
X611840Y-157734D01*
X612291Y-156051D01*
X612293Y-156020D01*
X612300Y-155998D01*
X612300Y-155983D01*
X612310Y-155942D01*
X612462Y-154205D01*
X612458Y-154161D01*
X612462Y-154095D01*
X612310Y-152358D01*
X612298Y-152315D01*
X612291Y-152249D01*
X611840Y-150566D01*
X611821Y-150525D01*
X611802Y-150462D01*
X611065Y-148882D01*
X611039Y-148845D01*
X611010Y-148786D01*
X610010Y-147358D01*
X609978Y-147327D01*
X609939Y-147274D01*
X608706Y-146041D01*
X608670Y-146016D01*
X608622Y-145970D01*
X607194Y-144970D01*
X607153Y-144952D01*
X607098Y-144915D01*
X605518Y-144178D01*
X605475Y-144167D01*
X605414Y-144140D01*
X603731Y-143689D01*
X603686Y-143686D01*
X603622Y-143670D01*
X601885Y-143518D01*
X601841Y-143522D01*
X601775Y-143518D01*
X600038Y-143670D01*
X599995Y-143682D01*
X599929Y-143689D01*
X598246Y-144140D01*
X598205Y-144159D01*
X598142Y-144178D01*
X596562Y-144915D01*
X596525Y-144941D01*
X596466Y-144970D01*
X595038Y-145970D01*
X595007Y-146002D01*
X594954Y-146041D01*
X593721Y-147274D01*
X593696Y-147310D01*
X593650Y-147358D01*
X592650Y-148786D01*
X592632Y-148827D01*
X592595Y-148882D01*
X591858Y-150462D01*
X591847Y-150505D01*
X591820Y-150566D01*
X591369Y-152249D01*
X591366Y-152294D01*
X591350Y-152358D01*
X591198Y-154095D01*
X591202Y-154139D01*
X591198Y-154205D01*
X591350Y-155942D01*
X591362Y-155985D01*
X591366Y-156019D01*
X591366Y-156035D01*
X591368Y-156040D01*
X591369Y-156051D01*
X591820Y-157734D01*
X591839Y-157775D01*
X591858Y-157838D01*
X592595Y-159418D01*
X592621Y-159455D01*
X592650Y-159514D01*
X593650Y-160942D01*
X593682Y-160973D01*
X593721Y-161026D01*
X594954Y-162259D01*
X594990Y-162284D01*
X595038Y-162330D01*
X596466Y-163330D01*
X596507Y-163348D01*
X596562Y-163385D01*
X598142Y-164122D01*
X598185Y-164133D01*
X598246Y-164160D01*
X599929Y-164611D01*
X599974Y-164614D01*
X600038Y-164630D01*
X601775Y-164782D01*
X601819Y-164778D01*
X601885Y-164782D01*
X603622Y-164630D01*
G37*
D10*
X-236700Y28900D03*
X-236700Y-28900D03*
D11*
X-160900Y38100D03*
X-143900Y38100D03*
D12*
X177800Y20480D03*
X187300Y40480D03*
X168300Y40480D03*
D11*
X27550Y0D03*
X10550Y0D03*
D13*
X241300Y-76200D03*
X215900Y-76200D03*
X190500Y-76200D03*
X165100Y-76200D03*
X139700Y-76200D03*
X114300Y-76200D03*
X88900Y-76200D03*
X63500Y-76200D03*
X38100Y-76200D03*
X12700Y-76200D03*
X-12700Y-76200D03*
X-38100Y-76200D03*
X-63500Y-76200D03*
X-88900Y-76200D03*
X-114300Y-76200D03*
X-139700Y-76200D03*
X-165100Y-76200D03*
X-190500Y-76200D03*
X-215900Y-76200D03*
X-241300Y-76200D03*
X241300Y76200D03*
X215900Y76200D03*
X190500Y76200D03*
X165100Y76200D03*
X139700Y76200D03*
X114300Y76200D03*
X88900Y76200D03*
X63500Y76200D03*
X38100Y76200D03*
X12700Y76200D03*
X-12700Y76200D03*
X-38100Y76200D03*
X-63500Y76200D03*
X-88900Y76200D03*
X-114300Y76200D03*
X-139700Y76200D03*
X-165100Y76200D03*
X-190500Y76200D03*
X-215900Y76200D03*
X-241300Y76200D03*
X215900Y-38100D03*
X215900Y-12700D03*
X215900Y12700D03*
X215900Y38100D03*
D11*
X-67700Y-7620D03*
X-84700Y-7620D03*
X-67700Y7620D03*
X-84700Y7620D03*
X-160900Y-22860D03*
X-143900Y-22860D03*
X59300Y43180D03*
X42300Y43180D03*
X-14360Y5080D03*
X-31360Y5080D03*
X-52950Y-43180D03*
X-35950Y-43180D03*
X42300Y-25400D03*
X59300Y-25400D03*
X-160900Y-38100D03*
X-143900Y-38100D03*
D14*
X-176532Y-35292D02*
X-184148Y-35292D01*
X-176532Y-35292D02*
X-176532Y-40908D01*
X-184148Y-40908D01*
X-184148Y-35292D01*
X-184148Y-38160D02*
X-176532Y-38160D01*
X-176532Y-35412D02*
X-184148Y-35412D01*
X-201932Y-35292D02*
X-209548Y-35292D01*
X-201932Y-35292D02*
X-201932Y-40908D01*
X-209548Y-40908D01*
X-209548Y-35292D01*
X-209548Y-38160D02*
X-201932Y-38160D01*
X-201932Y-35412D02*
X-209548Y-35412D01*
D15*
X-143831Y-1200D02*
X-141969Y-1200D01*
X-141969Y-9562D01*
X-143831Y-9562D01*
X-143831Y-1200D01*
X-143831Y-5623D02*
X-141969Y-5623D01*
X-141969Y-1684D02*
X-143831Y-1684D01*
X-151469Y-1200D02*
X-153331Y-1200D01*
X-151469Y-1200D02*
X-151469Y-9562D01*
X-153331Y-9562D01*
X-153331Y-1200D01*
X-153331Y-5623D02*
X-151469Y-5623D01*
X-151469Y-1684D02*
X-153331Y-1684D01*
X-160969Y-1200D02*
X-162831Y-1200D01*
X-160969Y-1200D02*
X-160969Y-9562D01*
X-162831Y-9562D01*
X-162831Y-1200D01*
X-162831Y-5623D02*
X-160969Y-5623D01*
X-160969Y-1684D02*
X-162831Y-1684D01*
X-162831Y24802D02*
X-160969Y24802D01*
X-160969Y16440D01*
X-162831Y16440D01*
X-162831Y24802D01*
X-162831Y20379D02*
X-160969Y20379D01*
X-160969Y24318D02*
X-162831Y24318D01*
X-143831Y24802D02*
X-141969Y24802D01*
X-141969Y16440D01*
X-143831Y16440D01*
X-143831Y24802D01*
X-143831Y20379D02*
X-141969Y20379D01*
X-141969Y24318D02*
X-143831Y24318D01*
D11*
X-184540Y38100D03*
X-201540Y38100D03*
X-19440Y43180D03*
X-36440Y43180D03*
X75320Y43180D03*
X92320Y43180D03*
D15*
X167369Y-21660D02*
X169231Y-21660D01*
X167369Y-21660D02*
X167369Y-13298D01*
X169231Y-13298D01*
X169231Y-21660D01*
X169231Y-17721D02*
X167369Y-17721D01*
X167369Y-13782D02*
X169231Y-13782D01*
X176869Y-21660D02*
X178731Y-21660D01*
X176869Y-21660D02*
X176869Y-13298D01*
X178731Y-13298D01*
X178731Y-21660D01*
X178731Y-17721D02*
X176869Y-17721D01*
X176869Y-13782D02*
X178731Y-13782D01*
X186369Y-21660D02*
X188231Y-21660D01*
X186369Y-21660D02*
X186369Y-13298D01*
X188231Y-13298D01*
X188231Y-21660D01*
X188231Y-17721D02*
X186369Y-17721D01*
X186369Y-13782D02*
X188231Y-13782D01*
X188231Y-47662D02*
X186369Y-47662D01*
X186369Y-39300D01*
X188231Y-39300D01*
X188231Y-47662D01*
X188231Y-43723D02*
X186369Y-43723D01*
X186369Y-39784D02*
X188231Y-39784D01*
X169231Y-47662D02*
X167369Y-47662D01*
X167369Y-39300D01*
X169231Y-39300D01*
X169231Y-47662D01*
X169231Y-43723D02*
X167369Y-43723D01*
X167369Y-39784D02*
X169231Y-39784D01*
X176869Y-39300D02*
X178731Y-39300D01*
X178731Y-47662D01*
X176869Y-47662D01*
X176869Y-39300D01*
X176869Y-43723D02*
X178731Y-43723D01*
X178731Y-39784D02*
X176869Y-39784D01*
D11*
X169300Y0D03*
X186300Y0D03*
D16*
X538410Y-101240D03*
X538410Y-94240D03*
X538410Y-87240D03*
X538410Y-80240D03*
X538410Y-73240D03*
X538410Y-66240D03*
X538410Y-59240D03*
X538410Y-52240D03*
X538410Y-45240D03*
X538410Y-38240D03*
X538410Y-31240D03*
X538410Y-24240D03*
X538410Y-17240D03*
X538410Y-10240D03*
X538410Y-3240D03*
X538410Y3760D03*
X538410Y10760D03*
X538410Y17760D03*
X538410Y24760D03*
X538410Y31760D03*
X538410Y38760D03*
X538410Y45760D03*
X538410Y52760D03*
X538410Y59760D03*
X538410Y66760D03*
X538410Y73760D03*
X538410Y80760D03*
X538410Y87760D03*
X538410Y94760D03*
X538410Y101760D03*
D17*
X580910Y-79740D03*
X580910Y80260D03*
D18*
X448630Y149860D03*
X448630Y134620D03*
D19*
X448630Y142240D03*
D18*
X489430Y149860D03*
X489430Y134620D03*
D19*
X489430Y142240D03*
D20*
X492150Y5080D03*
X511150Y5080D03*
D21*
X442261Y73000D03*
X442261Y63500D03*
X442261Y54000D03*
X416259Y54000D03*
X416259Y73000D03*
D22*
X392430Y83160D03*
X392430Y64160D03*
X466090Y73000D03*
X466090Y54000D03*
D23*
X372810Y27940D03*
X396810Y27940D03*
X372810Y2540D03*
X396810Y2540D03*
X372810Y-22860D03*
X396810Y-22860D03*
D22*
X424180Y7010D03*
X424180Y26010D03*
X444500Y7010D03*
X444500Y26010D03*
X464820Y7010D03*
X464820Y26010D03*
D20*
X438890Y-54610D03*
X457890Y-54610D03*
X388010Y-86360D03*
X407010Y-86360D03*
X452810Y-86360D03*
X433810Y-86360D03*
X407010Y-60960D03*
X388010Y-60960D03*
D24*
X453310Y-124460D03*
X433310Y-114960D03*
X433310Y-133960D03*
X404970Y-124460D03*
X384970Y-114960D03*
X384970Y-133960D03*
D25*
X347530Y-89160D03*
X347530Y-63760D03*
X347530Y-38360D03*
X347530Y-12960D03*
X347530Y12440D03*
X347530Y37840D03*
X347530Y63240D03*
X347530Y88640D03*
D20*
X489610Y58420D03*
X508610Y58420D03*
D22*
X555950Y-154940D03*
X555950Y-135940D03*
X531820Y-154940D03*
X531820Y-135940D03*
D20*
X489610Y109220D03*
X508610Y109220D03*
D22*
X474750Y-135940D03*
X474750Y-154940D03*
D20*
X489610Y83820D03*
X508610Y83820D03*
D22*
X498880Y-135940D03*
X498880Y-154940D03*
D26*
X346830Y144740D03*
X641830Y-145260D03*
X641830Y144740D03*
X346830Y-145260D03*
D27*
X-279400Y69850D03*
X-279400Y-69850D03*
X279400Y-69850D03*
X279400Y69850D03*
M02*
